<mxfile host="app.diagrams.net" modified="2020-10-14T05:02:34.539Z" agent="5.0 (X11; Linux x86_64) AppleWebKit/537.36 (KHTML, like Gecko) Chrome/80.0.3987.149 Safari/537.36" etag="GF3e4M0G1RmCr9A0KZY-" version="13.7.9" type="github">
  <diagram id="YQ7HucewwjUj6kk8mkqg" name="Page-1">
    <mxGraphModel dx="780" dy="501" grid="1" gridSize="10" guides="1" tooltips="1" connect="1" arrows="1" fold="1" page="1" pageScale="1" pageWidth="1654" pageHeight="2336" math="1" shadow="0">
      <root>
        <mxCell id="0" />
        <mxCell id="1" parent="0" />
        <mxCell id="i6UgYKZivtmGIP7_H5B_-1" value="" style="shape=image;verticalLabelPosition=bottom;labelBackgroundColor=#ffffff;verticalAlign=top;aspect=fixed;imageAspect=0;image=data:image/png,iVBORw0KGgoAAAANSUhEUgAAAEIAAACDCAYAAAA54M35AAAgAElEQVR4AcTB8YcrWcL44U8dx3GUUkopJUpERES0aK211q4xrnFd88NrvX/l+9Pr9VpjjNHGdbV2Xe2K1iIiIiIy2cjWllJKOY5T3y2+l7F2353Zndl9Hq9tW/5VVqtVK6VESolzjrquqaoKpRRSSpxzWGtpmobOq1evPP5FvLZt+a3M5/O2rms6dV1TVRXWWqSUSCmx1mKtpSgKtNZIKZFS4pxDKYXv+2it6Wit0VpzeXnp8Rvw2rbl17bZbNqiKDidThRFgRCCPM85nU7keU5d1zjnsNbinMNai9Ya3/fxfR8pJUEQEIYhQRAghCAIAsIwxPd9hBDc3d15/Iq8tm35tczn87aqKsqy5HQ6cTweyfOcuq4py5I8zymKgqZpsNYihKBjrUVrjdYarTVCCIIgIAgCfN9HSkkURcRxTJIkBEFAEAQEQcDd3Z3Hr8Br25Z/1ul0as/nM9vtlvV6zW63Y7vdcjgcKMuSpmnoOOfoCCGQUqK1RilFnudIKRFC0HHOIYRAa43WGuccURSRJAm9Xo8kSUjTlDiOiaIIrTV3d3ce/wSvbVv+UafTqS2KgvV6zeFwYLvdsl6vOR6PnM9n6rrGGIMQAiEEHecczjk6WmuUUkgpEULgnMMYQ13XOOeQUiKEoKO1JggC4jgmiiKyLKPX65EkCVEUEccxSZIwm808/gFe27b8I3a7Xbvf7zkcDnzzzTfkeU6e5+R5jrUWIQRCCDpKKTrOOaqqomkaOr7vEwQBvu8jhMBaizGGqqqw1iKlREqJcw4pJdZalFJIKYnjmCRJiOOYLMvIsozhcEgcx1xdXXn8Ql7btvwSx+OxNcZwOBxYLBZsNhvev39PWZZUVYUxBuccHSklzjmcc3zmnENKSRiGDIdDer0ey+USIQQday1N09ARQqCUomOtpSxLmqbBOYfv+0RRRBAEjEYjhsMhFxcXZFmG1prLy0uPX8Br25afa7/ft2VZst/veXx85PHxkcViQZIkdJqmoSgKPlNK0ev18H0fKSVaa3zfx/d9fN9Ha42UkqqqkFIipaRjraVpGuq6xhiDMYayLDmdTtR1jRAC3/cRQiClJE1Ter0e/X6f0WhEEATEcYzWmlevXnn8DF7btvwcp9OpzfOc9XrNfD7n06dP7HY7zuczdV2jlEJrjRACay2+75MkCUmSIKVECIGUEqUUSimklCilEEJQ1zVCCIQQdJxzWGsxxuCcIwxDiqIgz3PKsqSqKowx1HWNtZYwDEmShCRJGA6HpGlKv98nSRKiKOLm5sbj7/DatuXvqaqqPZ/PrFYr3r9/z4cPH1iv11hrkVJS1zVSSuI4Jo5jtNYEQYDv+4RhiDGGjhCCjhACIQSfSSlxzvGZEAIhBEIIhBCkaUpd11RVRVmWlGVJnuccj0fKssRai9aaMAzJsow0TZlOp4zHY7Is4+7uzuPv8Nq25f9SlmVbFAXr9ZrHx0fevXvHcrnEGIMQAqUUWmvCMCSKIsIwREqJUgqlFFpryrLkLznncM7RieMY5xzOOTpKKbTW+L6PUgrf93HOIYTAWosxhvP5zPF45Hw+s16vEUIgpSQIAuI4ZjabMZvNGI1GJEnC5eWlx//Ba9uWv6WqqraqKp6fn3l+fuaHH35gtVpRVRVSSoQQdK6urlBK0ZFS4pxDSomUEqUUp9OJjhCCjhACIQSfhWGIcw7nHFJKtNYEQUAYhvi+T0cIQRAESCmRUlIUBafTiTzPmc/nGGMoyxLnHFprJpMJFxcXDIdDZrMZvu8zm808/gavbVv+lt1u1x4OB+7v73l5eWE+n1OWJUopoihCSom1lsvLS5xzGGNwzuGcQymFlBKlFMfjESEEHSEEUkqEEDjnEEIgpcQ5R0dKie/7hGFIGIZorRFCIKUkDEO01mitqeuasiwpy5LlcklZlhyPR/I8x1pLHMcMh0OyLOP169ckSUKv12MymXj8FV7btvw15/O5XSwWLBYL7u/v2e/37Pd7rLUEQUCWZYRhiFKKMAyx1tI0DZ9JKXHO0anrmo5zjo4Qgo5zjs+EEAgh0FqjtSYIAoIgQCmFtRYhBGEYEgQBcRzjnEMIQdM0bDYbiqJgu91yOBw4n89orYnjmCRJePXqFf1+n/F4TJqmjMdjj7/gtW3LX2qapj0ej3z48IFPnz7x/v17yrKkrmustWitybKMfr9PHMdUVYVzDmMMHecc1lrqusYYg9Ya5xwd5xzOOTrWWjpKKYQQSCnRWuP7Pr7v4/s+SimOxyNCCKIoIooi+v0+vu8TBAHOOXa7HXmes9ls2O127Pd7Or7vE4Yh0+mU8XjMbDZjMBgwm808/oLXti1/qaqq9unpie+++47Hx0eOxyNSSjq+76O1JgxDlFIopTDG0JFS4pyj45yj45yjI4TAGENZlhRFgTEGKSVaa5RSKKXQWhNFEb7vEwQBWmuklBwOB5RSKKXQWhNFEUmSMBgMiOOY+XxO0zScz2fW6zW73Y48z+kopej1emRZxqtXr7i5uSGKIsbjscdPeG3b8lPH47HN85zHx0fu7++Zz+dYaxFCIKVEa41SiiAIkFKilKLjnKPjnEMphRACpRSd7XaLEIJOXdfUdY21FqUUWms6UkqklGitEUKgtUYIgZSSpmmQUhIEAb7vE0URaZrS7/eJoojj8YgxhrIs2W637Pd7jscjxhg6vu+Tpik3Nzfc3d2RZRmz2czjJ7y2bfmp4/HYLhYL3r17x+PjI+v1GiklQgiEEGitkVKitUZKiRACrTXOOYQQOOdQSiGlREqJlJL5fI4QAuccxhistXSUUmitsdbSsdbymZQSIQRCCLTWKKUIgoAwDImiiDRN6fV6RFGEEAJrLU3TcDwe2e/37Pd7iqKgaRqMMQRBwGw249WrV1xcXBAEAbPZzOP/89q25afW63X78PDA/f09i8WC8/mM1hohBEIIlFIIIZBS8lkYhgghUErRkVJijKFjrWW329ExxmCMwTmHEAIpJVJKOtZanHM45+gIIZBSIoRAa43WGt/3iaKIKIpIkoQ0TYmiiCAI6AghKIqC4/HIdrvlcDhQFAVlWaKUYjAYcHd3x83NDYPBgNls5vH/eW3b8lme5+18Pufbb7/l3bt3nE4njDFEUYQQAqUUUko+c87hnMP3fbTWhGGIlBJrLUVRUBQFVVUhhMAYQ9M0OOf4TClFRymFcw4hBB0pJUIIlFJ06rpGa41SiiAICIKAJElIkoQoikjTFCklWmuMMZRlyWazYbfbcTweOZ/PSCmJoojLy0tevXrF1dUVQRAwHo89/sxr25bO6XRqi6Lg8fGRH374gaenJ5qmQSmFlBIpJVJKlFJ0nHM457DWIoRAa00QBAghMMZwPp/J85ymaVBKYa3FOYcQAiklvu8jhEAIQRzHdKSUdIQQWGtxzuGc43g8IoRACIFSCiklSZKQJAlxHDMajZBSEgQBQgistez3e7bbLYfDgf1+j5QSpRSDwYC7uztevXpFlmWMx2OPP/PatqVzOBza3W7H+/fveXh4YLVaIaUkDEPKskQphVIKpRRCCJxzWGtxztE0DVJKpJQ45zDGUFUVdV1jrUUIQUcIge/7pGlKr9dDa42UkizL6AghMMZgjKEoCuq6pq5rdrsdHWMMHecccRyTpilJkjAcDpFSEkURWmuUUpxOJ3a7HYfDgcVigVKKThAEXF5e8ubNG6bTKRcXFx5/5rVtS2c+n7er1Yp3797x8eNHjscjSimiKMI5h5QSrTVaazrOOay1WGtpmgZrLc45jDFYa3HOYa2l45yjo5QiyzLG4zGj0YgoitBa0+v16AghqKqKsizZ7/ecz2fKsuRwOGCtpSxLrLUYY0iShDRNSZKENE1RSpEkCWEYorUmz3MOhwOHw4GPHz8ipaQjpWQ8HvP27Vuur68Jw5DRaOR5bdvSWa1W7dPTE//93//Np0+fcM7h+z5aaz4TQhCGIXEco5SiU9c1RVFQVRVVVeGcwxiDUgrnHNZahBAopRiNRlxdXXFxccFoNCKKIpRSCCFomgbnHEIIlFIURcHhcGC/37Nerzkej6xWK87nM50oiojjmCiK6Pf7JEnCYDBAKYW1ljzPcc5hreX3v/89VVVRFAVSSsbjMW/evOHm5oYsy5hOp57Xti3r9bo9n888PT3xzTffsFwukVISxzFBEOCcwzmHtRbf9wnDEN/38X0fay3n85miKMjznKZpaJoGpRTWWjpSSobDIVdXV1xdXTEcDkmSBKUU4/HY46/YbDbt6XTidDqxWCzY7/csl0t2ux1N06C1JggCoigiTVPSNGUwGBAEAUIIyrKk45zju+++I89z8jxHSslwOOT169fc3NwwGAyYzWae17Yti8Wi3e12fPjwgfv7e3a7Hb7vk6YpURTRqeuaqqoQQhCGIVEUEccxUkqstZzPZ/b7PafTiaqqEEIghEAIQZIkXF9f88UXX3B5eUkYhozHY4+/Y7PZtHmes91u2e12zOdzlsslh8MBIQS+7+P7PnEck2UZw+GQOI7RWtM0DUopOt9++y2n04nT6YSUkl6vx6tXr7i9vWU8HnN1deV5bduy3W7bl5cX7u/veffuHafTCd/3SdOUJEnoVFXF+XzGWouUkiRJ6Pf7hGFIkiScTid2ux273Y7T6URHSokQgsFgwN3dHW/evGE6nTIcDj1+ppeXl7YoCvb7PfP5nPl8znq9xhiDlBKtNVmWkWUZw+GQJEkIggBrLUophBB8++237Pd79vs9UkriOObq6oq7uzsuLy+5ubnxvD/+8Y/t6XTiw4cP3N/f8/T0RFmW+L5Pr9cjTVM6VVVxPB5pmoZOGIYMh0PiOGY8HnM+nzkcDmw2G/b7PdZahBBIKZlMJtzd3fH69WtGoxHD4dDjF3h5eWmPxyOLxYKnpyeen58pioKO1pper0eWZQyHQ5Ikwfd9rLVorRFC8P79e7bbLdvtFiEEQRBwcXHBF198wd3dHVEU4f3xj39sl8sl79+/5/7+nvV6jXOOMAzJsoxer4dzjqZpOBwOlGWJtRbf9+n3+8RxzMXFBVVVkec52+2W3W5HWZZYa5FScnFxwc3NDa9fv2Y0GjEcDj1+oU+fPrWr1Yqnpyc+ffrEfr/HGIOUkjAM6ff7jEYjkiTB932stSilEELw8vLCarViu90ihEBrzWg04vXr13z11VcEQYD3pz/9qX1+fub777/n/v6e4/GIEIIgCIjjmDRN0VpjreV8PlOWJVVVIaUkSRKiKGI2m+GcwxjD4XBgu91yPp+pqorOYDDg+vqar776iouLCyaTiccvtF6v291ux9PTE4+Pj6xWK8qyRAhBEAT0+31GoxG9Xo8gCOhorZFSMp/PWSwWbLdbhBAopRgMBrx584avv/4arTXen/70p3az2fDtt9/y7bffcjwe6SilCIKAOI6J45hOURSUZUlZlnSCICAMQ25ubhBC0Dmfz2y3W47HI0VR4JwjCAKur6958+YN19fXxHFMv9/3+AX2+317PB75+PEj79+/5/n5mTzP6URRxGAwYDKZkGUZYRgihEBrjZSSx8dHXl5e2O12CCFQSpFlGW/fvuV3v/sdQgi8P/zhD+3z8zMPDw+8f/+e4/GItRatNVEUkSQJTdOgtUYphbWWoiioqoq6rrHWcnFxQZIkJEmCMYbj8ch2uyXPc4wxSCnp9Xq8fv2aL7/8kizLmEwmHr/Qdrttn56e+P3vf8/DwwN1XeP7PtZaxuMxNzc3DIdDhBDUdU0QBMRxzP39PavVis1mg3OOIAiYTqe8fv2aL7/8kjAM8f7whz+0Dw8PPD4+8v79e06nE845tNaEYUiSJGit0VqjlMJaS1EUFEVBWZZYaxmNRiRJQpqmdMqyZLfbcT6fqaoKYwxxHDObzfjyyy8ZjUb4vs/t7a3Hz1QURXs+n3n//j3ffPMNLy8vNE2DlBKlFJPJhMvLS3q9Hp26rvF9nyiK+P7779lut+z3ezphGDKdTrm7u+Pu7o40TfF+/PHH9t27dzw+PvLw8MDpdEIIgdaaMAxJkoQoivB9HyklzjnyPCfPc4qioGkaoigiTVP6/T5BENA0DYfDgdPpRFmWnM9nlFL0ej1evXrF5eUlg8GAJEmYzWYeP0PTNO12u+V///d/+e677zgcDhhjsNbS6/WYTCZMp1PCMMRaizGGIAjQWnN/f89+v+dwOCCEII5jZrMZNzc3XF5e0u/38X788cf2w4cPPD4+8vDwwPF4pBMEAXEckyQJvu+jtUYphXOOoijI85yiKGiaBucccRwzGAxIkgSlFHmeczgcOJ/PnE4njDForbm6uuL6+pqLiwuGwyG9Xo9er+fxdxhj2peXF/7rv/6LH374gbquMcbQNA2TyYTxeMxwOERrjbWWju/7CCG4v7/ncDhwOBzopGnK7e0td3d3TKdT7u7uPO/HH39sP336xOPjI4+PjxyPR6y1hGFIGIYkSYJSCqUUSimstTRNQ1EUNE2DtZaiKPB9nzRNybKMIAgwxnA6nTifz5xOJ87nM845BoMB0+mU2WzGeDxmMBhgreX29tbjb6iqqq2qiqenJ/7nf/6HDx8+YIzBWosxhul0ynQ6JcsyhBBIKVFKobWmaRru7+85Ho8cj0ecc6Rpytu3b/niiy8Yj8dcXFx43o8//tg+PT3x+PjIw8MDh8MBay1BEBCGIUmSoLVGSomUEmstxhiMMUgpEUKQ5znWWpRSpGlKmqYopTifz+R5TlEUHI9HyrLE933iOGY0GjEcDhmNRkwmE4Ig4ObmxuMv5HneFkXBZrPh48ePfPz4keVySVVVdIQQTCYTLi4u6Pf7OOeQUqK1RghBnufc39+T5zl5ntMZDAb87ne/44svvqDf7zMcDj3vxx9/bOfzOQ8PD7x//579fo8xBt/3CcOQJEmQUiKEQEqJtZaOEIIwDNFaU5YlRVFQ1zVhGNLr9YiiiLquKYoC5xyn04nj8Yi1FmMMURSRZRnj8Zi7uzuiKCJNU8IwREqJMYaOc47tdsvHjx+Zz+ecz2eOxyNVVSGlJIoiBoMBl5eX9Pt9mqZBCIHWGmMMu92O7777DmMMTdMghODq6or//M//5Pr6miiKGA6Hnvfjjz+2i8WCh4cH3r9/z263wxiD1pogCEiSBOccQgg61lqUUmitSZKEIAgoy5LT6USe5/i+T5ZlJElC0zSUZUkYhuR5zuFwoCxLTqcTUkqSJGEymZBlGUmS0O/3iaIIpRTGGIwxGGPI85z7+3sWiwVKKeq6pqoqpJQMBgOyLOPy8pIsy6iqio6UkrIsWa/XfP/99wghcM4RhiG3t7f87ne/YzKZMJvNPP7M++Mf/9iu12uen595fHzk+fmZ4/GI7/v4vk8QBARBgJQSIQRCCJxzKKXwfR/f93HOkec5p9OJpmnwfZ8sy8iyjDAMcc5RFAWHw4Hj8cj5fMYYQ0cIQRAExHFMr9ej1+uhtaZpGvI8p6oq8jzneDyS5zkdIQSdKIoYjUbc3NwQhiFaa6y1SClpmobFYsGnT5+oqoqyLBFCkKYpX3/9NV9//TX9fp/RaOTxZ17btjw9PbXPz888Pj4yn885Ho/4vo/WmjAM8X0fpRRKKYQQWGuRUqKUQilFp65riqKgaRqklMRxTK/XI4oilFJUVcX5fOZ0OlEUBVVV0TQNzjmstWitiaKIIAgQQtA0DWVZ0jQNVVVhjEEIgRACKSVBEDAcDplMJoxGI5RSOOeoqopOVVWsVisWiwVVVdE0DUIILi8v+eqrr/jyyy+J45jRaOTxZ17btnz69Kl9eXnhw4cPfPr0if1+j9Ya3/cJwxCtNVprtNYIIXDO4ZyjI6WkI4TAWkvTNBhj0FqTJAlxHBPHMcYY6rqmKAryPOd8PlMUBXVd0xFCIIRACIExBmMMxhicc3wmpSQMQ3zfJ0kSJpMJ0+mUMAxxzlFVFXmeU9c1eZ6z2WzYbDY0TYMQgl6vx93dHa9fv2Y2myGlZDQaefyZ17YtLy8v7XK55MOHDzw9PbHZbBBCEAQBQRCglCIIAoIgQCmFtRZjDE3T0BFCEAQBSimMMZRliXOOOI6J45her4cQgk7TNBRFwfF45Hg8UhQFUkqstRhjaJoGay3OOX5Ka02v1yOOY7TWxHHMcDhkMBggpaRpGqqq4nw+cz6f2e12bDYbzuczUkq01lxeXvLVV19xfX3NYDCg3+97/H9e27ZsNpt2vV7z9PTEhw8fWC6XGGPwfR/f91FKEQQBYRiilMJaizGGpmlwztGJooggCLDWUhQFxhiCICAMQ7IsQ0qJ1ppO0zQcj0fO5zNFUXA+nzHG0DQN1lqstQgh6AghiOOYLMvo9/uEYYiUkjAMSdOUMAzJ85y6rqnrmrIsOR6PrNdr9vs9TdOgtSaOY7788ku++uorLi4umEwmHj/htW3L4XBod7sdLy8vfPjwgU+fPlEUBUoppJRorQmCgDAMUUrhnMNai7WWjjGGIAjwfZ+OMQZrLUoptNaEYYjWGt/3UUrRKcuSqqqo65rtdou1Fmst1lqstUgp6QghSNOULMvIsowgCAiCgCAIkFJijGG321FVFXVdU9c1x+OR9XpNWZY45wiCgIuLC16/fs3t7S1ZljEajTx+wmvbls5isWiXyyUfPnzg48eP7Pd7OlJKgiDA933CMEQpRcc5h3MOIQRN0yCEQCmFlBIhBB0pJZ8ppQjDEN/38X0f5xwday273Y7PhBAYY+g453DOEccxaZoSRRFaa8IwRGtNURTs93uapuF4PFIUBVVVkec5p9OJju/7TKdTZrMZt7e3TCYTtNaMRiOPn/DatqWz2Wza9XrNhw8feHx8ZLPZYIxBCEEYhvi+TxAEKKUQQiCEQEqJlJKyLHHOIYRAKYXv+0gpcc5hraWua5RSRFGE7/tEUYRSCt/36azXa6SUdKSUWGux1lLXNdZaJpMJYRji+z5CCLTWCCHYbrcsFgvSNGW323E4HKiqirIsaZoGrTVZlnFzc8PFxQXX19f0ej0Gg4HHX/DatqWzXC7b8/nMcrnk8fGRh4cHqqoijmN830cpRRiGBEGAlJKOMQbnHEopmqahrmuMMSilCIKAKIoIggBjDM45nHNIKfF9nyRJSNOUIAjYbDYIIbDWUtc1TdOglCKOY6Iooq5rtNYEQYAQAmstx+OR4/FIURR8+vQJKSVN01AUBR0pJZPJhMvLS96+fYvWmjAMubq68vgrvLZt+Ww+n7fr9ZoPHz7w/v17TqcTWmuklGit8X2fIAjwfR8hBM45nHNIKTHG0DQN1lqEEGitCYIApRS+7+Ocw1pLR0qJUgrf91FKYYxBKYVSCuccxhg6Sil830drjTGGuq4py5KqqiiKgrquMcaw2WzoVFVFR0pJr9fj7u6Oq6srptMpSimur689/gavbVs+22w27W63Yz6f8+7dO7bbLXVdY61FKUUQBIRhiNYapRRCCIQQOOew1mKtxVrLZ1JKhBBkWUZHCIFzDmMMTdPQNA3WWobDIb7vEwQBUkqstVhrcc7Rcc7RNA1lWZLnOVVVUZYlTdNgrSXPczpCCKSU9Pt9bm9v+eKLL7i4uEAIwWQy8fg/eG3b8tnpdGpPpxOLxYKHhween5/Z7/cYY1BK4fs+QRAQBAG+7yOlREqJMQYhBM45nHNYazHG4JzDWkuWZUgpUUohhMBaS1mWlGVJXdekaYpSCq01Ukqcc1hrcc7hnKOqKoQQdKy1VFVFURQURUHTNAghEEIQBAGTyYTZbMbNzQ3T6ZQkSUjT1OPv8Nq25aeWy2V7PB55enri6emJ5XJJVVVIKVFK4fs+vu8TBAFKKZRSWGuRUiKEoGOMoa5r6rrGGEMQBGitCcMQrTVSSuq6pqoqmqbhfD5jjMFai7UWIQRCCIQQCCEQQtBxzmGtpWkamqbBWktHa02SJIxGI25ubri6umIwGKCUYjgcevwMXtu2/NRqtWqrqmK9XjOfz5nP5+z3ezpCCJRSKKUIggClFFprpJRIKfnMGENd19R1jTEG5xxaa6IoIggCpJR0nHNYazkcDpRlSZ7nNE1DRymFUgohBFpr6rqmKAo6Qgg6WmuCIODi4oJer8d0OmU2m9Hr9fB9nyzLPH4mr21b/tJqtWrP5zOLxYJPnz7x6dMnrLVYa/nM93201iiliKIIIQRCCDrGGJqmoWkajDEYY5BSopRCa43v+0gpkVLSaZqGPM/J85yyLOlIKRFC4JxDCEHTNBhj6CilGA6HZFlGmqZcXl4SRRFpmhLHMdPp1OMX8tq25a9ZLpftarXi6emJH374AWMMTdNgrUUIgVIKpRRaa3q9Hj9ljKFpGowxWGux1tIRQtCRUqKUIggCpJRUVUWe5xRFQVVVCCHoGGMwxqCUQkpJGIZkWUaWZUwmE3q9HnEcM5lMkFIymUw8/kFe27b8Ncvlst3v9xwOBx4eHjgcDmw2G+q6RmtNFEVYa3HOkaYpWmuklFhrsdbinMP3fXzf53w+45zDWou1FuccHSklHWMMRVFQliUday0dpRRSStI0ZTKZMJ1OGQwGpGlKv99Ha421lvF47PFP8tq25W/5+PFjezqd+PjxI9vtltVqxfl8phMEAR0hBGEYorVGKUXHWou1FqUUSimMMTjnsNZijMFaizGGjnOOpmkoyxLnHEopnHNorYmiiCzLmEwmDAYDsiwjiiKCICCKIsbjscevxGvblr9luVy2RVGw2WxYrVY8PT2xXq8xxqCUQkqJlBKlFL7vo5RCSknHGMNnSik6zjmMMRhjqKqKpmkwxiCEwBiDcw7f95FSkiQJ/X6fyWTCxcUFvV6PJEm4uLjw+A14bdvyf1mtVu35fGa5XPLx40fm8zl5nuOcQ0qJEAKlFFprfN9Ha03HWotzDmstWmuEEHSstVhrqaqKuq5pmgalFE3T4JxDa41SijRNmUwmXFxcMBqNSNOUm5sbj9+I19VWlZ0AABcNSURBVLYtf89qtWrX6zXz+Zynpyd2ux1lWeKco+P7PkoptNYEQYDWmo61FmMMQgiEEEgp6TjnaJoGYwzGGIqioGkaOlprhBAkScLFxQVXV1cMh0PSNOX6+trjN+K1bcvfs91u2+PxyG634/n5mc1mw36/J89zjDForRFCIKUkiiJ830cpRccYgzEGIQRKKTpSSqy1dKy1LBYLrLV0lFJ04jhmOp1yfX3NdDql1+txdXXl8Rvx2rbl51gul21Zlmw2GzabDcvlku12S1EUGGPoOOeI45g4jgnDECEE1lqapqEjhMA5h5QS5xxaazrL5RLnHNZaOnVdo7Wm3+9zeXnJzc0NWZbR6/WYTqcevwGvbVt+rs1m0x4OB7bbLfP5nOVyyel04nQ68VkURSRJQhzHKKVwzmGMwTmHcw5rLVJKOkopOlVVYYyhrmuapuF0OuGcI0kSxuMxt7e3DIdDBoMBvu9zdXXl8Svz2rbll1itVm2e5ywWC1arFdvtlsPhQF3XFEWBEALf94miCK01UkoGgwEday1N09A0DR3f91FKURQFdV1TliVlWVJVFR0hBFJKrq+vubq64ubmhn6/z3g89viVeW3b8kstFot2s9mw3+/Z7/fM53PKsuRwOGCtRUpJEAQEQYDWmsFggBACIQTGGIwxWGuRUiKEwBhD0zRUVUVZlhhjsNbSEUKQZRmz2YybmxvG4zFaay4vLz1+RV7btvwj5vN5m+c5p9OJx8dHTqcTm82GPM8xxqC1xvd9tNb0ej1830drTcdaS9M0OOfoCCEwxtA0DXVdY4yhaRqstTjnEEIwHo+5urri8vKSLMsIgoDZbObxK/HatuUftVqt2qIomM/n7Pd7FosF2+2WsiwRQqCUQimFUgrf94miCN/3EUJgrcU5R8c5h7UWay1VVWGMoa5rjDEYY2iahjiOmU6n3N7eMplMyLKMq6srj1+J17Yt/4zlctlut1t2ux2r1YrVasXxeKRpGpxzOOcQQuD7PmEYEkURvu8jpUQphZSSqqqw1mKMoaoqjDFUVUXTNBhjKMsSrTVZlnF9fc3FxQWTyYQwDLm+vvb4FXht2/LP+vTpU7vf71mv16xWKw6HA6fTibIsqesaIQS+7+P7PlEUEQQBURQRhiFBEFBVFcYY6rqmLEvquqaua4wxWGs5nU5IKQmCgOFwyHg8ZjabMRwOieOYq6srj3+S17Yt/6zdbteez2f2+z2bzYbD4cB2u+VwOJDnOU3ToJRCKUUQBARBQJqmZFlGHMd06rqmKAryPKeqKuq6xjlHZ7/f45yjEwQBaZpydXXF5eUlw+GQV69eefyTvLZt+TUcj8f2dDqx2+3Y7/esVis2mw3H45GiKBBCIIRAa43WmizLGAwGJElCHMdUVcX5fOZ0OlFVFU3T4Jyjs9vtMMbQNA1CCOI4Zjqdcnt7y2w2I8syJpOJxz/Ba9uWX8tms2mLouB8PvPy8sJisWC73ZLnOXVd0zQNzjmUUqRpSpZlpGlKmqZYazHG0DQNzjmKoqCua+q6plOWJWVZ4pxDCEGSJFxeXnJ7e0u/3yeOYy4vLz3+QV7btvyalstlW5Ylm82G9XrNfr9nsVhQ1zVVVWGMQUqJ7/tEUUQYhozHY8IwxPd9jDGUZcnxeMQYg7WWuq4py5KiKLDWYq0lCAKGwyFXV1fc3NyQZRnX19ce/yCvbVt+bZvNpj0cDhwOB06nE+/fv6eqKk6nE2VZYq1FSomUEqUU0+mUfr9Pv99HCEGe5+z3e4wxOOdwzlEUBXmeU9c1dV0jhCCKIkajEW/evGE0GpFlGdPp1OMf4LVty29htVq1eZ6T5znv3r0jz3N2ux37/Z66rukIIZBSEkUR/X6f4XBIkiR08jynrmvqukZrTZ7nlGVJXdfkeU7TNGitSZKEr7/+mslkwng85vLy0uMf4LVty2/l+fm5LcuSxWLB4XBgtVqxWq3I8xxrLUoplFI45wiCgF6vx3g8pt/vI4SgLEvyPKeT5zlFUdA0DUVRUFUVzjmCIOD169dMJhMuLy/JsozhcOjxC3lt2/Jbenp6aouiYL/fs1qteHl5Yb/fU9c1QgiUUtR1jRCCMAyZTCZcXFyQpinWWoqi4Hw+czqdyPOcpmkoioKiKLDWorXm+vqa0WjE1dUVs9kM3/cZDAYev4DXti2/tZeXl/Z0OrHZbHh5eWG323E6ncjzHGstzjk6Sin6/T6TyYTBYEAURQghOJ1OHA4HTqcTVVVRliXn85m6rpFSMh6PybKMq6srvvjiC9I0ZTAYePwCXtu2/Cs8Pz+3+/2e5XLJarVivV5zOByoqoqOlBIhBHEck6Ypw+GQ0WhEmqbUdc1+v+dwOFCWJWVZcjqdKIoCpRRhGJIkCdfX17x584bhcMhwOPT4Bby2bflXWK1W7fl8Zrfbsd/vWSwWbLdbDocDUkrqusY5RxzHKKXo9Xr0ej3G4zFxHKO1ZrVaMZ/P6ZRlyXa7pSOlJIoiLi8vefPmDZPJhOvra49fwGvbln+Vl5eX9ng8cjgcWC6XbDYbDocDVVVRVRVN0xAEAVproigiSRKGwyEXFxf4vs92u+X5+ZlOnues12s6zjl832c8HvPmzRsuLy+JoojZbObxM3lt2/Kv9PT01OZ5zmq1Yrfbsd/v2e/35HlOURQopZBS4vs+URSRZRlv3rwhjmNOpxOLxQJrLcfjkdVqhXOOqqqQUpKmKV999RV3d3cMBgMuLy89fiavbVv+1Z6entrNZsPhcOBwOLBYLDgcDpzPZ4QQSCnRWhMEAUmS8ObNG/r9Pk3TsFqt6Ox2O56fn2mahqZpsNYSBAF3d3e8ffuW2WzGbDbz+Jm8tm35V9tut+3hcOB4PHI8Hvn48SPb7ZbdbodzDiklSil83yeKIm5vb5lOp0gp2e/3dNbrNfP5nLquMcZgjEEpxWw24+3bt7x69Yo4jun3+x4/g9e2Lf8O6/W6zfOcPM/54YcfWK1WrFYrjDEIIVBKoZTC932m0ynX19ekacrpdEIIwWKx4OnpibquaZoG5xzOOYbDIV999RVv3rwhyzL6/b7Hz+C1bcu/y2q1aoui4OHhgZeXF15eXijLEmstHaUUWmtGoxGvXr1iOBxSliVSSl5eXvj48SNlWVKWJUIIrLWkacqrV6/4+uuvGY1GjEYjj5/Ba9uWf5fFYtFWVcXz8zPz+Zz5fE6e5zRNg3OOjlKK8XjM69evmUwmNE2DlJKXlxc+fvxIWZYcj0eUUhhjCMOQm5sb/uM//oPpdMpkMvH4Gby2bfl32mw27fPzM2VZcn9/z+PjI845lFJUVYXWmuFwyHA45Pb2lsFggLWWl5cXXl5eOJ1OrNdrOkII4jjm5uaGN2/eMJlMmM1mHj+D17Yt/27ffvttW5Yl33//PQ8PDzjnkFJSVRVaa9I0ZTgccnt7S7/fR0rJZrNhuVxyPB5ZLpc453DOEYYhNzc3vH37lslkwtXVlcfP4LVty7/bu3fv2rIs+e6773j37h3WWoQQVFWF1po4jhkMBlxeXjIYDAiCgNPpxGazYb/fM5/PsdZirSUIAq6urnj79i0XFxfc3Nx4/Axe27b8u338+LEtioJvvvmGH374AWMMQgiqqkJrTb/fJ8syptMpaZqSJAl1XbNer9lsNvy/7uDww3W0YeDwL7eIiIiIiIqIqqiqqDFqjDGOtdYa+3eu/bTWOh/WGmsdxzFGjaqqqqqoqoqKioiKiNzP2w/Pl/U+787ZPbtnn/e6ptMpdV1T1zWGYTAajXh4eGA0GjEejxVeQZFS8rnNZjN5Op14+/Ytv/zyC3VdI4SgLEsMw2A4HNLpdOh2u9i2TafToW1bVqsVs9mM+XxO0zTUdY1hGIxGI7755hviOGY8Hiu8giKl5HObzWYyyzLevn3L4+MjdV2jqipVVWEYBtfX13ieRxAEmKZJEASoqsp8PufDhw8sl0vatqVpGizL4vr6moeHB+I4ZjQaKbyCIqXkc3t5eZFZlvH27VseHx9pmgZN06iqCtM0GQ6H+L6P7/tYlkWv10PXdV5eXnh8fGS1WvFvjuNwc3PDw8MDw+GQwWCg8AqKlJLPKU1TudvtyLKMH3/8kV9++YW2bVFVlbqusSyLbreL7/sEQYBt2/T7fUzTZDKZ8NNPP7FarRBCIITAdV1ub295eHhgMBgQRZHCKyhSSj6nNE1lnuf8/PPP/Prrr+z3e7Iso65rDMMgiiJc18U0TQaDAYPBgCAI2O/3vHv3jufnZ5Ik4UJVVXq9HldXV9zc3BBFEePxWOEVFCkln0tVVbIoCj58+MDT0xMvLy9kWUZRFDRNg+M4DIdDTNPEcRziOKbX62GaJpvNhnfv3jGdTtnv91xomkYURdzd3XFzc0O322U4HCq8giKl5HMpikIeDgd++OEHFosF6/WaPM+pqoqLIAgYjUbouk4YhsRxjOd5nM9nZrMZ79+/Z7lckuc5F5qmcXV1xRdffMHt7S2dTocwDBVeQZFS8jmcz2eZpinL5ZKff/6ZJElIkoSyLLlQVZUoiri6usIwDKIoIo5jNE1ju93y4cMHnp6e2O/31HXNha7r3N/f89VXXzEejxkMBgqvpEgp+RyyLJOLxYLJZMJkMmG/37Pf72nbFiEErusyGo2I4xjDMOh2u4RhyPl8Zj6f8/79e2azGXmeI4TgwnVd3rx5w5dffkkcx/R6PYVXUqSU/N2KopDb7Zanpyeen5+Zz+ecTifquubCcRxGoxHD4ZAwDFFVFdd1sW2bNE2ZTCY8Pz+z2Wyo6xpVVdF1nX6/z/39Pbe3t4RhSK/XU3glRUrJ32m328nD4cBqteLp6YnpdMrxeKSua4QQGIbBaDTi6uoK13VRVZUwDNE0jbquSZKEyWTCYrHgeDzSNA2aptHpdBiPx9ze3jIcDnFdlzAMFV5JkVLydzkcDjJJElarFYvFgul0ynq9RtM0mqZBCEEYhlxdXTEcDrkoioK7uzuapuF0OrFarXh5eWG9XlOWJW3bous6/X6f+/t7xuMx3W6XwWCg8BEUKSV/h81mIw+HA7PZjOl0ymKx4HQ6Udc1F5qmMRwOub+/x3EciqLgwvM8NE2j1+txPB757rvveHp6QgiBEIKqquh2u9zc3PDll19ydXWFpml4nqfwERQpJX+lPM/lZrPhdDqx2WyYzWbMZjPSNKVpGi4syyIIAgaDAb1eD1VVqesa0zTxPI+maRBCsF6veXx8ZL1eo6oqqqpS1zW3t7dcXV1xf39Pv9/H932Fj6RIKfmrHA4HWRQFLy8vHA4HFosF8/mc4/HIhRCCi9FoxGAwoNvtclFVFaZp4nketm1zOp3YbDY8Pz+zWq0oyxIhBIZhYFkW33zzDf1+nziO8X0fz/MUPpIipeSvcDweZZIkbLdbJpMJaZqyXC45Ho9cCCFwHAfXdYnjmF6vh2VZnE4nhBCEYYhlWdR1zX6/ZzKZMJlMKMuSpmm46PV6jEYj3rx5Q6fTwfd9oihS+AMUKSWf0ul0kk3TkCQJ0+mU5XLJYrHgdDqRZRkXQgh83yeKIjqdDp7nYVkWbdtSliWO4xCGIRe73Y7pdMpisWC329G2LRe6rjMej/n666+J4xjLshgMBgp/kCKl5FNJkkQWRUGWZSwWC6bTKZvNhv1+T9M0XGiahu/7RFGE7/vYto1hGNR1TV3XqKpKp9PBMAzSNGW9XvP09MTpdKKqKoQQaJpGEAR88cUXfPXVV3iex2AwUPgTFCkln8J6vZZpmpIkCev1muVyyX6/pygKqqpCVVUMwyAIAoIgwPd9dF1HCIGu6xRFgRACz/PQdZ39fs9qteJwOLDZbKjrmgvDMOj1etzc3DAejxkMBqiqShRFCn+CIqXkz0qSRGZZRpIkzGYz5vM5u92Oqqpo2xbLsjAMA8dx6PV6+L6PZVlUVUVVVVyUZYlt2wRBQFVVPD09sVgsKMuS8/lM0zS0bYvrutzd3fHw8MBgMMCyLDqdjsKfpEgp+aPSNJX8j91ux3Q65f3798xmM4qi4EJVVS4cxyEMQ/r9Pr7vo6oqVVXRNA1N0zAcDrmoqoo0TUmShM1mw+FwoCxL6rpGVVX6/T53d3eMx2P6/T62beN5nsInoEgp+SMOh4PMsowsy3j37h2r1YrZbEZZllyYponruhiGQb/fxzRNLMtC13WEEKiqimmaGIZBXdecz2eyLCNJEjabDfv9nvP5zIVhGPi+z/X1NTc3N/T7fTzPo9vtKnwiipSSj5VlmTwcDiwWC1arFe/fv+d4PJLnOReGYTAYDOj3+7iui2maaJqGpmkIIRBCoKoquq6j6zrz+Zwsy0iShNVqRZ7ntG2LEAJN04jjmH6/z83NDcPhEMdxCIJA4RNSpJR8jDRN5fF4ZLFYMJlMWK1WbLdb6rqmaRps2yaKIgaDAd1uF8dxyPMc0zRxHAdN02iahtPpRJ7nlGXJdDolyzKSJKEsSy6EEARBQBAEXF9fE0URcRzjeR6u6yp8YoqUktfK81zu93um0ynPz8+sViuOxyN5nqPrOq7r0uv1iKKIIAiwbRtN06jrGk3TMAyDpmnI85ztdstmsyFNU5Ik4Xw+0zQNF6qq0uv1uL6+Jooioiii0+ngeR6dTkfhL6BIKXmNw+Egi6JgPp/z9PTEdDrldDrRti1t2+L7Pv1+n8FgQBAEWJZF0zS0bctFURRkWUaaphyPR3a7HWmakuc5dV0jhEBVVSzLIggCRqMRo9GIbreLbdvEcazwF1KklPye7XYrT6cTSZLw8vLCfD5nv99zoWka3W4X3/fp9Xp0u10Mw+DifD5T1zXr9Zrj8cjhcCBNU6qqoixLzuczbdsihMC2bYIgoN/v0+l06PV6dDodHMchjmOFv5gipeT3JEkiN5sNk8mE6XTKfr+nqip0XUfXdeI4xnVdPM/DdV2apuF8PpPnOVVV8euvv1KWJUVRUNc1mqZx0TQNTdPg+z5hGDIYDBgOh7iui+u6aJrGcDhU+BsoUkr+L1mWyfl8znK55MOHDywWC6qqwvd9+v0+YRjS6XS4aNuWoig4Ho9st1t2ux15nnMhhKCqKuq65kIIge/7hGHIaDQiCAKiKML3fTRNIwxDhb+RIqXkP0mSRNZ1zePjI0mSsFwuKcsS13WJooggCDBNk6IoOJ/P5HlOmqZkWUaappRlSVVVCCEQQmAYBrquo+s6vu/T6/UIw5AwDHEcB8dxiONY4TNQpJT8b7bbrUzTlCzL+Omnnzgej5RliW3b9Pt9giDg4nw+s1qtyPOcNE1J05SyLGnbln/TdR3LsvB9n06ng+d5hGFIt9ul0+lgWRZRFCl8RoqUkt/a7XYyyzLW6zXb7Zb1ek3TNGiahm3bOI7DRZ7nZFnGcrmkLEvO5zN1XXMhhMC2bQzDoNvt4rouvu/j+z62beM4Dq7rMhwOFf4BFCklvzWdTmWapqxWK7bbLVVVYZomjuMghKAoCg6HA8fjkTzPSdMUIQRCCEzTxLZtPM/D8zxM0ySKIizLwnVdbNtG13WGw6HCP4gipeS3Hh8fZZZl7Pd7jscjbdti2zaWZVFVFcfjkd1uR1EU1HVNWZYYhoHjOPi+j+u6dDodHMfBMAwcx0HTNEzTZDgcKvwDKVJKfuuHH36QZVlSVRVN01BVFUIILs7nM2VZUpYlbdtyoes6hmFgWRau62LbNrZto+s6mqZxfX2t8A+nSCn5T77//nup6zpVVZHnOUVRcD6fUVUVVVW5aNuWKIrQNA1VVTEMA1VVubu7U/gvokgp+T3ffvutrKqKqqpomgZVVTFNE9M0MQyDIAgQQnARx7HCfyFFSslrfPvtt7JpGoQQ6LqOaZqYpomu69zc3Cj8l1OklHyMx8dH+fXXXyv8P/Mv++pVoetVAlIAAAAASUVORK5CYII=;" vertex="1" parent="1">
          <mxGeometry x="79" y="496" width="35.27" height="70" as="geometry" />
        </mxCell>
        <mxCell id="i6UgYKZivtmGIP7_H5B_-2" value="" style="shape=image;verticalLabelPosition=bottom;labelBackgroundColor=#ffffff;verticalAlign=top;aspect=fixed;imageAspect=0;image=data:image/png,iVBORw0KGgoAAAANSUhEUgAAAG4AAABqCAYAAABdymTtAAAgAElEQVR4AezB+3NU52H4//d5znNuOqz2ovWy6IK8kQEjyzKWwYAJxnYYJ5M2bdqf+o+1M53+0pk2+SFxc6knSaclJDFgPhjiCIwxQhZCF5ZlWa20e3R09lz2eT45M/V8M5m2nzb1JWm/r5ehteb/9/9ZXFzU/JpSCiEEpmmitSZJEpRSDIdDflMYhpw/f97gc2Zorfnf7NatWzrLMpIkIY5j4jgmSRKUUuS63S6/TQiBEAIhBI7jIKXEcRwcx+H11183+BwYWmv+t7l//76O45g0Tbl16xZJkhBFEWEYEoYhURSRJAnD4ZDNzU2EEAghkFJimia2beM4DlJK6vU6juNQKBQYHR3F931c18U0Tb7yla8YfEYMrTX/W3z00Uc6iiK63S7b29sEQcCdO3eI45goitje3iYIAsIwJI5jsiwjiiJyUkpM02RkZATP87AsCyklQgg8z6NSqVCtVhkbG8P3fRzHQQiB7/tYlsWf/MmfGHyKDK01/5MFQaCfPHnCo0ePaLfbbG9v8/DhQ1ZWVtjc3KTdbqO1JssysixDKYUQAiklUkqUUuSUUuSEEAghME2TT9i2jRACx3FwHId6vc7k5CQHDhzA8zwKhQKFQgHP83j99dcNPgWG1pr/iVqtlubX2u02m5ubrK6usra2xvb2No8ePWJzc5NOp0OlUkFrTZZlKKXISSkxTRMhBMPhkN9mGAZSSnJRFCGlRCmFEIJcqVSiUqkwNjaG53lUKhVqtRrVahXf93FdlzfffNPgv8HQWvM/TbPZ1FtbW3Q6HX7+85/TarXY2Nig3W6TJAnD4ZAsy0jTlNHRUZRSfEIIgZQSKSWGYRDHMTkhBDkhBEIIPhEEAUIIlFJkWUaaphiGgeu6WJaF67pUq1UmJiZoNBqMjY1RKpXwfZ+vf/3rBr8jQ2vN/xSPHz/Wv8bq6irvv/8+d+/e5c6dO/R6PYIgIE1TDMPAdV1M0yQ3MjJCzjAMhBAIIZBSYpomQgjCMEQIgRACIQRCCD6hlCLLMnJKKYbDIXt7e6RpSpIkaK0xDINCoUCtVuPgwYPUajUOHDhArVajWCzyta99zeB3YGit+Z+g1Wrp7e1tVlZWuH79OouLi6ytreG6LkmSkGUZw+EQIQS5LMtQSjE+Po4QAtM0EUIgpUQIgWEY5KIoQgiBlBLTNPmE1hqlFEopPqGUIssy0jQlDEPiOCYMQxzHwXEcisUixWKR6elppqamqNVqTE1N4bouZ86cMfgvMLTW/CF7/Pix3t3dZX19nZs3b3L79m0++ugjdnZ2SJKENE2xLAvXdfE8DyEEpmkyHA7JVSoVhBCYpomUEiEEOaUUuTiOMU0T27aRUpJTSpFlGUop4jhGKYWUEiEElmWRZRlRFBHHMUEQoJQiDENynufx1FNPMTU1Rb1eZ25ujtHRUcbGxjhz5ozBf5KhteYP1crKit7e3mZlZYWbN2+yuLjIxsYGe3t75KSU9Ho9bNvG932KxSKO4+B5HrZtY5omaZoihMA0TaSU5JRSZFmG1posy5BS4jgOUkoMw2A4HJJlGVmWkaYpWZYhpURKyb59+8gNh0OiKCIIApIkod/vs7e3R65QKDA2Nka1WuXw4cPU63Wmp6cpl8ucOXPG4D/B0Frzh2hlZUWbpsmFCxe4d+8ei4uLPHz4kCRJkFIihCBJEnzfx3VdDMPAtm2yLMO2bYQQWJaFlBIhBKZpIoQgl2UZw+GQLMvISSlxHAfbtskppUiShOFwiGEYxHGMEAIpJZVKhZwQgiiK2NvbYzgcsr29TRRFhGGI53n4vk+hUKBWqzE9Pc2RI0eo1+tYlsW5c+cM/h8MrTV/aDY3N/XGxgYrKyt8//vfp9Vq0e12sSyL4XBIkiRIKfE8DykllmVRLBbxPA/P88gJIVBK8ejRI0zTxHVdTNNECEGapgwGA4bDIZ7n8dtM00QIgRCCKIqwLAvbtrEsCyEEaZqSJAlpmmKaJmmaEscxe3t7aK1JkgQhBDmlFFNTUxw6dIgjR45Qq9UolUqcO3fO4D9gaK35Q3L//n29urrKBx98wNLSEsvLy7Tbbfr9Po7j8AnP8ygWiwghME0T13WxLAvXdfmEUort7W2EEEgpMU0TIQRKKYbDIUophBD8JiEEpmli2zZCCHq9HpZl4boulmWRGw6HJElClmUIIUjTlCRJiOOYLMsYDocopchFUUS1WmVqaopDhw4xNTVFvV6nVCpx6tQpg3+HobXmD0Wr1dIrKytcuXKF69evs7KyQpqmhGFIkiQ4joNt2ziOQ6FQoFqtopQiJ4QgJ4QgJ4QgF4YhSimEECilEEIghMA0TYQQRFFETimFEAIpJaZpIqVESkmv18O2bRzHwbIshBAopRgOhyilUEqRZRnD4ZDBYEBuOBySU0rRbDZxXZdKpcLMzAyNRoNnnnmG8fFxzp07Z/DvMLTW/CF4/Pix3tjY4Pr161y6dIm7d++ys7PD3t4eUkocx6FQKOC6Lr7v4/s++/btI01TlFIopVBKIYRACIFt2xiGwe7uLkmSkKYpSZKQE0JgWRZCCIIgIKe1xjRNhBDYto1pmkgpieMYy7JwHAfXdRFC8JuyLEMphVKK4XBIlmUopVBKkVtdXUUpxcjICLVajWeeeYa5uTmmp6cpl8ucPXvW4N9gaK35fbe5uambzSa//OUvuXr1Krdu3SIIArTW7O3tUS6XKZVKFAoFbNvGcRyklJimSZqm5JRSKKWwbRshBKZpIoSg2+0yGAwIw5AwDBkOh+Qsy0IIQRRF5JRSCCGQUmKaJrZtI4QgZ5omnufhui6WZSGlRAhBTilFTimFUgohBFmWobUmt7m5SZqmZFmG7/vU63Xm5+c5fPgw9XqdUqnEqVOnDH6LobXm91kQBHp1dZVr167xi1/8glu3btHtdslJKbEsi/HxcWq1GkIIsixDSkkuyzKyLCMnhCAnpeQ3dTodBoMBYRgSRRFpmqKUQkqJYRh8YjgcIoQgZ5omQgiklOQsy8K2bTzPw3EcbNvGsiyEEHxCCEFOCIFSiizLUEqxu7tLkiT0ej1yxWKRqakpjh49SqPRoF6vc/78eYPfYmit+X314MED3e/3ef/993nnnXe4ceMGOzs7KKUQQpCbmZmhXq+zb98++v0+YRhimiZSSrIsI01ThBAIIcgppUiShOFwSJZl9Ho9hsMhSZKQpilZlpETQiCEwPM8lFJkWYZSipwQgpwQgjRNMU0TKSWe5+F5Hq7r4jgOUkoMw0AIgZQSIQRCCLIsQymFUgqlFFprtra2CIIArTWVSoXDhw9z9OhRGo0GlmXxx3/8xwa/wdBa8/toeXlZe57HpUuXuH79OlevXmVtbQ0pJYVCgdxgMODll1+mWq2S29zcpNvtYlkWIyMjKKVIkgQhBEIIckmSEEURURQRxzFRFPEJpRRCCAzDICeEoFAooJRCKcVwOEQpRU4phRCCIAiQUmKaJq7r4nkenufhOA62bSOlxDRNpJQIIRBCoJRCKUWWZbiui2EYPH78mHa7zd7eHoVCgUajwdzcHLOzs7iuy+joKF/5ylcM/pWhteb30ebmpt7e3ubv/u7vuHLlChsbG5RKJcIwJAxDfN/njTfeII5jgiCg2+0SxzGWZeH7Pr7vY9s2o6OjhGFIv99na2uLOI5JkgQhBEIIms0mOa01OcMwsG2bYrFIqVTC931yUkqyLEMpRRzHxHFMlmUIIUiShDiOybKMnG3bOI6D4zgIISiXy4yOjiKEIAxD4jjGsixGRkYolUqEYUi73abb7RKGIZ7nUSwWqVQqzM3NMTs7y9TUFKdOnTL4V4bWmt83rVZLr6+vc/fuXf7hH/6B27dvs7u7i+d5CCFIkoTx8XFeeOEFdnZ2CIKAMAxJ0xTHcfA8D8dxkFJi2zZBELC9vU0YhqRpSpIkxHFMkiRorTEMA9u28X2fQqFAtVqlWq1SLBYplUoIIRBCkGUZaZoShiFhGDIYDGi320RRRL/fZ29vD601lmXheR6e55Erl8sUi0VM0yQIAobDIZZl4bouvu+zt7dHt9tlZ2eHIAiwLAvP8ygUCszNzTE7O8vMzAy2bXPmzBmDXzO01vw+efLkid7Z2eHKlStcvHiR27dv0263SdMUwzAol8tUKhXGxsaoVCq0223iOCZJEpRSuK6LZVlIKVFKkWUZQRCwu7vL3t4euTiOSdMUpRSWZeG6LhMTE0xNTVGr1ajX61SrVQqFAoVCASEEUkqSJCGKInq9HkEQEIYhd+/eJQgC2u023W6XKIowTRPXdfE8DyEEo6Oj+L6PlJI0TVFKYZomrutiWRZpmhJFEb1ej+3tbbTWGIaB67o888wzPPfcc8zNzVEqlTh37pzBrxlaa35fPHjwQA+HQ5aWlvjJT37ChQsXUEqRpilJkiClpF6v02g0sCyLMAzZ2dkhyzKUUgghcBwHIQRKKYbDIUEQkCQJcRwTBAFZlqG1xjRNpJTU63Xq9TqNRoNGo8H+/fspl8v4vo/neeSklJimidaawWBAv98nCAKiKGJ9fZ1ut8va2hrr6+vs7OyQJAlCCGzbxvM8PM/D8zxs2yYnhMA0TVzXxTAMcmmaEoYh29vbhGFImqbkGo0Ghw8fZn5+nkajweuvv27wa4bWmt8H29vbutPpsLy8zPXr13nnnXf48MMPEULgui6GYTAyMsLExATT09MMh0Pa7TZhGKKUQgiBYRi4rkuWZWRZRhRFtFotpJRkWUYYhmitMQyDWq3GwYMHefbZZ6lWqxw8eJD9+/czMjKCaZq8/PLLBv+Bn/3sZzpNU8IwZGtri9XVVe7fv8/m5ibdbpcoilBKUSqVcF0X0zTxPA8pJbZtY1kWtm1jmiZSSnJRFLG9vc3Ozg5BEJBlGfV6nZmZGY4dO8bzzz/P2NgYx44dMwytNb8Ptre39Z07d/j5z3/OtWvXWF1d5cmTJwyHQ0zTpFgsUqvVqNfrlEoloiii2+2SZRnD4RDTNFFKIaUkjmMGgwFRFPHo0SNM00QpRU4IwdjYGHNzczzzzDPMzs5SLBapVCr4vs/zzz9v8F/w3nvv6X6/z+bmJisrK6ytrbGxsUG73SYMQ0ZHR5FSIqXE930cx8HzPGzbxrIshBDYto1lWURRRK/Xo9Pp0O12ybKMQqHAxMQE8/PznDhxgvHxcY4fP24YWmt+H9y/f19fvnyZf/7nf+bWrVv0+32UUsRxjOd5HDhwgKeffhrP8xgMBvT7fbIsI5emKbkkSRBCEMcxe3t7RFFEFEUopcj5vs/k5CRzc3PMzMywf/9+arUaIyMjnD592uB39N577+l+v8/m5iYrKyt8/PHHrK+v0+12kVJiGAZSSnzfx/M8isUilmUhpSRn2zaO4xDHMdvb23Q6HbrdLkmS4DgOTz31FHNzc5w6dYqDBw9y5swZw9Ba80VrtVq62Wxy4cIFLly4wOrqKmmaIoTA930cx2FqaoqZmRmyLGNtbY1ut4uUEsdxiOOYJEmI4xghBHt7e4RhSBRFjI2NEYYhSZIwPT3N8ePHOXnyJLVaDcdxOHv2rMGn4OrVq/rJkydsbGxw9+5dVlZWaLVaxHFMzjRNCoUChUKBYrGI4zgIIciyDNu2cRyHOI7p9Xp0Oh263S6DwQApJaVSieeee45XXnmF6elppJQYWmu+SL1eT29vb/Puu+/y3e9+l3v37mFZFnEcs729TaFQYHp6mkOHDlGpVEjTlE6nQxAExHFMpVJBSsnW1harq6t0Oh2EECilUEqRc12Xw4cPc+bMGV544QUmJydJkoRTp04ZfIquXr2q9/b2WF1d5ebNmywuLtJut5FSkrMsC9d1qVareJ6HEIIkSbBtG9M02d3dJZckCZ1Oh06ng+/7KKWo1Wq8+uqrnDhxgnq9jqG15ovUarX0ysoKv/jFL/jpT3/K5uYmSimUUkRRxNGjR5mYmGBychLTNOn3+7TbbYIgQCmFlJIwDOn1egRBQBRFJEnCJ8rlMocPH2ZhYYH5+XlqtRqe57GwsGDwGfjZz36mHz58yJ07d7h9+zYPHjxAa02SJEgp8TyParWK4zjYtk3OsiyklIRhSC5NU548eUK73cZ1XZRSVKtVXn31VV5++WX279+PobXmi7K9va1brRaXL1/mZz/7GXfv3mVnZ4fBYIAQgkKhwPnz56lUKnieRxAEbGxs0Gw20VpjmiZxHNNqtQjDEM/zGA6HhGGIYRhIKTlx4gQLCwucPn2aiYkJ4jjm2LFjBp+RS5cu6W63y+rqKktLS9y6dYswDNnZ2cE0TUZGRqhUKvi+j+d5SClxHAfbtgnDkFySJLTbbVqtFrZtk2UZlUqFc+fOceLECcbHxzG01nxRtra29OLiIm+//TbvvPMOQRCQpimDwQDf92k0Grz55ps4jkOapjSbTdbW1mi1Wggh8H2fKIpYW1tjMBhQLBaJoogkSZBSMjs7y4kTJzh69Cizs7MUCgUOHTpk8Bn76U9/qh8/fszq6irXrl2j2WzSbrfJeZ5HuVzG8zxKpRJCCDzPw3Vd9vb2EEKQpimtVotWq4UQgizLKJfLvPLKK5w8eZLJyUkMrTVfhFarpQeDARcvXuRHP/oRv/rVr8gppciyjFqtxrFjx5ifnyfLMsIwZGNjg83NTbrdLp7n4TgOQRDw6NEjkiTB8zyiKEIpxfj4OG+++SYvvPAC5XKZUqnEqVOnDD4H7733nt7Z2WF9fZ133nmH5eVlNjY2EELgeR6e5+H7PmNjYxiGwcjICJ7nMRgMEEKQpimtVotms4mUkjiOGR0d5cyZM5w8eZLp6WkMrTVfhJWVFf3kyRN+8IMfcPXqVVZWVsgJIXAchyNHjvDSSy9h2zZBELC1tUW73SYMQ6IoQgiBUoogCNjZ2SFJEnJCCFzX5dSpU5w/f56jR4+SO336tMHn6OrVq3p9fZ3Lly9z+/ZtlpeXcRwH13UxTRPXdalWqwghKBQKeJ5HlmUIIYjjmFarxebmJlJK4jjG931OnjzJqVOnaDQaGFprvgiLi4t6bW2Nv/3bv+Xhw4e0Wi3iOMayLCqVCseOHWNhYYF2u0273abZbBIEAbZtkyQJaZrS6/VQShGGIVmWkRsbG+Oll17ipZde4ujRo1SrVRYWFgw+Zzdu3NAbGxtcu3aNGzdu8PHHH+N5Ho7joJRCSkmlUmFkZIR9+/ZRKBQYDocYhkEcxzSbTR49ekSWZcRxjO/7nDhxgtOnTzMzM4Ohtebz9uDBA91qtbh37x5/9Vd/xWAwoNvtEscxhmFQr9c5efIkx44dY2lpiYcPH9JsNonjmGKxSJZlbG9v0263KZfLRFHEYDBASsnc3Bx/9Ed/xOzsLIVCgZdfftngC/D+++/rjY0Nbty4wfXr17l37x779u3DdV0GgwFSSsrlMqOjoxQKBQqFAkophBDEcUyz2WRzc5M4jonjGM/zOHHiBCdPnuTQoUMYWmu+CD/84Q/1tWvXuHjxIoPBgHa7Tc7zPBYWFnj22WcpFArcvXuXra0thsMhpmkSRREPHz6k1+shpSRJEnJSSg4dOsSpU6c4e/Ys1WqV48ePG3xBPvroI91ut7l27RqXL19meXmZUqmEEIKdnR0cx6HRaOB5HmNjY1iWRRAE+L6P7/usrq7yq1/9iiAIyEkp+fKXv8xrr73GoUOHMLTWfJ5WVlZ0pVLhrbfe4tq1a7z33nvEcUwQBOQmJyeZn59n//795O7fv0+v10MIgWmaRFHEw4cP6fV65JRS5AqFAi+99BJnzpxhdnYW3/d5+eWXDb4gS0tLutVqcfnyZa5evcrS0hLFYpFcEAT4vk+j0cD3fcrlMoZhEIYhhUIBz/NYW1vj1q1bDIdDgiDA8zzOnDnDq6++yqFDhzC01nyePvzwQy2E4Nvf/jbXrl1jZWWFNE3Jsgzbtnn22WeZm5vDcRx2dnZotVqkaYppmkgp6fV6PHr0iK2tLZRSSCnJNRoNvva1r/Hiiy9SLpc5ffq0wRdoaWlJN5tN/uVf/oX33nuPjz/+GM/zEEKQJAmFQoGZmRmKxSKe5yGEYG9vD9/3cV2Xzc1N7t69ixCC7e1tbNvmlVde4fXXX+dLX/oShtaaz9Pi4qIOgoC///u/5+bNm7Tbbfb29hBC4Hkex48fZ3Z2lizL2NjYIEkScrZtE8cxW1tbPHz4kK2tLbTWWJaF53ksLCzwzW9+kyNHjpAkCadOnTL4An344Yd6Y2ODt99+m1u3brG2toaUEsMwEEIwNjbGl770JYrFIlJKckmS4HkeUkoePnzI8vIySimCIMB1XV599VVee+01Go0Ghtaaz9ONGzd0q9XiW9/6Fh999BFhGBKGIblCocDp06eZnZ0ljmNWV1fxPA8pJUopOp0Om5ubtFotgiBAa43nedRqNc6fP89Xv/pV6vU6R44cMfgCNZtNvbm5yccff8zbb7/N6uoqzWYTKSWmaWLbNvV6nUajge/75JRS5BzHIU1THjx4wNraGv1+H6UU1WqV1157jbNnzzI1NYWhtebzdOnSJb26usq3v/1tNjY2iKKIJEnIjY+P8+KLL3LkyBGiKGJlZYVKpYJt2+zt7bG6usrq6iq7u7vs7e2Re+qpp3jxxRd54403mJubw/M8nnvuOYMv0PLysl5eXubWrVtcvHiRdrtNv9/HNE1s26ZQKDAxMcHU1BRSSrIsIyelxLZter0eS0tLbGxsEEURUkqeeeYZ3njjDRYWFqhWqxhaaz4vvV5PX7p0ibt37/Kd73yHdrtNlmVIKfE8j0ajwfz8PAcOHKDb7XLv3j0OHDiAbdtsb29z+/Zt1tbWUEohhCD37LPP8uabb3L27Fk8z+PYsWMGX6D19XXd7Xa5fv067733Hrdv32Z3d5ckSXAcB9u2qVQqjI+PMz4+jlKKJEmQUuI4DlJKNjc3uXPnDmtra+QqlQrHjx/njTfeoNFo4DgOhtaaz8uTJ0/0xYsXuXXrFm+99RY7OzsYhoHrutTrdZ555hmOHj1KqVSi2Wxy584dxsfHsSyLdrvNzZs36XQ65DzPw7IsFhYW+PM//3OOHz/OzMyMwRdsZWVFN5tNLl26xLvvvsv6+jpaa7Isw3EcfN+nWq0yPj5OvV4nSRLiOMa2bTzPQwjB6uoqi4uLbG5uYts2U1NTnD17lldffZV6vc7CwoJhaK35vDSbTX39+nX+8i//krW1NXq9HlJKpJRMT09z+vRpJiYm6Pf7tFoter0etm1TrVbpdDpcunSJnZ0dDMPgqaeewjAM/uIv/oKjR48yMzPD/Py8wRfoyZMn+tGjR1y5coULFy6wuLiI1hrDMBBC4Ps+1WqVyclJarUapVKJMAwZGRlh3759aK158OABt2/fZmNjgzRNyR0+fJizZ89y4sQJKpUKx48fNwytNZ+X+/fv68uXL/PXf/3XtNttgiBACIGUkkajwcmTJxkfHycIAprNJr1eDyEEtm2ztbXFnTt36Pf7GIbB5OQktVqNr371qxw6dIjp6Wmee+45gy/IgwcPdKvV4s6dO1y7do3bt2/TbreJ4xjLsrBtm2q1SrVapVarUS6X8X2fQqGA4zgopWi1Wnz88cesrq7y5MkToiiiXC7zwgsvcO7cOebm5vA8j4WFBcPQWvN5+Oijj3Saply8eJG/+Zu/YTAYEEURQggcx+Hpp5/mhRdeoF6vE4Yh7XabXq9Hmqb0ej263S7dbpe9vT2EEMzMzLCwsMDJkyeZmpri7NmzBl+Q5eVlvbW1xc2bN7l27Rp37tyh1+shhKDX6+F5HsVikfHxcarVKpVKhUKhgGVZPPXUU/i+z9bWFr/61a9YWloiCALCMCSKImZmZjhx4gTnzp2j0WgwPz9v8GuG1prPw4cffqj7/T4//vGP+da3voVhGKRpihCC0dFRGo0GR44coVKpEMcxnU6Hra0toihibW2NnZ0dcoPBgNzs7Cxf//rXmZ2dpVarsbCwYPAF+OCDD3S/32d5eZlf/epXLC4u0mq1yNm2zWAwwPd9yuUytVqNarVKtVqlUChgWRa2beP7Ps1mk8uXL7O8vExOKUUURSwsLPDKK69w+vRparUaR48eNfg1Q2vN5+GDDz7QDx8+5Cc/+Qnf//73cRyH4XCIZVlUq1UajQYHDx6kVCqRpim9Xo9Op8PW1hb37t2j1+th2zZZlpE7duwY3/zmNzly5Ahnz541+Bx98MEHut/vE4YhW1tbPH78mOXlZVZWVmi1WsRxjFIKIQSVSgXbtvF9n1KpRLVa5amnnqJSqeB5HlEUIaVkfX2dq1evsrq6Sk5rTZZlvPHGG5w8eZIXX3wR3/d5/vnnDX7N0Frzefg//+f/6Pv373PhwgUuXLiA53nEcczo6Cj1ep1Go0G1WqVQKKCUYnd3l3a7zebmJhsbG/R6PaSUZFmGbducPHmSb3zjGzQaDU6fPm3wObh//77u9/t0Oh1arRa9Xo/FxUW63S6tVot+v0+WZeSUUiilmJ2dRUqJ53kUCgWKxSKVSoVKpcLIyAiDwYCdnR2Wl5e5c+cOa2trZFmG4zgUi0X+9E//lLm5ORqNBgsLCwb/ytBa81l7/PixvnnzJktLS1y+fJkrV67g+z5BEFCtVjl48CCNRoNCoYDneeSiKKLVarG8vEyv16Pf75NTSlEqlTh9+jSvvfYaBw8e5MyZMwafkcXFRZ1lGVEU0ev1aLfbPHr0iFarRRAELC4uopQijmOyLENrjWma2LaN53kcPnwY27YpFAqMjo7i+z6FQgHbtjFNE601H374IXfu3KHT6dDpdFBKMTk5yUsvvcSXv/xlnn76afbt28fzzz9v8K8MrTWftWazqa9du8adO3d47733uH79Op7n0e/3OXDgAAcPHqTRaOB5Hp7nIYQgDENarRa3bt1CKUUYhqRpSm5iYoLTp09z8uRJxsfHOXv2rMGn4P3339dCCH5TEAQEQbAxxb8AAB3dSURBVECn02Fzc5ONjQ2azSbdbpc4jmk2m3ieh23bZFlGFEVIKalWq9RqNUqlEr7vUywWqVQqeJ6HbdvklFJEUcSVK1e4ffs2uTiOEULw0ksv8Y1vfINDhw5Rq9U4dOiQwW8wtNZ81ra3t/XS0hLf+c53uHXrFo8ePWJra4vc5OQkMzMzTE1NkSsUCvi+TxzHbG5u8stf/pLBYECn0yHneR7z8/OcPHmS+fl5xsfHOXbsmMHvYH19Xdu2TRiG9Ho9giBAKUW/3+fJkyf0+30++ugjwjAkDEN2dnYIw5AkSdBaYxgG7XabnJQS27axLItarUa9XqdWqzExMYHruuSUUlQqFcrlMlEUsbm5yTvvvMNgMODx48dsbW0hhKBarfLmm29y5swZJiYmOH78uMFvMbTWfNaazaa+ffs23/3ud7l79y7tdpsgCBBCcOjQIaanpxkfHyfLMorFIp7nEYYh6+vrXLt2jTRNCYKAnO/7zM3N8dJLL3HkyBFqtRpnz541+E+4f/++3t3dZW9vjziOUUrRbrcJgoB+v0+v1yNNU4IgIAgCgiAgDEPiOCaKIoIgYDAYoLXGMAyklPR6PaSUVCoVyuUynudRrVapVquUy2WEEHieh2VZDIdDHMch9/DhQ1ZWVmi1WnQ6Hba3t8n5vs+ZM2c4c+YMzz77LJ7ncfz4cYPfYmit+aytrKzoGzdu8NZbb7G8vEy/32cwGOB5HvPz84yPj1MqlRgOhxQKBXzfJwgCVlZWuHr1KlmWEccxtm0zOjrK3Nwcs7OzNBoNZmZmePnllw3+DU+ePNE7OztEUcTe3h67u7sEQUCv16PX67G7u8vy8jJBENDr9djd3SVJEtI0ZTAYMBwOcRyHLMuI4xilFEopbNvGNE2klGRZxtjYGPV6nf3791MoFCgUCjiOg+u6RFGE53lYlsVwOEQpRafTYXl5maWlJaSUtFotckIIzpw5w/nz53nmmWcoFossLCwY/BsMrTWfteXlZf2LX/yCt956i5WVFaIoIlepVDh69CjVapVisYhSilKphO/77Ozs8NFHH3H9+nXSNGUwGDAyMkK1WmV+fp65uTmmp6fJ/dmf/ZnBb7hx44aO45gkSeh2u2xvb7Ozs0Ov1yOOY3q9Hu12m52dHXq9HlEUkSQJcRzz71FKYds2juPg+z6+72PbNpVKBd/3KZVKjI2NYVkWUkpySils28YwDIQQxHFMGIZsbGywvLzMxsYGuSRJyM3MzHD+/HlOnz5NpVJhYWHB4N9haK35LD1+/Fj3+33+6Z/+ie9973usrq4yGAyQUjI5OcnU1BSlUolCoYAQgnq9TqFQYHNzk5s3b7K0tEQcxwwGA1zX5cCBAywsLDA7O8vU1BS5QqHA2NgYhmHQ7/fZ3Nyk3W7T7/d58OAB/X6f7e1twjAkF0URYRgShiE5pRQ5pRRCCGzbxvd9HMchjmNM08S2bXzfx/d9SqUSvu/jui6+72OaJlJKbNvGsiyEEOSyLGNsbIwgCAjDkO3tbbrdLhsbGzSbTYIgICeEoNFocOLECU6cOEGj0cB1Xebn5w3+HYbWms/SkydPdKvV4gc/+AE/+tGPaDabJEmCbdvMzMxw4MABisUinufhui4HDhzA8zzu3bvHlStX6HQ6RFFEkiSMjIywf/9+5ubmaDQa1Go1RkZGsCwLKSVhGNJsNlldXaXZbNLv92m32yRJQpqmKKX4RJZlKKUQQiCEwHEcpJTYto3v++zbtw/f95FSIqXENE1838f3fQqFAp7n4bouURSRZRlZlmHbNpZlYds2OaUUQgharRbtdptOp0Or1aLVapFlGTnbtpmenubEiRMsLCwwPT1NsVhkfn7e4D9gaK35LN2/f19vbGzwwx/+kAsXLtDpdFBKMTIywuzsLFNTU/i+j+d5uK7LgQMHyP3yl7/kwoULpGlKlmUopSgUClSrVSYnJxkdHcV1XTY3N1FKEccx3W6XJ0+esLu7yycMw0BKiRCCnBACy7LwPI+RkREGgwG+7+P7Pq7r4jgOjuPg+z6e51EoFMgJIZBSYlkWtm2TE0IQhiFJkpCzbRvLspBSMhgMSNOUjY0NWq0WnU6HIAgIgoAkSRBC4Ps+jUaD2dlZjh8/zszMDJ7ncezYMYP/B0NrzWdpcXFRr6+v84//+I9cunSJXq9Hzvd9jh07xszMDL7v4zgOtm1Tr9dJkoTLly/z4x//GCEESils26ZUKlEsFikWi2RZRpZlDIdDBoMB/X6fMAwJwxDDMPB9H9/3abfbjIyM4Ps+hmEghMB1XSqVCsVikcFgQKFQoFwu4zgOOcuyGBkZwfd9PM9DKUWWZSil0FqjlCLLMpRS5IbDIUopLMvCtm2yLCMIAoIg4Pr163S7XaIoQghBlmUopSgUCkxMTHD69GkajQZHjhyhVCrx3HPPGfwnGFprPit7e3t6bW2NixcvcuHCBdbW1mi1WuRqtRoLCwvMzMzg+z6e5yGEQClFq9Xi+vXr3LhxA601+/bto1arUSwWyUVRRBiGxHFMLkkSwjAkTVMMw0BKieM4uK7LYDCgXC5Tr9ep1Wr4vo/v+ziOg+M4FAoFckop0jRFKYUQAt/38TyPLMuIooggCNBaY1kWjuMgpSQXBAHFYpFisUiWZbTbbZaWllhdXaXT6RCGIWmakiQJOSEE5XKZkydPMjs7y8mTJ7EsC9u2OXbsmMF/kqG15rPS6/X0jRs3uHjxIj//+c95+PAhSZKQm5mZ4dixY5RKJWzbplAo4DgOcRyztLTE4uIiq6uruK5LpVKhWq0ipSSKIra2tuj3+yRJQk4pxSds26ZarVKpVCgUCtTrdXzfp1Ao4Ps+OSEEQggMw0BrjWEYaK3JsgwhBEII9u3bh+u6bG9vMxwOUUohhMA0TaSU5LIsI5emKWEY0mq12NjYoNlsEgQBcRxjmiZpmqKUQkrJgQMHmJ+fZ3Z2lvHxccbHxzlz5ozBf5GhteazsL6+rvm1H/3oR1y5coV3332Xvb09hBDYts3c3BwvvvgiUkqUUpTLZUZHR2m1Wrz77rusrKyQJAnj4+OUy2V832dvb49Hjx7RbDZJ05ScYRjkhBB4nsf4+DhTU1PU63XK5TKO4+A4Dq7rIoQgSRLiOCbLMnJRFCGlJJdlGTkpJZ7n4XkecRyjlEIpRU4IQZIkhGFIFEXs7OwwGAzodru0Wi263S5JkqCUwrZtPuF5HkeOHOGFF15gbm6OWq2G67qcPn3a4HdgaK35LCwtLeler8f3vvc9bty4we3bt9FaY5omtVqN+fl5ZmdnkVISRRGlUolyuczKygoXLlyg3W5TrVY5ePAgjuOglKLdbrO6ukqv1yPnui45z/MoFovs37+fyclJ6vU6lUoF3/dptVq4rotlWSiliOOYOI7JsoxPCCHIJUlCTimF67pYlsVwOGQwGBBFEXEcMxgMCMOQfr9PFEW0Wi1ySZIQxzFJkqC1xjAMhBCMjY0xOjrK5OQks7OzPPvssxw8eBDHcVhYWDD4HRlaaz4Lt27d0g8ePOB73/sed+/e5cGDB+RGRkZoNBocPnyYqakpbNsmiiJ838fzPO7evculS5dI05QvfelLlMtlkiSh3++zublJu90mVy6XqVareJ5HoVCgVqtRr9cplUq4rotpmiiliOMY27bJZVlGFEVEUUSSJOSEEHwijmOSJCFNU0zTREpJp9MhCAK2t7fZ3d0lSRKyLENrTZIkBEGAEAKlFEopckIIXNfFcRxOnjzJ+Pg4jUaDiYkJCoUClmVx6tQpg/8GQ2vNp+3x48f6448/5v333+ftt9/m0aNHbG1tkavVahw9epQDBw5QLBaRUpIkCUIIoihiZWWFpaUlfN9nZmaG3M7ODq1Wi06nQ5ZllMtlpqamqNVqlEolCoUC5XKZ0dFRpJTEcUwYhgwGA4rFIkIIsiwjDEN2dnYIgoA4jlFKEUURhmEghCCOY+I4ZjAYIKVECEGz2SQMQ8IwJMsypJRIKTFNk9zu7i45wzCwbZtiscj09DTT09PU63UmJiao1WrU63U8z+O5554z+BQYWms+Tevr6zqOY65fv86FCxe4du0aQRCQZRme5/H000/z7LPPUiqVEEIgpUQIQZIkPHr0iAcPHhDHMdVqlfHxcYIgoNvt0mq1iOOYffv2MTk5ycTEBMViESEElmVh2zZCCJRShGFIEATEcYzneSilyLKMfr9Pp9Oh1+sRxzFKKYIgQEqJaZoMh0OyLCNJEoQQSCnZ3t7mN0kpsW0b0zTJpWnK6OgoTz31FAcOHGB8fJxGo8HExAS1Wg0hBFJKFhYWDD5FhtaaT9MHH3ygd3d3uXjxIj/84Q9ZX19Ha41pmhSLRQ4fPszRo0fxPI8kSfB9H9d16fV63Lt3j3a7je/7TExMUCwW2d7eptPp0O12MU2Ter3O9PQ0tVoN13XZ2tpCa02WZSRJQhzHRFFEHMdkWUYUReSUUgRBQLfbJQxDsixDKUWappimiW3b5JRSKKWQUiKl5MmTJ+SEELiui2VZSCnJsowsyzh9+jT1ep2pqSkOHjyI7/s4jkOapuTOnz9v8BkwtNZ8Wh48eKDb7TbXrl3j4sWL3Lx5E6UUURThOA6zs7PMzMxQLBbJeZ5HoVCg1+vRarVoNpvs7u7i+z5TU1PUajU2NzdJ0xQhBKVSifHxcYrFIkopBoMBURQRxzFxHBMEAUEQ0Gq1aLfb9Ho9fN8np7VGKYVSiizLSNMUpRRJkpATQiCEQEqJEALLssh5nodt2/i+T6lUolgsUiqVGBkZwXEcDh8+zMjICKVSiUKhgOM4PPfccwafMUNrzadhZWVFP3nyhHv37nH16lUWFxfZ2NggyzKklExOTvL8889Tr9eRUqKUwnEcRkZGaLVarK2tEQQBlmVRLpcZHR1FSokQgizLsG2bSqXC5OQkvu+TJAlRFNFsNul0OjSbTR49ekQQBMRxTJZlZFlGTilFmqYopRBCkJNSYpomSils28b3fXzfp1Ao4Ps+juNg2zaVSgXLsnBdF9/3cRyHQqGAZVnYtk2xWMSyLM6dO2fwOTK01vx3LS8v6yAIuHPnDlevXuX999/n8ePHDAYDlFKUy2WOHTvG7OwslmURhiFKKUZGRvi/7cH/Txv3wcDx93189vl8mLOx6xgSiiyTQB1CzZfQopRGaTZp+aH/36T9vh86bZo2Td2mdu2aNAkjI4Q4joARz5gYxzW2j+M4fznfZ/MjPdL06NG0Z4+UdiWvVyAQoFwuU6lUEEJw4cIF3nrrLXzfx7IsUqkUqqoyOjpKIpEglUohhMC2bSzLolAoUKvVKJVKHB0d0el0EEIwpKoqvV4P3/dRVZUhTdOIx+OYpomu6wQCASKRCLFYjLGxMeLxONFolGAwiKqqpNNphBAoikIoFEJVVYLBIEIIhBDk83mFb4EipeT/48WLF7LZbLK3t8ef//xnHj9+TKlU4uzsjCEhBLlcjsXFRSYmJrBtm1arxWAwwDAMPM+jXq/TarWIRCKMj48Tj8fp9XqcnJyQTCYxDINkMsnY2Bi6rnNycsLBwQGvXr1ic3MTy7Jot9vYto3neQwJIfB9n1AoRDAYxDAMEokEyWSSiYkJkskk0WgURVEIh8NEo1FGRkaIRCIEAgGGfN/HNE2EEAwtLi4qfEcoUkr+HTs7O9L3fRqNBnt7e2xsbLC9vU2tVsN1XXzfZ+jq1atcuXKFy5cvEwgEePXqFa1WiyFN02i32wwJITAMA8Mw0HUdIQSe52EYBtFolLGxMQzDoNvtUiqV2NnZoVKpUCqVcF2XbrfLUCAQwDAMVFVFVVWmpqaIRqOMjY0xMTFBKpUimUwSjUYJBoN4nkcoFELXdVRVJZ/PK/wHUKSU/F9tbm5Ky7JwHIft7W3+8pe/sLW1RbVaZUhVVTRNQ1VV7ty5QzqdxjAMXNel0WjQ7Xbp9Xp4nke73cY0TWKxGLqu4/s+qqqi6zrhcJiRkRFCoRDBYJBut0u9Xmdvb4/d3V2q1Sr9fp9Op4OUEkVRiEQiTE1NMT4+jmmazM7OYhgGpmkSj8cZGRkhHA7j+z6Li4sK/6EUKSX/qocPH8rT01Oq1Sr1eh3LslhfX6fZbFKr1ej3+yiKQiKRYHx8nEQiQS6XQ9d1ut0utm3T7XZRFIV2u029Xsc0TWKxGPF4HMMw8H2fQCBAJBJB0zSSySSu69JsNjk8PKRSqVAul/nmm29wXRdVVfF9H1VVSaVSTE1NMTs7SzqdJh6PMz4+TigUIhAIEAqFWFxcVPgeUKSU/DNffPGF9H2fwWCAZVnUajUqlQrVapV2u02xWGTI8zw8z0MIweTkJO+88w6ZTAbHcRBCYFkWrusSDAYJhUJUq1XK5TLz8/Pouo5pmhiGQTAYRFVVNE1DVVVSqRSNRoP9/X0KhQLlcpnj42N832dICIFhGLz99tvMzc1x5coVpqamiEajhEIhVldXFb6HFCkl/5vPP/9c/h3Hx8cMBgOq1SrFYpHDw0Mcx6HZbNJsNhlSFIVIJMKFCxdIpVKkUimi0SjhcJhWq0W/38fzPIQQCCHo9Xo4joPjOGSzWTRNwzRNdF1H13WG4vE4o6OjSCl59uwZT5484eDggHq9juM4CCEIhUJEo1GuXLnC0tISMzMzmKZJIBDg1q1bCt9jipSSf/SrX/1KDgYDXNel0+lQLBbxPI9ms0mpVKLdbuN5Hq7r0ul0EEJgGAaJRIJUKsWFCxdIpVJEo1F0Xafb7dLtdrFtm0ajQavVot/vo2kamqaRSCQQQqDrOoZhEIvF0HUd0zTRdZ1yuczu7i6FQoHDw0Ns22ZI13VSqRSXL18mk8kwOzvLpUuX0HWd5eVlhe85RUrJ0M9+9jPZ7/fpdDq0222Oj485OTlha2uLIdd1abVa9Pt9VFUlGAzS7/e5du0a4XAYwzAYHR3FMAwikQiapiGEYGxsDNu2KZfL7O3tcXR0xFA6nSaVSqFpGkOapmGaJpOTk5imSTAYpNvt8tVXX1Eqldjb28OyLIQQCCHIZrPMzs6Sz+dJpVJMTEwwOjrK1atXFc4BRUrJb3/7W9lqtWg2mzSbTRqNBrVaDcuyqNfrDHmex2AwYEjXdWKxGOFwmMnJSQzDwDRNotEomqbheR79fp9er8dQo9Fgf3+fSqWC4zhomkY6nSaZTDIUDoeJxWKk02my2Syjo6OcnJxwcHDAp59+SrVapV6vM6SqKmNjY6ysrLC0tEQmkyEajXLjxg2Fc0T58ssvZbvd5vDwkHq9TrPZxLZtHMeh2+3ieR5DqqqiKAqqqhIKhRgdHSUej2NZFqZpkk6nicVihEIhOp0OjuPgOA5PnjyhXq9TrVbxfR/DMEgmk+i6ztBgMCCVSjE1NcXk5CSZTAZVVdnb22NjY4P19XXq9Tq+7zNkmia5XI7V1VUWFhaIRCKsrq4qnDPKJ598ItvtNrVajVarheM4+L6PlBLP8/B9HyEEwWCQcDiM7/t4nkc8HieZTNLtdtE0DcMwGOp2u9Trdb755htOTk7Y39/Hsixc18U0TcbHx4nH4ziOg2VZhEIhpqenuXr1KhcvXmRychLXdbl//z5/+MMfODw8xLIshBAkk0my2Szz8/Pkcjmy2SzLy8sK55Dyk5/8RJ6ennJ8fIxt2/T7fTzPo9/v43ke3W4XIQSGYTAyMkK/38e2bQzDIJ1Oo+s63W6XTqdDo9Gg3W5TrVZpt9s4joPv+/i+j6qqJJNJRkdHUVWVWq2GbdtkMhnm5+fJ5XIkEglisRjtdpu7d+/yu9/9jl6vh23bqKpKLpcjn88zNzdHOp0mFouxsrKicA4pP/7xj6XruliWheM4uK6L4zjYto3ruriuSyAQwDRNYrEYruvSbrfRdZ10Ok2r1cK2bU5PT2m1WjiOg+u6qKqK7/t0Oh0MwyASiTAyMoKUEsdxaLVa+L7P4uIi7777LnNzc0QiEQKBAM1mk7t37/L5558TCASwbZtQKMT169dZXV0ll8uh6zq3bt1SOKeUn/70p3IwGNDpdGg2mzQaDSqVCvV6HcuycF2XIc/zGPI8DyEEQ0IIVFXF8zxs22YwGKAoCv8okUiQSqUYHR2l2+3y8uVLHMfB932GFhYWWFtbQwjBD3/4Q4rFIru7u3z99dcUi0U8z2MonU5z584drl+/TiKR4MaNGwrnmCKlZOizzz6TlmXRarV49eoVx8fH2LbN0dERnufR7XbpdDq4rku/38fzPIY8z2NoMBgQDAZRVRVd1zEMg1AoxNjYGNFoFE3TaDablEolGo0Gvu8jhGBpaYmPPvqIoQ8//JD19XUKhQL379/nr3/9K6qqous62WyWH/zgB+TzeUZGRnj//fcVzjFFSsl/29zclK7r0mq1cBwH13WpVCr0ej1s2+b09BTHcTg7O8NxHKSUDAUCAYQQGIaBYRiYpkksFiMcDmMYBkO9Xo+XL1+yvb3NwcEBUkoCgQDvvfceP/rRjxhaWlri008/ZWNjg0ePHnFycoKu64yPj5PP51lbWyOTybC6uqpwzilSSv6nzc1N2e126fV6uK5Lr9fDdV0cx8FxHFzXpd/v4/s+uq4jhEAIgaZpqKqKruvouo6qqhiGwdnZGScnJ5TLZf70pz+xu7tLr9cjHA5z/fp1Pv74Y3zfZ25ujl/84hc8ePCAYrHI2dkZoVCI+fl5PvzwQxYXF4nFYiwvLyucc4qUkn/m6dOn8u/o9Xp4nke/38f3fXzfRwiBqqoIIfA8DyEEvu8jhEDTNIaWl5eVu3fvSsuyqFQqrK+vs7W1xcnJCYZhsLS0xMcff8xQLpfjk08+YWNjg+fPn+O6LuFwmPfff59bt24xOzvL2tqawhsoUkr+HXt7e1IIQTabVfgXfPHFF7LRaPDgwQPu379PvV7HMAyWlpa4c+cOvu9z9epVfv7zn/P48WN2dnawbRvTNPnggw+4efMmmUyGGzduKLyBIqXkdXj06JG0LIt79+7x+9//npcvX6JpGmtra3z00UecnZ0xNzfHL3/5SwqFAs+fP8d1XS5dusQHH3zAe++9x8TEBGtrawpvoEgpeR2ePn0qXdfl3r17/PrXv2Z/fx9VVbl9+zY3b97EsixyuRy/+c1vKBQKFItFPM9jZmaG1dVVFhYWSKVS3Lx5U+ENFCklr8ujR49koVDgs88+o1gs4rou+Xye2dlZ8vk8vu9TKBRYX19nZ2cHx3G4fv06ly9fZnZ2lkwmw+3btxXeQJFS8rpsbm7KUqnEV199xfb2Nq1Wi0uXLjE9Pc3i4iKqqlIqldje3mZvbw/btslkMszMzDA3N8f09DS3b99WeANFSsnrsrW1Jev1Oo8ePeLx48eUy2UMwyCTyfDuu+9iGAaNRoPd3V329vZot9uMjo7yzjvvsLCwQC6X49atWwpvoEgpeV22t7dlr9ejWCyyvr5OsVjEdV0mJyeZm5sjmUzieR4vXrygUChQrVbRNI2ZmRmWlpbI5/OMj49z7do1hXNOkVLyOj179kyWy2U2NjbY3NzkxYsXJJNJcrkcU1NTmKZJrVajUChQqVRwHIdMJsO1a9eYn58nk8mwsrKicM4pUkpep+fPn8tGo0GhUGBra4t79+6haRrZbJZMJsPFixcZDAaUy2UODw/Z398nlUqRyWSYm5vj8uXLjI2NsbKyonCOKVJKXretrS1ZLpfZ2dnhyy+/xHEcNE0jmUySzWaJRqM0Gg2azSZbW1tEo1FSqRTT09PMzMxw8eJFbt++rXCOKVJKvg1//OMfZalUolAoUKlUaLVaqKrKxYsXeeutt+h0Oti2zZMnTzAMg2g0SiaTYXp6mkwmw8TEBIuLiwrnlCKl5Nvw9ddfS8/zePnyJYeHhxSLRSqVCrZtMzY2xsTEBOl0mlKphG3b2LaNruvkcjny+Ty5XI7l5WWFc0qRUvJtevDggazX6+zs7LC/v8/R0RGdToehUCjE8fExg8GAYDDI22+/zcLCAvl8nmw2SzabVTinFCkl37aHDx/Ko6MjyuUypVKJg4MDarUajuOgqiqappFIJJidnSWXyzEzM8ONGzcUzjFFSsl3wcOHD2W73abRaHB4eEitVuPk5ATDMNA0jWg0yuTkJOl0mmQyycrKisI5pkgp+a549uyZ9H2f09NTOp0O3W4XVVVRFAUhBLquo6oqy8vLCuecIqXku+bp06dSCMFQv9/H9308z2NlZUXhjf/yN9mhh96f3VsDAAAAAElFTkSuQmCC;" vertex="1" parent="1">
          <mxGeometry x="128" y="504" width="61.23" height="59" as="geometry" />
        </mxCell>
        <mxCell id="i6UgYKZivtmGIP7_H5B_-3" value="" style="shape=image;verticalLabelPosition=bottom;labelBackgroundColor=#ffffff;verticalAlign=top;aspect=fixed;imageAspect=0;image=data:image/png,iVBORw0KGgoAAAANSUhEUgAAAE4AAAB5CAYAAACX1RcIAAAgAElEQVR4AczB+28c12Ho8e+cOfPiaLRc7vLh1WpFiWYYQqKph8UyivxQbNVQigRF/rYgKNo0QH8IUKQtkKaJXNdJ/JJohZZp05JCURQpiqZWS4rL1Xo0Ozuzs+fcDFADRpDm2rHdez8fQ2vN/+/ee+89ffbsWYM/+PWvf635A601n3Xx4kWD/0WG1pr/n6ysrOhut0sURYRhSJqm9Ho9lFLkoihCKYVSCiklQggcx8FxHKSUlEolOp0OuZdfftnga2Jorfl/bXl5WcdxTJqmRFFEHMeEYUi73SaKIrIsQwhBrtls8ikhBFJKHMfBtm1M0+TAgQNkWYbneYyMjOC6LpcuXTL4ihlaa/5fWV5e1q1Wi0ajwd7eHu12mzt37hDHMe12m3a7TRzHZFmGEAIhBHEc8ykhBIZhIKVESokQgtOnT5MrFovUajWGhoZwXRfP8ygWi8zPzxt8BQytNf+b7ty5o+M4ptVqUa/X2d7eZmtri729PdrtNkmS0O12iaKIKIrIsoyclBIhBFmW8SkhBFJKTNMkJ4SgVCqRZRm+71OtVhkeHmZwcJBCocDw8DA53/e5dOmSwZdgaK3537CxsaH5g7W1NVqtFvV6nY2NDT7++GN2dnYIw5Ber4cQAqUUWZaRZRk5KSW2bWOaJkmSkJNSYhgGUkqEECilyMVxTLfbRWtNEAQcPHiQYrHI8PAwlUqFarVKoVBgaGiIQqHA888/b/AXMLTWfN2Wl5d1FEVEUcTCwgLNZpNGo8H29jZ7e3t0Oh0+lSQJQghyUkoMw0BKiW3bCCF48uQJOSklQgiEECilyCmlCIKAdrtNkiRYloVt29i2TRAElMtlJiYmKJVKVCoVxsbGKBaLPP/88wZfkKG15ut069Ytvbm5yebmJru7u1y7do04jmm327TbbZIkQSmFlBLTNCkUCriui+d5eJ6H67rklFIopYjjGCEEjuMghEAIgVKKLMvIsoxer0cYhkRRhGVZJEmCUgopJb7v43kepVKJiYkJxsfHqVQqFAoFLl68aPAFGFprvg4PHz7UvV6PnZ0dPvroI27dusXm5iYffvghSimUUvT7fQzDQEqJbduYpokQgoGBAYIgwPd9pJQopeh2u/R6PSzLQgiBbdsIIchlWUYuyzLCMCSOY9I0xXVd2u02nU4HrTWWZaGUolQqUa1WmZqaolqtMjQ0RBAEuK7LpUuXDD4HQ2vNV21nZ0f3ej3ee+89lpaWWF1dpV6vU6/XSdOUnBACKSWO43DgwAEcx8F1XUzTRClFTgiBEAIpJUIIhBD4vo9SijRNUUqRk1IipURKSbvdxjRNbNsmSRI6nQ7tdpskSciyjCzLcF0XIQRDQ0OUSiWmp6c5evQo1WqVUqnE7Oyswf+FobXmq3b79m19//59rly5ws2bN3nw4AGffPIJ7XYbIQSmaSKlxPd9PM/j4MGDWJaF67pYlkUuyzJyWmtySimEEJimiVIKrTVKKXKmaSKlREpJs9nEtm08z0MpRa/XI4oisixDKcX29jZCCJRS+L6P7/t84xvfYGJigmq1ysTEBLZtc+7cOYM/w9Ba81Xa3NzUm5ubvPvuu7z55pvcu3ePbreLUoper4fnedi2jeM4FAoFfN/H931c10VKiWEYaK1RSpFlGWmaorUmyzKUUti2jVKKzzJNEyEEUkqazSau6+J5HjkhBGmaIoQgt7KyQr/f58mTJ+Rs22ZsbIzx8XEqlQqnT5+mWCxy6dIlgz/D0FrzVWm32/rOnTt89NFHvPHGG1y/fp0wDDFNEyEEOd/3cV0Xz/MoFAo4joPrugghEELQ7Xb5VJZlaK1J05Qsy1BKYds2OSEEQgiEEBiGgRACIQRRFOE4Dq7rIoQgp5RCSolpmnz88cd0Oh329/fpdDoopQiCgEOHDjEyMsLJkyepVqs8/fTTzM3NGfwPDK01X4WdnR3d6/V49dVXWV5eZnFxkUajQc62baSUmKZJEATYto3nebiui2maSCnJKaX4Y0oper0eWZaRZRk5IQRSSqSUCCEwDAMhBLl+v49lWbiui1KKnFIKKSWmaRJFEXEc02w22d/fp9vtYts2Q0NDFAoFnn76aSYmJpiZmWFsbIyZmRmDP8HQWvNltVot/ejRI+7fv88///M/s76+zsbGBkopXNfFsixs28ZxHEqlEkIIclJKPiWEQCmF53kIIRBCkFNK0e12SZKELMuI4xgpJaZpYts2QghyQgiUUkgpMU0TKSVKKZRSKKWwbRspJWma0uv16HQ6tFotwjCk3+/jOA6u61Iulzl27BinT59mYmKCQqHAqVOnDP6IobXmy2o2m3p5eZmrV6/y2muv0Wg0iKIIz/PwPA/btrEsi4MHD3Lw4EG01iilUEohhEAIgWEYCCFwXRchBDmlFGmaEscxYRiSpilJkmCaJrZtY9s2Qgg+pZTCcRyklEgpyWVZRs5xHFzXpdPpIIQgF0URYRgShiFpmpKzbZtKpcLs7CwnTpzg2LFjnDt3zuCPGFprvox2u62fPHnCG2+8weXLl1ldXaXZbJJlGYVCgYGBAQzD4MCBAwwNDSGEQCmFUop+v48QAtM0sW0bKSVKKXJKKdI0JY5joiii1WqRJAmmaWLbNkIIHMdBSklOKUXOtm1M00RKiRCCLMuQUuJ5Hq7rEkURlmXhui7dbpcoimg2m8RxTJqmJElCsVjkxIkTnDlzhunpaYaGhjhz5ozBZxhaa76MO3fu6Hv37vHTn/6Ura0tms0mOaUUruvieR6+7yOEQAhBoVBAKYVSiizLsG0bIQSO4yCEYG9vj263SxiGhGFIFEWkaUpOa41hGAghyNm2jWVZuK6LZVlIKRkdHcWyLLIso9/v0+l0kFLiui6+79NqtZBS4vs+nufhui6tVot6vU6j0UAphed5BEHA+Pg4p0+fZn5+Hs/zOHXqlMF/M7TW/KW63a5eWlpibW2Nn/3sZzQaDdrtNkIILMtiYGAAz/PwPI9P+b6PEAIpJUopcr1ejyzLSNOU7e1tlFJorVFKkWUZSimyLCOnteazDMNACIEQAiEEY2Nj2LaNUopcmqbYtk0QBPi+T6/XwzAMDhw4gGVZ2LZNu92m0Wjw6NEj4jjGcRxc16VarfLMM88wPz9PqVRifn7e4L8ZWmv+EisrK7pcLvPqq6+yurrK5cuXabfbpGmKbdv4vk8QBLiui2VZKKXIHThwANM0sW0bpRRpmvL48WPa7TZRFNFsNhFCIKXEMAyEECilyGmtcRyHP0cIgWVZ5KSU5Hzfp1AoEAQBrusihMA0TaSUCCFot9u0Wi3a7TaNRgMpJVJKyuUy09PTzM/Pc/ToUb7zne8Y/DdDa81f4s6dO1opxU9/+lPW19d5++236ff7mKbJwMAAQ0NDFAoFpJQIIVBKkSsUCuSUUiRJwpMnT9jb26PdbhPHMTmlFJ8SQvApIQSO4yCEQAiBEALTNBFCIIRAKUW73UYIgVIK13UxTZNisUgQBARBgO/7SCmRUiKEQClFGIZEUUQURWxvb6OUIssyfN9nfHyc+fl5Tpw4wVNPPcXc3JzBHxhaa/4St27d0o8ePeLHP/4x9XqdW7duYVkWtm1TKBQol8sEQYAQgn6/j2EY5IaHh4njmDAMabVatFotwjAkTVP6/T5KKT5LCIFpmriui+M4CCEQQiCl5FNpmpJlGf1+H6UUWZbR6/UwDAPXdSkWiziOg+d5lEolHMdhYGAA0zTRWvPkyROSJCFJEh4+fEgURYRhiG3blMtlTp8+zdzcHNPT05w9e9bgDwytNX+JhYUFfffuXX784x8TxzH1eh3P83Ach0KhwPDwMJ7noZSi1+thmiZSSoIgIAxD9vb22NnZIQxDer0eOcMw6PV65IQQWJZFsVikVCpRKBTwfZ/BwUG01uQ6nQ5xHNNut4miiG63S6/XI45jWq0WOcuyGBgYwHEcpJSMjIwQBAGlUgnHcZBSEkURaZrS7/dpNpu0Wi12d3fJOY7D9PQ0586dY25ujlKpxPT0tGForfmims2mvnLlCjdv3uSf/umfcByHdrtNEARIKSkWi5TLZaSUpGlKkiTYto3jOCilCMOQZrPJ3t4eURShlEIIgRACIQSe51Eul6lWq4yNjTE6OkoQBDiOw+joKFmWoZQiDEPCMKTZbNJut4miiN3dXVqtFru7u3S7XbTWWJaFEIJcsVikXC5TrVYpFApIKel2u/T7fZRStFot9vb22N7eptvtkqtWq5w/f57nnnuO8fFxjh8/bhhaa76oBw8e6F//+td88MEH/Mu//AsHDx4kjmMKhQJCCIrFIkNDQ+SSJKHb7eK6Lp7nsb+/T6fTIQxD2u02cRzzWZVKheHhYY4cOcLk5CTVapVisYjjOAghEEKglEIpRRRFxHFMq9Wi3W4TxzH1ep1ms8nHH39MGIZ0u12klCilyLKMgYEBRkZGOHr0KKVSCcdxSJIEpRRKKR4/fszDhw/Z3t4mjmOUUhSLRc6fP88LL7zA1NQUs7OzhqG15ot48OCBPnDgAP/wD//A66+/ztbWFp988glDQ0PYtk0QBDiOg23bCCFI0xQhBEEQ4Hke9+7do9Fo8OTJE3K9Xo+cZVkEQcC5c+cYHx9nenqasbExHMdBa83c3JzB/2BhYUF3Oh16vR4bGxusr6/z0UcfsbW1RbfbxbZtPuU4Dr7vUyqVKJVKDA4OYts2tm2jlKLb7fL48WOWl5cJwxDbtjFNk6effpof/OAHHDp0iJdfftkwtNZ8Ebdv39au6/KP//iPvPPOO+zs7BCGIaVSCcdxOHjwII7jIKVEKUWapvT7fTzPw7Is7t+/T6vVIkkSckopcoODg4yPj3P+/HkqlQpHjx6lUChw6tQpg8/p9ddf181mk62tLW7evMmdO3fY29sjTVOEEORc1yUIAoaGhhgdHWVkZATLspBSopQijmNarRY3b96k1WohhEAIwcTEBH/7t39LrVbjlVdeMQytNV/Ee++9p4UQ/OQnP+G9994jDEPCMGR0dBTHcQiCACklUkqyLCNJEtI0RUqJEILNzU3SNKXf75NTShEEAVNTUxw/fpxnn32WwcFBisUiZ86cMfiCrly5ond3d7lz5w4fffQRq6ur7Ozs0O/3EULgOA6FQoFKpUK1WqVcLuO6LlJKlFJ0Oh329/d5//332d/f51O1Wo3vf//7TE1NcenSJcPQWvNFLC4u6m63y49//GNu3LhBmqaEYcjw8DCO41AsFhFCIIRAKUWWZSRJQk4pxd27dxFCkFNKobXm0KFDnD17ltOnT1Or1fA8j/Pnzxv8hRYXF/X29jbvv/8+169fZ319nSiKME0TIQSFQoFqtcr4+DhjY2N4nodt2yiliKKIZrPJ0tIS9XqdXJqmVCoVvve973HixAlKpRKG1pov4oMPPtDNZpMf/ehHrK+vI4Sg1WpRLBZxHIdisYgQAiklOSEEaZqilKLX63H79m0GBgbIsowsy8hNT08zPz/PyZMnKZVKPP/88wZfwu3bt/Xe3h7Ly8v87ne/49atWzSbTXK9Xo+DBw9SrVYZHx+nWq0SBAG2bZN78uQJ+/v7LC0tsb29TbfbJcsyhoeH+e53v8uZM2col8sYWmu+iPfff19vb2/zwx/+kHq9zsDAAM1mk0KhgOM4DA8Po5RCCIGUEsuy6PV6dLtd4jhmc3MTz/NIkoQ0TXFdl/n5eebn55mammJwcJCzZ88afEnLy8t6ZWWFpaUllpeX2draIkkS4jjG930qlQrj4+NUKhWGhoYYGBjAMAyiKGJ/f5/333+fer1OFEVkWUaxWOTSpUvMz89TLpcxtNZ8EW+++aZeX1/nhz/8IWEYUiwWabVaFAoFPM9jZGSEfr+PUgohBKZpEscxcRzTbrd59OgRruuSpilKKYrFIi+88AJnzpzh8OHDvPzyywZfgRs3buiNjQ1u3rzJBx98wNraGq1Wi16vh+d5lEolqtUqlUqFcrlMsVjEcRzCMKTVarG0tMT29jZxHJOmKYVCgUuXLnHu3DlGRkYwtNZ8XltbW3p5eZm1tTV+9KMfkaYpw8PDtNttisUivu8zNjZGkiRkWUZOCEEYhoRhSKvVIgxDPM+j1+thGAZPPfUUf/3Xf83s7CzlcpnvfOc7Bl+R//iP/9ArKyssLS2xurrK7u4uSikcx6FQKFCtVhkZGWFsbIxiscjAwACdTof9/X2Wl5fZ3t4miiLSNKVQKPDKK6/w3HPPMTw8jKG15vPa2dnRi4uLLCwscPXqVRqNBjnHcXBdF9/38TyPnOu65AzD4PHjxzSbTVqtFkIIhBCkaYoQglqtxoULF5iZmWFkZIQXX3zR4CuyvLysr1+/zltvvcWNGzdoNpv0+30sy6JYLHL06FGGh4fxPI+nn36aiYkJVlZW2NjYYH19nb29PR4+fEiuWq0yPz/PCy+8QKlUwtBa83nt7OzoxcVFFhYWuHr1Ko1Gg5zjOLiui+/7BEFATkpJzjRNHj9+TKvVotVqkaYpQgj6/T6WZVGr1bhw4QKzs7OMjIxw/vx5g6/Azs6Ovn//PteuXePtt99mdXWVdrtNr9fDNE2KxSLHjh2jUqkwODjIN7/5TSYmJrh+/Tp3795ldXWVvb09Hj16RK5Wq3Hu3DleeOEFisUihtaaz2tnZ0cvLi6ysLDA1atXaTQa5BzHwXVdfN8nCAJylmUhhEAIQbvdpt1u8/jxY9rtNpZloZTCtm2q1SoXLlzg9OnTjI6OMj8/b/AVePDggV5ZWeGdd95hYWGBe/fukaYpSimklPi+T61WY3x8nEqlwvT0NNVqlcXFRVZXV1lZWeHhw4eEYUju6aef5tvf/jbnz5+nUChgaK35vHZ2dvTi4iILCwtcvXqVRqNBznEcXNfF932CIEAphW3bGIaBlJIoigjDkDAMqdfrSCkxTRPbtqlUKrzwwgucPn2aQ4cOMTc3Z/AVuHv3rl5aWuLtt99mcXGRRqNBTgiBEALP86hUKnzjG9/gyJEjHDt2jMHBQT788ENWVla4desWe3t7xHGMYRgcP36cCxcuMDc3x4EDBzC01nxeOzs7enFxkYWFBa5evUqj0SDnOA6u6+L7PkEQoJTCtm1yjuMQxzFhGBKGIZubmziOg5QSKSUjIyOcP3+eZ555hmq1yosvvmjwJd29e1fv7++zuLjItWvXuHHjBs1mEyklvV4Py7LwfZ/x8XFmZmaYmJigUqkghODKlSusra2xsrJCu92m3+9jmiZzc3NcvHiRmZkZzp07Zxhaaz6vnZ0dvbi4yMLCAlevXqXRaJBzHAfXdfF9H8/zUEohpUQIgWVZJElCkiR0Oh3W1tbwfR8hBEIICoUCc3NzPPPMM1SrVb73ve8ZfAkrKyt6Z2eH9fV1lpaWWF1d5cGDB0RRRK7f72OaJsPDw0xNTTE/P8/U1BS+79Nut/n5z3/O+vo6m5ubpGlK7sCBAzz33HNcvHiRiYkJzpw5Yxhaaz6vnZ0dvbi4yMLCAlevXqXRaJBzHAfXdfF9H8uy6Pf7WJaFEALXdUnTlCRJ6HQ6rK+vEwQBQgiUUniex8zMDDMzMxw6dIinnnqKixcvGvwFbt26pTc2NlhbW+PWrVvcunWLdrtNr9ej2+2itcYwDEqlEtVqlenpaebn5zly5AhJkrCxscG//du/sbW1xaNHj9BaYxgGo6OjvPDCC1y6dIlyucypU6cMQ2vN57Wzs6MXFxdZWFjg6tWrNBoNco7j4Louvu8jhEAphZQSwzAYGBggTVN6vR6dTod79+5RKBRQSqGUwrIspqenOX78ONVqlbGxMYQQfO973zP4HG7cuKGjKCIMQ7rdLvfv3+fGjRssLy+zvb1Nr9fDcRyUUvT7farVKiMjI9RqNSYmJpidnaVcLrO7u8vy8jKXL1+mXq8ThiFCCAzDoFqt8tJLL/HKK69QLBaZmZkxDK01n9fDhw/1Rx99RL1e57XXXmNpaYmcEIJcpVIhCAI6nQ5xHJNlGa7rYlkWUkpyN27cQEpJTgiBbdtUKhWOHj1KrVZjbGyMYrHI2NgYQRBg2zZCCHzfx7IspJQkSUKapkRRRLvdZnt7m/X1der1Ou+99x5xHNPr9TAMgyiK6PV6mKaJ67pUKhVmZmaYmppiZGSEiYkJDhw4wJUrV/jXf/1XVldX8X2fOI6J4xjLsrh48SKvvPIKU1NTpGnK2bNnDUNrzRfx29/+Vn/88ce8+uqrXL9+HSEEpmnS7/epVqv4vk+32yVJEpRS2LaNEIJclmVsbm7yWUIIisUilUqFkZERarUahUKBcrmM7/vYto0QAsuysG2b7e1t4jgmiiKiKKLT6bC/v8/Ozg77+/u0Wi2iKKLb7SKEIMsycq7rMjIywtTUFLVajYmJCSqVCocOHSIMQ37zm9/w7//+7+zv72OaJmEYorVmZGSEixcv8q1vfYvx8XFOnTpl8AeG1pov4u2339ZbW1tcvnyZa9eukbNtm9zhw4eRUtLr9ciyDKUUUkqyLCNNU5IkIQxDcmmaopQiZ9s2QRAQBAG+7+P7PsViEc/zkFKSE0IghGB7e5s4jomiiE6nQ5ZlJElCkiSkaYpSiiRJUEphWRZSSjzPY3R0lGq1yuTkJKVSiYmJCSqVClJKbty4wW9+8xsWFxdRShHHMXEcY5omMzMzvPLKK5w4cYJiscipU6cM/sDQWvNFLC4u6o2NDX7xi19w7do1lFLYto0QgsOHD6O1JssylFLkpJR0u13iOCaOY9I0JZdlGbl+v49hGAghkFKSs20by7JwXRfTNPmsKIro9XpkWUaapvT7fXJKKZRSfEoIged5BEFAoVCgUqlQq9UYGxujVCoxOTlJsVhke3ub119/naWlJXZ2dojjmDiOyZXLZS5cuMCFCxeoVCqcPXvW4L8ZWmu+iIWFBb25uckvf/lLrl27hlIKKSW5SqVClmUopRBCkJNS0u12iaKIOI7JKaXIKaWQUpLLsgylFFJKclJKpJSYpkmu3++jlKLT6SCEQAhBTilFv99HKcVneZ5HpVKhUCjg+z7Dw8OMjIxQq9UYGxujWq0SRRELCwtcvnyZra0tTNMkDEO01pimyalTp7hw4QLPPvssxWKR48ePG/w3Q2vNF/Hb3/5Wf/zxx7z22mtcu3YNpRS5LMsYHR0lyzJyQgiklBiGQa/Xo9vtkiQJuSzLUEohhMB1XYQQZFlGlmUopej3++QMw8B1XYQQdLtder0eSimEEDiOgxACpRQ5KSVSSizLwrZtisUihw4dIggCbNvG8zyGh4eZnp6mWCximiY3b97ktdde4/r160RRhGmaKKUQQlCpVLhw4QLz8/PUajVOnTpl8BmG1pov4tVXX9X1ep3XX3+d69evk0vTlF6vR6FQQCmFUgohBKZpYts2uSzLSJIEIQTdbpder4cQAsdxkFKilCJNU3K9Xo8sy5BSYpomUkp6vR5ZluE4DrZtI4RACIFSCs/zKBQKBEHAyMgISikGBgYol8vYto2UEt/3KZfLFAoFcltbW7zxxhvcunWLOI7JsowkSXAch2KxyLlz53jppZeYmJhASsnMzIzBZxhaaz6vzc1Nvby8TKPR4I033mBpaQmlFGmaEscxQRCQU0qhlMK2bRzHQUpJlmX0ej2EEHQ6HXq9HjnLsrBtG6UUSZIwODhIkiSkaYqUEs/zkFKSJAlpmlIoFJBSopRCKYUQgmKxyKFDhxgeHqZcLpMkCTnf95FSIoRgcHCQ0dFRtre3CcOQ69ev8+abb9Lv9ykUCuRarRae5zE5OcnFixd56aWXKBaLHDt2zOCPGFprPq/t7W19+/Zt3nnnHd555x22t7dRSqGUIielJE1TlFIopZBS4roupmmS6/f7KKUwTRMpJVJKhBDk0jRFKcXo6ChCCAzDQAiBEAIhBEopckEQYNs2pmkyMDBAoVDA8zxs28ayLLa2trBtm3K5TLVapVKpoJRif3+fRqPB+++/z+9//3sePXqEEII0Ten3++QKhQInT55kcnKSU6dOceTIEc6cOWPwJxhaaz6Pzc1NHYYhi4uLXL9+nQ8++IDd3V2UUvR6PbIsQwiBaZrkhBDYto3nedi2TU4phRAC0zQRQmDbNlJKTNMkJ4RgdHQUwzAQQiClJCelJCeEoNvtIqXEsixc18WyLAYGBrAsCyklUkrSNCVn2zaO4xCGIY1Gg93dXVZWVmi1WsRxjOd5JEmCUgrLsvjGN77BhQsXqFQqHDlyhFKpxOzsrMGfYGit+Txu3LihNzc3ef3111ldXeXevXt0Oh2EECRJglKKnO/7CCGQUuJ5Hr7v47ouSimyLMO2bXJCCCzLwvM8Dhw4gOM42LaNUgohBIZhIIRACIEQAiEEOd/3yQkhkFIihMA0TYQQCCHwPI8wDGm1WoRhSJIkNJtN6vU6+/v7dLtdkiRBCEFOCIFhGBw/fpz5+XnOnTtHEAT4vs/s7KzB/8DQWvN/s7Ozo5eWllhaWuLNN9+kXq+zv79PzjRNtNYYhoHruniehxACKSW+7+P7PlJK0jSl1+thWRafsm0bz/MoFosUCgU8z6PdbpNTSqGUIqe15lO+7/NZSik+K01T4jim3W4TRRFxHNNut2k2m8RxTLFYpN1uI4Qg5/s+ExMTPP/883z729+mUChg2zbT09MGf4ahtebP6XQ6emVlhbfeeotr165x69Yt2u02vV4PKSWO4+A4DoVCgVKpRJZlKKXI2baN4zjker0eaZqilEJrTZZlSCnxfZ/BwUEKhQK+75MkCUopsiyj1+uRpin9fh+lFEopms0mOaUUWmuyLEMphVKKXJqm5LTWKKXIsow4jgnDEKUUlmWhtcYwDCqVCt/85jc5efIkzzzzDE8//TTj4+MGn4OhteZ/8uDBA12v11lcXOTdd99lZWWFZrNJlmXkgiBgYGAAz/MYHh5mbGyMMAxJ05Rer4dSCiEEuSDPV1UAABuISURBVCzLSNOUMAxRStHv9zEMA9d18X0f3/cZGBig0+nQ7/fJsow0TUmShDRNUUrR7/d58uQJn9Jao5RCKYVSilyWZQghkFIipSTLMrIsI0kSckIIDMPg2LFjzM3N8cwzz3Ds2DGCIGB2dtbgczK01vwpjx490uvr61y5coV33nmHjY0NoigiyzKklARBwPDwMJZlkSsUCoyMjBCGIXEcE0URaZoihEAIQU4pxe7uLlmWkWUZSimEENi2jWVZSCkJwxClFEop+v0+SimyLEMphVIK13XJCSH4U7rdLjmlFFprlFIIIXAcB9u2GRwcZHx8nOnpaaanpxkbG6NQKDA7O2vwBRhaa/5Yq9XS3W6Xd999l5///OdcuXKFOI4xTZPcgQMHGBsbY2RkhFySJDiOQ6lUotPpEIYhURSRJAlCCEzTREpJbnt7G6UUvV6PLMv4LCEESilyQgiUUuSUUgghyKVpyqeEEEgpyQkhyCmlyLKMXq+HUgohBJZlEQQBhUKBixcvMj4+TrVaxfd9sizj+eefN/iCDK01f+z27dt6aWmJd955h1u3blGv18myDCEEIyMjuK6L53kEQYDneUgpEUKQC8OQNE1JkoQoiuh2uyRJQpZlKKVQSqG1ptvtIqXEcRyEECil6Pf7+L5PlmWkaUqv1yPLMpRSSCnJJUmCUgrP8/B9nyRJCMOQnGma9Pt9ckIIyuUyw8PDlMtlarUaR48eZXZ2FiEElmVx5swZg7+QobXms7a3t/WdO3e4fv067777Lnfv3iUMQ4QQ2LbN2NgYjuPgui6+7yOEIE1T4jim2+3S6/VI05Qsy4jjmCzL6Pf7ZFlGrlAokKYpcRyTZRlCCLIsQ2tNlmXUajVyhmGgtUYpRZqmKKXo9/ukaUqWZeRc16XT6dDr9chJKTEMA9u2GRkZYWZmhlqtxtDQEMPDw1SrVXLnzp0z+JIMrTWfarfb+oMPPmBlZYVr166xtLREq9VCCEGxWMT3fQqFArZt4zgOQgiSJKHdbtNqtYiiiFyWZQghyLIMIQS5LMvI9ft9PmWaJgMDA5imSa7X6zE4OIht23ieh5SSXBzHRFFEt9tFKUUcx6RpihCCXq+HUgohBJ7nMTIywujoKFNTU5w8eZJKpYLv+9i2zezsrMFXxNBak2u1WloIwc9+9jOWl5dZXFzkwYMHKKUYHBxkdHSUIAiwLItcr9ej2+0SxzGtVos4jkmSBMMwyAkhyEkp+aw4jjFNkyAIKJVKBEGAEII0TYnjGKUUAwMDHDx4ENd1yYVhSLvdJgxDlFKEYUiWZeT6/T453/cpl8vMzMxQrVaZmpri6NGjDAwMcPz4cYOvmKG1Jvfw4UMdxzF///d/z61bt1hZWSGKIizLolarMTY2xsDAAE+ePCGOY8IwpN1uE8cxaZoihEApRZIk5CzLImfbNjmlFEIIyuUyBw4cYHBwkFKphOM4RFHE7u4urVYL13XxPI9CoYBlWeQ++eQTWq0WURSRZRlhGNLtdpFSIoTAtm3K5TK1Wo2TJ09SrVap1WoUCgVmZmYMvgaG1prc7du39e7uLn/3d3/HxsYGH3/8MUopDh8+zPj4OEEQoJSiXq8TRRHNZpMwDOn1euSCIMCyLPb398lJKTFNEyEEuSzLyJVKJQqFAqVSiUqlwuDgIEopwjDkk08+odPpYNs2juOQ6/f7hGHIkydPiKKIOI4Jw5But4uUEtd18X2fsbExxsfHmZqa4siRI1SrVc6cOWPwNTG01uQWFhb0xsYGP/nJT3j48CGPHz/G8zyOHz9OtVolF4Yhd+/eJY5joigijmPSNEUIged52LZNlmUIIbAsCyEEOaUUSZKQZRm9Xg/LsigWixw7doxDhw4xPDyM4zhordna2kIpRa7b7aK15smTJyRJQpZl7O7uEoYh3W4X27axbRvP86hWqxw5coRqtcrU1BTVapWzZ88afE0MrTUrKyt6a2uLlZUVfvrTn/Lo0SOSJGFwcJAzZ85QqVQIw5BHjx6xsrJCv98nTVPSNKXX65GzLAspJSMjIwghkFLyqTRNiaKIfr9PGIYYhoFt25RKJarVKpVKhaGhIWzbptvt0uv16Ha7RFFEkiR0Oh201iil2NraIooiOp0Otm0jpcTzPMbGxqjVaoyNjTEzM8PRo0c5e/aswdfE0FqzubmpP/jgA/7rv/6LN954gzRNsW2byclJTpw4QaFQYHd3l62tLT766CO63S79fp9PGYbBsWPHmJubw/d9lFLkkiSh2+3SaDRoNBo8evQIrTXdbpfcyMgIAwMDFAoFCoUCIyMjHD16FK01aZqyu7tLs9mk3W4jpcSyLBqNBlEUsbe3x5MnT8gNDAwQBAG+73P69Gmq1SqTk5M89dRTzM3NGXwNDK01t2/f1r/73e949dVXuX79Orliscjk5CSTk5NIKdnc3OTevXvcvXuXJEkQQuA4DsVikUqlwvT0NNPT0ziOg1KKXJIkpGlKvV6nXq+zt7fH5uYmURSRJAm+72NZFkEQUCgUGBsbY3x8HM/zGBgYIE1Toiii2WySJAlZltFoNIiiiFarRRiGKKWwbRvf9/F9n/HxcQ4fPsz09DS1Wo0XX3zR4GtgrK2t6Xa7zVtvvcXly5e5e/cuQRBQq9WYnJykVCrRbrdZXV3l7t27hGFIv99HCMHhw4eZnZ1lenqaWq1GuVzGdV2UUgghSNOUNE2p1+vU63X29vZYXl5md3eXZrPJp6SUFItFyuUyw8PDlMtlKpUKhUIBIQStVot2u00URezu7hJFEa1Wi3a7TZIkGIaBbdtIKfF9n1qtxsmTJ5mammJ0dJS5uTmDr5hx7949Xa/Xee2117h8+TLNZpNKpcLx48ep1WrkNjc3+fDDD6nX6+Qsy2J4eJhnnnmG2dlZjh49SrFY5Pz58wZ/wq9//Wu9v7/Po0ePWF1dZXt7m+3tbcIwJIoilFIcOHCAoaEhsizjqaeeYmJigmq1SqFQIMsy4jgmiiJ2dnaIoogoimg2m4RhSBRFZFmG1hrTNHnqqac4efIkzzzzDOPj4zz//PMGXzHj3r17emNjg8uXL/P666+TJAlTU1OcPHmS4eFhdnZ2uHnzJrdu3SKKInLlcpn5+XlmZmaoVCoMDQ3x4osvGvwZb775pm6329y/f5+trS02NzdpNBrs7e0RhiGO41AoFIiiCN/3qVarHDlyhNHRUYIgQEqJUop2u0232yWOY/b29mi1Wuzs7BCGIXEcI6WkWCwyOTnJzMwMU1NTVKtV5ubmDL5Cxtraml5bW+NXv/oVb731Fr7vMzMzw/Hjx3Ech9XVVZaWltjc3KTf72MYBqdOneKll15icnIS3/d58cUXDT6HxcVFvbm5yfb2NltbWzQaDer1Oo1GgzRNcV2XbreLlBLf9xkZGaFSqfDUU08xODiIbdtIKUnTlCzL2N/fp9lssr29zf7+Pu12G6UUnucxPDzM5OQkx48fZ3JyknK5zNmzZw2+Isbvf/97fevWLV599VWuXr3KkSNHmJmZYXp6mm63y/Xr11laWqLZbCKEoFqt8vzzz/Otb32L0dFR5ufnDb6AhYUFXa/XaTQa7OzssLW1xfr6Ou12GyEEYRiilCLn+z6jo6NUq1UOHjyI67pUq1VyQgiiKKLdblOv13n06BGtVov9/X1ylmVRq9WYmppidnaWw4cP8/LLLxt8RYwPP/xQ37hxg//8z/9kYWGB06dPc/z4cY4dO0a73ebKlSt8+OGHdLtdpJR8//vf59SpU0xOTuJ5HqdOnTL4gq5cuaKbzSZ7e3tsbm6ysrLC7u4uWZbRarVIkoQ0TXFdl2KxyNjYGJ7nIaXk5MmTSClxHIckSYiiiEajwaNHj2i322xtbZEkCblSqcTk5CTPPvssR48eZXh4mPPnzxt8BYzf/e53emVlhV/96ldcv36d+fl5pqenkVKytbXF6uoqd+/eJTc9Pc3f/M3fMDU1RaVSYWZmxuAv9P777+tWq8Xjx49ZXV3lzp07PHjwgAcPHhBFEbmBgQGCIMBxHKSUBEFAuVymVCpRLBZRSmFZFkmSEMcxDx8+ZG1tje3tbZRSVKtVSqUSY2NjTE9PMzc3h5SSc+fOGXxJxm9+8xu9vr7OW2+9xQcffMCZM2c4ceIEubW1NVZWVtja2iIIAs6fP8/8/DxHjhzhO9/5jsGXtLCwoDudDvfv32dra4vd3V02NjbY29sjDEOEEFiWhRCCnO/7PP3005TLZYrFIkIIPM9DKUWWZezt7bG2tsbm5ibtdptisYjneQwPDzM1NcXc3BwjIyM8//zzBl+S8Ytf/EJvb2+zuLjIhx9+yNzcHDMzM6RpytLSEisrK4RhyOTkJN/97ncZHx9neHiYubk5g6/AjRs3dLPZZHd3l2azyc2bN9na2qLRaNDpdOj1eiilyAVBwNjYGCMjIxSLRTzPo1gsMjAwQC4MQx4+fMj6+jqbm5sopdBaEwQBU1NTPPvss0xNTVEqlZibmzP4Eoxf/vKXul6vc/36dZaXl5mfn+f48eM0m02uXr3K3bt3kVIyPz/PD37wA0qlEnNzcwZfsWvXrukwDHn//fdZX19na2uL/f19ut0uSZKglKJQKJBlGcVikUKhQBAEjI2NUS6XCYKAJElIkoSNjQ1WV1d59OgRURQxMDDA0aNHmZ2d5a/+6q8YHR3l3LlzBl+C8dZbb+nt7W0WFxdZWlri2WefZWJigo8//piFhQVarRZjY2PMz89z8eJFRkZG+OY3v2nwNbh27Zre3t5mbW2Nu3fv0mg0aLfbtFoter0enufRarUoFAoEQUChUKBSqVCr1SiVSiilcByHer3OjRs3uH//Pjs7O9i2Ta1WY2pqiueee45qtcqLL75o8CUYH374od7e3ubatWtcv36diYkJRkdHWVtbY3l5mWKxyIkTJ5iZmWFmZoaxsTGOHTtm8DVZXl7Wa2trbG5usrm5ye7uLpubm+zt7SGEII5jgiDA932CIKBWq3H06FHGxsYQQmDbNq1Wi7W1NVZWVtjY2CA3OjrK4cOHeemllzh27BiXLl0y+BKM3//+9/rhw4csLS2xtLSElBLf91ldXaVer/N/qoO3pyTzx4Hj7wc5KSGSQo/2LIpCxJAaHp4YU6dsmp3dmp39L/Zv6rLbptmZ3aaLJrfzEsPgAY01NBWRL4GCZIQc5fP9efe7Zquvvl4TExPcvHkTh8NBV1cXk5OTEt/YixcvRDqdJplMkslkiMfjpFIpqtUqR0dHnDt3DoPBgMlkQlEU3G43fX19aLVa2tvbqVarJBIJVlZWiMVi1Go1zGYzVquVO3fu4PF4cDqdjI+PS7RIEkLw6tUrsbq6yrt378hms+j1euLxOKVSibt373L37l26u7sZHR2V+E5+//13sb+/Ty6XY21tjWQySblcJpVKYTKZ0Ol0dHR00NfXh9vtRlEU9Ho9XV1dNJtNdnd3WVpaYnFxkWq1ik6nw2Qy8csvv+D1enG5XExNTUm0SBJCEA6HRTabpVAoMD8/z9HREXq9HrfbzcTEBC6XC51Oh8vlkviO5ufnRSaTYWVlhdXVVba3t2lra6Ner1OpVOjo6ECWZTweDz09PRiNRpxOJ9VqlVKpRCqVIhqNEovFEELQ3t7O7du3uXLlCj6fjxs3bki0SBJCcOLNmzeiWCySyWQ4OjriRHd3Nw6Hg/Pnz3P58mWJ7ywYDIpsNss///zD2toaiUSCQqFAvV7n6OiIjo4O7HY7brcbWZbp7OxElmUajQbVapWPHz/y7t07YrEY5XIZg8HAzMwMo6OjDA8P09PTg9/vl2iBJITg/4tGo6LRaHB8fExbWxvj4+MS/0PPnj0Tm5ubbG5ukkqliMVilEolSqUSBoOB7u5uhoaGUBSF7u5uenp6aDabNJtNPn36RCwWIxqNcnBwgE6nY3R0lLGxMUZGRujt7SUQCEi0QBJCcJqFw2GRSqVIpVJ8/PiR169fk8/n+fz5MzqdDovFgsPhwOFw8MMPP2A2m9FoNGi1WsrlMvF4nKWlJVKpFCdcLhcTExNcvXoVRVGYnZ2VaIEkhOC0e/r0qchmsxwcHPD06VPS6TTZbBa9Xo/BYMBmszE0NITH48FoNKLRaGhvb6fRaLC9vc3i4iIfPnyg0WjQ29uLqqqoqkp/fz83btyQaIEkhOAsePTokSgUCszPz5NIJEin02g0Gk6YzWY8Hg8jIyPo9XpOGAwGTuzu7rK0tMTm5iaVSoXu7m4CgQCqquJ0Opmbm5NogSSE4Cx49uyZKBaLPH/+nI2NDRKJBM1mk3q9jk6n4/Lly1y7dg2tVkuz2cRoNHIinU4TjUbZ3NykUqlgtVpRVZVAIIDT6WRubk6iBZIQgrMgGAyKUqnEs2fPeP/+PYlEglqtRrlcRqPR4PV6mZqaQqfT0Wg00Ov1aDQaMpkMq6urbGxsUKlUsFqtBAIBAoEATqeTGzduSLRAEkJwFoTDYXF0dMTbt295//4929vbFItF9vf3OeFwOBgbG2NwcJB0Oo3dbsdms7G2tkY0GiWZTPL582e8Xi8XL15kcnISVVVRVVWiBZIQgrPi1atXIhKJsLa2xsbGBoVCgXw+j0ajYWBggImJCRRFIZ1OY7fbsdlsxGIxlpeXSaVSFItF3G43/f39TE5OoqoqqqpKtEASQnBWBINBsba2xtLSEisrK+TzeYrFIlqtlqGhIcbHx7Hb7WQyGex2O1arldXVVZaXl0mn05RKJX744QcuXbrEtWvX8Pv9TE1NSbRAEkJwVoTDYbG+vk4kEiESiZDL5Tg6OsJoNOJ2u5mYmMBisZDJZJBlGYvFwtLSEouLi+zt7VEul5FlmStXrjA1NcXw8DBTU1MSLZCEEJwV4XBYbG1tEQqFCIVCHBwcUKvVMJlMXLp0ibGxMUwmE3t7e8iyjMlkIhKJsLi4SKFQoFKpYLPZUFWV69evc+nSJQKBgEQLJCEEZ0UoFBIfPnzg7du3hMNhDg8PaTabmM1m3G43fr8fg8HA/v4+vb29GAwGQqEQi4uLHB4e0mw2kWWZ6elpZmZmUBSFyclJiRZIQgjOilAoJKLRKMFgkOXlZUqlElqtlvPnzzMwMMDw8DAGg4F8Ps+FCxcwGAz8/fffLCwsUCqVaDabOBwObt68yezsLD09Pfj9fokWSEIIzopgMCgikQihUIhoNEq1WkWn02G1WhkcHMTn82EwGMjn8/T29qLT6Xj9+jULCwuUy2WazSaDg4Pcvn2b69evY7VaGR0dlWiBJITgLFhaWhKHh4dEIhHC4TDhcJh6vU57ezsOh4OhoSEcDgeNRgNZltHr9WxtbREOh9nc3KRWq6HVarlz5w4jIyN4vV5mZ2clWiQJITgLotGoKBQK/PXXX6ysrLC0tMTx8TGdnZ04HA4cDgd9fX10d3djsVio1WrE43GCwSDJZJITWq2WX3/9FZ/Ph9frZXp6WqJFkhCCs2BhYUHs7e3x+PFj3r9/z/r6OidsNhuKoqAoCrIsoygKGo2GQqFALBYjHA6Tz+fRaDR0d3dz9+5dPB4PLpeLQCAg0SJJCMFZ8OLFC5FOp3ny5AnxeJzd3V3a2tqQZZnBwUEGBgaQZRm73c7h4SE7OzvE43FWV1epVCqYzWZcLhe3bt3C6XSiKArj4+MSLZKEEJwFT548EVtbW7x8+ZJ4PM7e3h5tbW04HA48Hg9utxtFUTCbzezs7LC2tkY8Hmd9fZ0TNpuNq1evcvPmTRRFYW5uTuJfkIQQnHbRaFQkEgni8TjPnz8nkUjw+fNnTCYTbrcbr9eL0+mkr6+Pjo4OVldXiUQibGxskM1mOdHX18fU1BS3bt3CZrMRCAQk/gVJCMFpFwwGRTweJxaL8fLlS/b396nX6/T39+P1ehkcHESWZc6fP0+pVGJ5eZnFxUU+fvxIsVhEo9EwPDzMrVu3UFUVq9WKz+eT+BckIQSnWTAYFIeHh8RiMVZWVgiFQpRKJdra2vD5fAwPD6MoChaLBZPJxNbWFsvLy0SjUcrlMrVaDbPZzOzsLD///DN9fX1MTk5K/EuSEILTLBQKiWQySTAYJBKJkMvlqNVqDA0N4ff7cTgc9Pf3Y7PZyGaz/PnnnySTSeLxOPV6HYPBgKqqBAIB3G43g4OD+Hw+iX9JEkJwmj158kQkk0mWl5eJRqOk02mazSY+n49AIIDD4UCWZXQ6HZubmzx8+JBMJkMul+NEf38/09PTTExMMDAwgKqqEl+BJITgtJqfnxeZTIadnR1isRgfPnwgk8mg1WpRVZWZmRkURcFoNLK/v08kEuHp06cUi0WOj4/p6urC7/czMzOD1+vFbrdz+fJlia9AEkJwWj1+/Fgkk0ni8Thra2ukUimazSZGo5FAIMD169exWCwUi0U2NjZ4/vw5iUSCer2OTqfD7XYTCASYmJhAURTGx8clvhJJCMFp9OrVK5HL5dja2mJ1dZWNjQ1yuRz9/f3o9XrGxsbw+XxUq1VSqRSxWIxgMEij0UCj0XDhwgXGxsYIBAJ4vV7MZjM+n0/iK5GEEJxGjx49Erlcjq2tLd69e8d//vMf6vU6Y2NjaDQahoaGsFqtJJNJtre3SSaTbGxsYDAYMJlMjI6Ooqoqw8PDKIqC1+uV+IokIQSnzePHj0U+nyeTybCzs8P6+jrlchmTyYTf76fZbGK326lWqywsLLC7u0ulUuHg4ICuri5cLheqqjIyMoKiKPj9fomvTBJCcNo8evRIpFIpkskkOzs7pFIp9Ho9drsdj8dDo9HAbDazt7fHmzdv2Nvbo729nWq1itfrxePxoKoqbrcbv98v8Q1IQghOkz/++EOUy2XS6TSxWIx0Oo3RaMTj8eDxeDg6OiKXy7G1tcXm5ibJZJJms4nFYsHr9eLxeFAUBZfLRU9PD36/X+IbkIQQnCYPHjwQ+XyedDpNJpOhWq3S3t6O3W7HarUSj8fJ5/NkMhmKxSKlUon29nYGBwfxer309/cjyzIXL15EVVWJb0QSQnBaPHz4UBQKBfb29shmsxwfH9PZ2UlHRweNRoNyuUw0GqVQKFAsFjl37hxdXV309vYyNDSE0+mkr6+Pzs5OVFWV+IYkIQSnxf3790U+n6dYLFKpVNDr9VgsFk4UCgUODg44PDxkf3+farWK3W5HURQURcFut3PhwgVkWWZ4eFjiG5OEEJwW9+7dE4eHh2g0GvR6PRqNhhNfvnzh06dPfPnyhY6ODgqFArVaDUVRUBQFm82G2Wzmxx9/lPhOJCEEp839+/eFwWCgVqtRLBb59OkTtVqNZrOJ0Wjky5cvaDQaHA4HsixjNpuZm5uT+I4kIQSn2b1790SpVKLZbKLRaDAYDBwfH2MymVAUBZPJxPT0tMR3JgkhOAvu3bsn+D+//fab9ODBA2E2m/npp58k/kf+C5dGEmt7eRUXAAAAAElFTkSuQmCC;" vertex="1" parent="1">
          <mxGeometry x="201.19" y="503" width="78" height="121" as="geometry" />
        </mxCell>
        <mxCell id="i6UgYKZivtmGIP7_H5B_-4" value="" style="shape=image;verticalLabelPosition=bottom;labelBackgroundColor=#ffffff;verticalAlign=top;aspect=fixed;imageAspect=0;image=data:image/png,iVBORw0KGgoAAAANSUhEUgAAAFMAAAB0CAYAAAD5Gw6OAAAgAElEQVR4AezB/28b92H4/+cd73g6HUlRJ4o0TVGmackKLcuWFUX+IjuyBTfJWgTd0P663wfsh/03+2koMHTtsCZNjQReW9dx49iKYsdRFCuyIommKVE0RZGiKH7R6fjlXu83gXeBYti6trGz7oPP4yEJIfj/wb//+7+LZrNJvV7Hsixs20YIQcff//3fS/wRJCEE/1+zsLAgHMeh1WrRbDZptVpYlsUfsru7i23b1Ot16vU67XabDlVVURQFj8fD3/3d30n8AZIQgv/tnjx5Ig4PD2k0GtRqNarVKpZlYds27XYbx3FQVRVZltE0jQ7HcbBtG8uyaDab5PN5XC4XQggajQbNZhNZlvF4PBiGgaZp/MM//IPEHyAJIfjf6tmzZ6JWq1EsFqnValSrVfb29igWi5TLZWzbxnEcOnK5HJqmYRgGmqbhcrkQQtBoNGg2m9RqNSRJ4ncURcHn8xEMBunt7cXtdtPd3U1PTw+aptHhOA7f//73Jf4fSQjB/zYbGxuiXC6Tz+fZ3Nwkm81y7949Dg4OKJVK1Ot1Wq0WvyPLMqZpoigKmqahaRqyLOM4Do7j0G630TSNjlarhSzLaJqGaZqEQiH8fj/BYBBVVVFVlY52u02Hy+VCURT+9m//VpKEEPxvkcvlxN7eHul0mqdPn7K2tsbTp0/Z2dlhd3cXx3GQZZkOTdPQdR1VVVFVFdM0sW2bWq1GvV7Htm0cx6FDlmX6+vpQFAVVVTEMA5/Ph2ma+P1+DMOgo9VqYds2lmXRbrdxuVx4vV50Xcfn8yEJIfhLt7OzI2q1GplMhuXlZR4/fsza2hqbm5vU63U6AoEAXq+X3t5eAoEAgUCA7u5uFEWhI5/PUyqVyGaz5HI56vU6HV1dXei6zpEjRzAMA7/fTzAYpLe3l56eHlRVRZZlHjx4QKvVol6v02w2kWUZ0zQJhUKYpkl/fz+SEIK/ZBsbG8K2be7du8f6+jpLS0s8e/aMvb09OnRdJxgM4vf78fl8hEIhgsEgPp+PjmazSaPRoFKpUCwW2draIp/P02g0MAwD0zTx+XzEYjEURUHXdTRNo8OyLEqlEpVKhYWFBVRVxe124/F4ME2TSCTC4OAg/f39GIaBJITgL1UqlRLJZJLNzU1++ctfsrGxQaFQoNFo4Ha78fv9DA0Ncfz4cSKRCLqu4/V60TQNSZI4PDykWq1Sr9exLItKpUK5XKZWq9Hh9/vp6+vD7/fj9XqxbZtqtUqtVqNUKpHNZkmlUpTLZRRFwefzEYlEGBwcJBKJEA6H6evro6enh+vXr0uSEIK/NJlMRqiqSjqdZm5ujsXFRRYWFiiXyziOQ1dXF+FwmFAoxMjICCMjI+i6jizLyLJMq9Wi2WxSqVSoVqtYloWu69i2jWVZNJtNNE3D5/Ph9/vxer0kk0mq1SrlcplKpUKlUqFYLFIoFLBtm+7ubsLhMIlEgldeeYVwOIzf78flcvHWW29J/F+SEIK/JJZliVKpxPLyMvfu3WN+fp719XUajQYdhmEwMjLC6OgoIyMj+P1+FEWh1Wqh6zputxvLsiiVSpRKJZrNJh2lUgnDMPD5fMiyjCzLaJqG3+/H7/fzox/9iLW1NUqlEl1dXRweHnJwcIAkSciyzOjoKENDQ4yPjxOLxTAMg+npaYnfIwkh+EuxsbEh6vU6T58+ZWFhgYcPH7K6ukq9XqfjyJEjnDp1ildeeYW+vj68Xi+qqqIoCqZp0mg0qNfrlMtlyuUyBwcHdEiSRLPZRNM0enp66O7uxu1202q1sCwLy7K4ceMG2WyWer2O2+2m0WjQ4fV6SSQSDAwMEI1GicfjhEIhZmZmJP4DSQjBX4JSqSSy2SxLS0s8ePCAhYUFNjc3aTQadEQiERKJBBMTE0QiETocx0HTNAzDwDAMisUi2WyWQqGAbdt0qKqKLMv09/ejKAoej4eenh5cLheFQoGVlRXS6TQPHz6kVqvxOy6XC13XOXv2LBcvXsTn82GaJv39/czMzEj8JyQhBP/TSqWSaDQaLCwscOfOHT755BM2NjZwHAdFUQiFQkxPTxMKhQiHw+i6TrPZRFVVTNMkEAiQSqXY2dnh+fPn7O/voygKuq6j6zodR48eRVEUDMOgo1qtsr6+zpdffsmzZ8+oVqu0Wi06vF4vhmEwMDDA2bNnOXfuHD09Pei6zvT0tMR/QRJC8D8pk8kIRVFYXl5mfn6e3/72tzx9+pRGo4EsywwNDZFIJBgbG0OSJBRFQVVVNE3DMAw0TcPtdjM3N0e1WqVWq9Hh8Xjwer2oqorjOBiGgaqqdBQKBdLpNCsrK2xsbNBut3G5XMiyjNvtJhaLMTw8zMmTJxkYGCAcDqNpGhcuXJD4AyQhBP+TlpaWRKVS4ebNmywsLLCyskKj0UBRFMLhMGfOnOHs2bO4XC6EELhcLvx+P16vl1arRbFYpFAokEwm6ZBlGcMwMAyDrq4uFEXBcRw0TUMIQbVaJZVKsb6+TiaTodlsIssyLpcLRVEYHBxkYmKCsbEx4vE4Ho+HqakpiT+CJITgf8ra2ppIJpOsr69z8+ZNUqkU9XodwzAYHBzkyJEjDA8PMzY2Rj6fR5IkNE3D7/ejKArlcpn19XU2NjZQFAVd19F1HVVV6ZBlGVVVkWWZjlKpRDabJZ1OUyqVsCyLrq4uVFVFlmVisRinT59mdHSUSCSCaZpMTk5K/JEkIQT/E7a3t8Xu7i4PHz7k0aNHzM/Pk8/ncRyHeDzOyZMn6e/vJxqNMjw8TDabRZZlZFlGURQajQaFQoF0Ok0+nycUCtHd3Y2u63RYlkWz2URVVbq6usjlcmxsbJBKpTg4OMBxHDpUVUWWZRKJBGNjY4yPjxOJRFBVlStXrkj8CSQhBN+2arUq8vk8Dx48YG5ujpWVFdbW1lAUBdM0icfjnDhxgmg0iq7rSJLEwcEB3d3dRCIRDMNgdXWVTz/9lFqtRn9/P5qmIcsyHbZtYxgGHo8HWZap1Wr86le/QlEU6vU6hUKBDkmSCIfDJBIJpqenCQaDHD16FMMwOHv2rMSfSBJC8G3b2NgQKysr3L9/n08//ZTNzU3q9TqBQIBYLMbQ0BDhcJje3l7cbjeO4yDLMrIs4zgO5XKZjY0Ncrkcuq4TDoexLIvfFwgEUFWVvb09NjY2+Oyzz2i1WtRqNTpcLhfBYJAzZ84wMjLCsWPH6Ovr46233pL4M0lCCL5NGxsbIp1O89lnn3H37l1WV1epVCp0d3cTi8UYHR0lHo/j8/mQZZl2u02HpmnIskypVGJtbY1cLofb7SYUCuHxeKjVarhcLrq6utA0DZ/Ph23brK6u8uWXX1IoFLBtmw5JkgiHw0xOTpJIJBgcHMQwDN566y2Jb0ASQvBtWVtbE7VajS+//JK5uTk+//xzSqUSHT6fj3g8zpkzZwiHw8iyjG3bOI6Dpmk0m010XadUKrGyskK9XicYDOLxeLBtG1mW8fl8eL1eOlqtFtlslsePH7OysoLL5UIIgSRJBAIBzpw5w+TkJLFYjJ6eHmZnZyW+IUkIwbfl66+/Ful0mvn5eebm5kin0ziOQ1dXF0eOHOH48eOcOHECr9eLZVnYto2u6/h8Pur1OrIsk8vlSKfTyLLM4OAghmFQrVZpt9scPXoUv9/P3t4eqVSKtbU11tfXsSwLWZaRJIne3l7Gx8eZmJjg1KlTGIbBzMyMxAsgCSH4NhSLRZHNZnn06BEfffQRn3/+OdVqFcMwME2TRCJBf38//f39yLKMZVm02238fj+mabK/v0+hUCCVSlEqlfD7/cRiMXp6emi1WlQqFcLhMKqqkkwmWVhYIJ1Oc3BwQIckSfT29nLq1CkuXLjAyMgI4XCYyclJiRdEEkLwbUgmk2J1dZW7d+/y8ccfk8lkUBSFcDhMJBLh+PHjeL1ePB4PQggajQYdfr8fr9dLJpMhnU6zu7uLx+MhHA7j8/mQZZkOx3HQNI1yuczjx49ZXl6mVqshSRKyLGMYBmNjY5w/f54zZ87g9XqZnp6WeIEkIQQvWyaTEel0mqWlJe7cucPCwgKWZWEYBidPniQWi+Hz+dA0DV3X6Wi1WsiyjK7rGIbB4uIimUyGjrNnzzI4OEi9Xiefz2PbNrFYjHq9zvr6OouLi+RyOTo0TcPlcnHy5EkmJia4ePEisViMsbExiRdMEkLwshWLRfH48WPu3r3Lb37zGzY2NugwTZNoNMrAwACDg4MYhoHjOJTLZWRZxufzIcsy9XqdL774gv39fUzTZGxsDNM02dnZoSMYDOLz+Zifn2dhYYFKpUK1WqXZbOJyuTAMg7/+678mGo0Si8Xo6+vj0qVLEi+YJITgZdre3hYHBwfcvHmTTz/9lPn5eQ4ODtB1nVgsxvDwMIODg+i6TodlWRweHtLd3Y3f78eyLAqFAisrKzSbTUKhEIlEAo/HQ6lUQlEUQqEQhUKBhYUFHj9+jGVZHB4e0qHrOkNDQ3zve98jFAoRDoeZmZmReAkkIQQvUyqVEtlsln/+53/mq6++Ip1O09HX18fo6ChjY2PEYjGq1SrlcplyuYwsy4RCIXw+H/l8nlQqRT6fR9M0otEo8Xic7u5uyuUyXV1d9Pb28tFHH7G6ukoqlaLZbCJJEm63mxMnTnDu3Dlef/11/H4/MzMzEi+JJITgZSkWiyKVSrG8vMw777xDMpmkUqmgqirRaJREIsHx48eJRqPUajUymQzFYhGv10s8HkfXdZLJJMvLy8iyTCAQ4Pjx4xw5cgRVVanX6yiKgq7r/OQnPyGbzVIoFHAcB5fLRTAYZHJykosXL3Lq1Cm6urqYmJiQeEkkIQQvy7Nnz8Ti4iIPHjzg9u3b5PN5ms0mfr+fEydOEI/HCYfDBAIBisUi6XSaSqVCX18f8XgcWZZZWVlhdXWVcDhMJBJhYGAAwzBwuVw0m02azSaWZfGzn/2McrlMrVajQ1VVRkZGuHLlCq+99hqBQICpqSmJl0gSQvAyPHv2TORyOT755BPu3bvH48ePsSwLl8tFLBZjaGiISCRCd3c3hmGQTqfJ5/M4jkM4HCYUCmFZFqlUiq2tLYaHh4lGo/T39yOEwOVy4TgOu7u7pNNp5ufnsSwLy7JwuVwEAgEmJyd57bXXGB0dRZZlpqenJV4iSQjBy7C0tCTW1tb46KOPuH//PqVSiVarha7rjI6OEo/H8fl8tNttOlKpFPV6HZ/PRyQSwTAMdnZ2yOVyHBwckEgkCIfDdHd3c3BwgKqqOI5DOp3m0aNH5HI5ms0mrVaLnp4eYrEY09PTnDp1img0ytTUlMRLJgkheBk++eQT8eTJE+7cucPc3ByqquI4Dn6/n9HRUaLRKLIss7e3x+HhITs7O3SEw2HC4TCyLJPNZtnd3aUjkUjQ39+Poijs7e3R1dVFx/LyMnfv3qXZbOI4Do7jEAgEGBsb4/Lly5w8eZLr169LfAskIQQvWi6XE5lMhlu3bvHxxx+zublJo9FAlmUMwyAWixGLxfD5fJTLZcrlMrVaDU3TGBgY4NixYxSLRb766iuq1SqBQIBEIoHjOHg8Hnp6elBVlUwmw+LiIk+ePOHw8BDLslAUBdM0OX/+PBcvXiQWi3Ht2jWJb4EkhOBFW1hYEEtLS9y6dYvPPvuMSqWCrutomoZpmhw/fpxoNIqmaRSLRXZ3d2m1WmiaxpEjR+jt7SWXy7G6uoqiKAwODnLy5EkODw9RFAVVVZFlmWw2y8rKCuvr6zSbTQ4PD1EUhUgkwvnz55mammJgYICZmRmJb4EkhOBFSiaTYnNzk7m5Oe7cuUMymaTZbKLrOn6/n4GBAYaGhujv76fdbpPJZMjn82iahmEYmKaJJEk8ffqUjY0NgsEgp0+fJhqNUq/XabfbtFotHMfh+fPnpFIp0uk0juPQarVQFIXh4WEuXLjAuXPnCAQCzMzMSHwLJCEEL9LXX38tvvrqK27fvs38/DylUglZltE0jXA4zMjICPF4HF3XKZfLpFIpcrkcXq+Xvr4+/H4/9XqdJ0+esLOzw7Fjx3j11Vfx+/3Yto3jODSbTZrNJtlslmQyydbWFo7j0KFpGmNjY5w/f54zZ87g9Xq5cuWKxLdAEkLwojx58kTs7u7y4MEDbt26xfLyMo7j0BGNRhkcHOTkyZMMDAwghCCbzZJMJsnn8/h8PqLRKP39/ZTLZRYXFykUCsRiMSYmJtA0jQ6Xy4XjONi2zebmJslkkq2tLRzHocPr9TI+Ps758+cZHR3l+vXrEt8SSQjBi7K2tiaSySQffvght2/fZmdnhw5d1zl58iSxWIzh4WH8fj+VSoVUKkUqlWJ3d5e+vj6OHTtGX18fu7u7fPnll1QqFQYHBxkdHcXr9SJJEm63m1arxcHBARsbG6RSKZ4/f06r1UKWZTweDxMTE1y4cIFTp05x7do1iW+JJITgRchkMqJSqfDw4UPef/99Hj58SEcoFMI0TUKhEMeOHWNwcBBN08jlcqyurrK5ucn+/j7Hjh0jHA6jaRq5XI7V1VVarRaxWIyTJ08yMDBAu92mo1qtUiqV2NraIpfLsbOzQ7PZRJZlPB4PExMTXLhwgUQiwezsrMS3RBJC8CJ88cUXIp/P89FHH3Hjxg3K5TKSJDE0NEQ4HMY0TQYGBohEIjiOw+bmJqurq2QyGWq1GsPDwwQCATo2NzdJJpPIsszw8DBDQ0OMjo5iWRaWZbGzs0OhUCCbzbK7u8v+/j7NZhNZlvF4PExMTDA1NcXo6Cizs7MS3xJJCMGLsLa2Jm7fvs0777zDysoKkiQhyzLHjh3j+PHjnDt3Do/Hg2EYNBoNnj9/TjKZJJlMsru7y6uvvko8Hmd3d5elpSXK5TIdoVCI0dFRLl68SL1eZ29vj2w2S71ep1KpkMlkSKVSdHV10Wg06Onp4fLly0xMTBCJRHj77bclviWSEIJvYnt7W2iaxi9/+UsePHjARx99xM7ODrIs4/V6GR4eJhaLEY1G8Xg86LpOrVYjnU6ztrbG1tYW9XqdixcvEovFKBQKLC0tUSqV6AgGgyQSCUZHR5EkCdu2yefzVCoVSqUS2WyWzc1NOlqtFl6vl+npaV599VWi0Shvv/22xLdEEkLwTeRyOZHL5fjpT3/KysoKT5484fDwkK6uLkKhECdOnCAajRIIBPB4PCiKQi6XY2lpiVQqRaVSQZZlpqenGRgYIJ/P8/jxY4rFIh2BQIDh4WFisRh+vx9N09jd3aVYLJLL5chms+RyOZrNJh2GYfDqq68yMTHB0NAQ3//+9yW+JZIQgm8imUyKhw8fcvPmTZ4+fUomk6Gjp6eHo0ePEovFCIfDhMNhdF2n3W6TTCZZWFhgc3MTx3Hw+XyMj48TiUTY2tpiaWmJUqlEh2EYxONxjh49yrFjxwiFQpRKJba2tkin02QyGfL5PI1GA1mW8Xq9jI6Ocu7cORKJBEeOHGF6elriWyAJIfhz7e/vi9XVVW7dusX9+/fJZDKUSiUURSEQCDA4OMjQ0BDhcJi+vj5kWaZer7OyssLCwgL5fB5d1wkEAsTjcUKhEOl0mqWlJWq1GpIk0dXVxfHjxzly5AgnTpzg2LFj7O/vk06nWV9fZ2Njg3w+T7vdRlVVDMPgxIkTJBIJzp07x8DAADMzMxLfAkkIwZ9je3tb2LbNgwcPuH37Np999hk7Ozs4joNhGAwODhKPxzl27BjhcJiORqNBqVRiZWWFlZUVKpUKXq+Xvr4+IpEIgUCAjY0Nnjx5Qr1eR5ZlVFVlYGCAI0eOcOLECWKxGLZtk8vlWF9fJ5VKkclkEEKgqiqaphEOhxkZGWFqaopYLMYbb7wh8S2QhBD8OTKZjFhdXeXOnTvMzc2RTqexbRuXy0UkEmFoaIijR48SDocxTZNyuUytVmN7e5v19XU2NzexbRuPx4NpmgwMDBAIBEgmk6ysrNBsNlEUBVVVCYfD+P1+4vE4sVgMx3GoVCpsbm7y7Nkz0uk0BwcHqKqKqqqYpkk8HufixYsMDQ3x9ttvS3wLJCEEf6pUKiUODw/5+OOPuXnzJouLiziOQ7vdRtd1RkZGiMfjmKaJz+dD13XK5TKlUolsNks6nSafz+M4DoZh4PF4GBoawjRNUqkUa2trNJtNVFXF7XYTDodxuVzEYjHi8Thut5tGo0EulyOVSpFOp9nd3UXTNFRVxTAMBgcHmZ6eZmRkBMMweOONNyReMkkIwZ8ql8uJZ8+e8fOf/5xbt25RKBSQJImOYDDIxMQEsVgMTdPwer34fD4ajQZPnz5leXmZdDpNPp/HcRwCgQCxWIxQKES1WiWfz5PL5ajVakiShGEYeL1eNE0jFosxNDREd3c3sixTKBRIp9Mkk0mq1SodQgh0Xefo0aNMTExw8uRJQqEQb7/9tsRLJgkh+FPs7OyIQqHA/Pw8H3zwAQsLCzSbTVwuF7quE4vFGB0dJRQK0aHrOl6vl52dHVKpFOvr62QyGWq1Gh39/f3EYjEikQiVSoVcLkcul6NSqeByuTAMA7/fj6qqRCIRotEoHo8HXdcpl8uk02nW1tYol8vIsozjOLjdbvr6+jh79iynT58mFovx3e9+V+Ilk4QQ/LFyuZyQJIn79+9z8+ZNHj58yO7uLh39/f0EAgFOnDhBLBZD13Vs20aWZXRdZ21tjc3NTTY3NymVSti2jSzLHD16lHg8TiQSoVwuk8lkeP78Ofv7+yiKgtfrxe/3o2kafr+f/v5+/H4/gUAA27bZ2NhgZWWFQqFAR6vVQpZlDMMgkUgwMTHB6dOn0XWda9euSbxEkhCCP1Y2mxX5fJ733nuPf//3f6dQKNBqtegYGhoiEokwPDxMOBxGlmUqlQqNRoOOr776ilwuRy6Xo16v0263UVWVWCzG0NAQ4XCYUqlEOp1mc3OTvb09ZFnG6/Xi8/nw+/3ouo7H48E0TSKRCKqqksvlWF1dZXNzk1arhW3b/M7g4CAXLlzg/PnzeL1eZmdnJV4iSQjBH2NjY0NYlsXCwgLvvPMOCwsLtFotFEWh0WgwOTlJNBolFovh9/vpqFarHBwcUK/XWVhYIJ/PUywWabfbSJKEYRgMDQ0xPDxMNBqlVCqRSqVIJpMUCgUcx0HXdXRdJxKJoKoqmqbh9/uJxWL09PSwv79POp1mZWWFg4MDqtUqjuPQbrfx+/289tprTE9PE4lEeOONNyReIkkIwR8jm82K1dVVbt++za9+9Su2trZwuVx0dXXhcrm4cuUKoVCIQCCArut01Ot1SqUSuVyOx48fUywWsW2bDpfLRTgc5pVXXiGRSDA4OEipVCKZTLK+vs7m5iaWZdGhaRqhUAhN09A0Da/Xy+DgIMFgEMdxKBaLrK6uks/nyefzdDQaDQzDIJFIcP78ecbGxtB1nevXr0u8JJIQgv/Ozs6OWF1d5eHDh3z88ccsLS1Rq9WQZZm+vj6i0ShnzpzB6/WiaRodLpcLy7LY2tpidXWVTCZDvV6n3W6j6zo+n494PM7o6CinT58mGAxSKpVIpVKsrKywurrKzs4O7XYbWZbxeDwYhkF3dze6rhOJRAiHw+i6jmVZpFIpUqkUW1tbyLJMq9VCURQGBgaYmJjgypUrdHd3893vflfiJZGEEPwh29vbwu128+677/LgwQMePXpEsVik2WyiqirxeJypqSn6+/tRFIVWq0Wz2URVVWzbZm1tjcXFRWzbxrIsHMfBNE3C4TCJRILx8XHOnj2LLMuUSiVSqRTLy8ssLy/z/Plz6vU6juOgqiperxePx4OmaQQCASKRCKZp0pHJZFhZWSGdTqMoCq1Wi45QKMTo6ChvvvkmXq8Xn8/HzMyMxEsgCSH4Q3Z2dsTW1hb/+I//yOrqKslkkg5FUYhEIgwPDxOLxQiHw1iWhRCCDkmS2NraYnFxkWQySavVot1uo6oqpmly9epVrly5QiQSQdM0JicnpYWFBVEqlVhdXeXevXssLCxQrVbp6elB0zRcLhe6ruP1enG5XLjdbgYGBojFYuTzeZrNJnfu3KFSqdDh8XgYGRnh4OCAiYkJxsfHOXr0KJcuXZJ4CSQhBP+Vvb09sbm5yfLyMu+88w7JZJJisUhHMBhkcHCQeDxOOBzGMAwajQYdzWYT27ZJp9MsLy+TyWQQQtChqiqjo6NcvnyZyclJTNNkampK4v+5e/euSCaTzM/P8+DBA0qlEpqmoSgKmqahaRo+nw9FUVBVlUgkQjwex7Ztms0mt2/fZmdnh2aziaIoxGIxyuUy3/nOdxgfHycajXLlyhWJl0ASQvBfyWazYn5+nnv37jE3N0cul8NxHLq6ukgkEhw/fpxoNIrP5+Pg4IAOSZKo1WoUi0WePn1KMpmkVCqhKAqqqjI4OMiFCxd49dVXicfjXLhwQeL3zM3NiUwmw+LiInNzc2xubtLhOA6qquL1evH7/ciyjMvlIhwOc+zYMTweD61Wiw8//JB8Pk+1WqXVahEOh6lUKvzVX/0VZ8+eJRaLcf36dYmXQBJC8J+p1+simUzywQcf8Otf/5psNsvBwQGSJBGNRpmYmGBwcBC/34/b7WZ7extFUZBlmZ2dHTY3N1lfXyeXy9FqtVBVlWAwyPj4ONPT0yQSCXw+H2fPnpX4PQ8fPhSlUomVlRU+/vhjlpeXqVardLjdbvx+P6Zp4jgOsiwTCoUYGBjANE067t+/z/b2Nnt7ezQaDUKhEOVymStXrjA2NsbIyAg+n4+ZmRmJF0wSQvAfbW9vi/+Lhw8f8u6773L//n1arRatVouuri7OnDnD+Pg4wWAQVVWRZZlsNktHs9kkk8mQSqXY2tqiXq/Toes6o6OjvPbaa0xNTREOh5mYmJD4T8zNzYl0Os3du3dZXFwkn8/TaDQwDAO/349pmrRaLTp6e3s5evQox44dQ1VV5ufnyefzZLNZ6vU6wWCQcrnM+Pg4o6OjnDp1inA4zLVr1yReMEkIwX+UyWTE5q+2ivEAAB4iSURBVOYmt27d4vbt26RSKRRFQVEU+vv7GR8fZ2RkBF3XURSFjnw+j2VZlEol0uk0mUyGUqmEEIKO4eFhxsbGePXVV3nllVfQNI3JyUmJ/8SjR49EsVjk/v37fPLJJ2xtbWHbNoZh4Pf76evrw7Is2u02Ho+HUCjEuXPn6O7u5sGDB2QyGdLpNLu7u/h8PqrVKqOjoyQSCc6ePUs8Hmd2dlbiBZOEEPy+7e1tUSqVuH//Ph988AFfffUVjUaDjp6eHk6cOMHY2BiRSIQOSZLQNI18Ps/u7i4bGxukUil2d3exbZsOTdOYnZ0lkUiQSCQIh8NMTk5K/Be+/PJLUavVmJ+fZ35+nlQqRblcxuPx4PP5ME0T27axLAtN0wgGg0xMTODz+VhcXCSXy7G2tkahUMDn81Gr1YjH44yMjDA5OUkikWB2dlbiBZOEEPy+XC4nMpkMH3zwATdu3KBQKOByuegIBAIkEglOnz6NaZq0221cLhe6rpPL5chmszx9+pRUKkW1WqXD7Xaj6zo//OEPGR4eJhaLMTMzI/HfePTokXjw4AGffPIJT58+ZWdnB6/Xi8/nwzRNqtUqBwcHqKpKIBAgkUhgmibLy8sUi0U2NzfZ2dnBNE3K5TLhcJiRkRGmpqYYGxvD4/EwNTUl8QJJQgh+x3EckclkuHnzJnNzc3zxxRcUi0VkWSYWixEOhzl69CiBQIBQKITX68VxHEqlEru7u6ytrZFKpajVauzv7yOEoLu7m7Nnz/LDH/6Q/v5++vv7OXfunMR/Y2FhQezs7PDRRx/x61//mv39fYQQ6LpOKBRC13Ucx0GWZXRdZ3BwEJfLhSzL5HI5tra2yOfzWJaFqqp0eDweZmdneeONNzAMg+npaYkXSBJC8Dv1el0sLy9z48YNHj58SCqV4uDgAF3XOXr0KPF4nFgshmEYqKqKoijIsky9XieVSpFOp8lmsxwcHHB4eEhHNBplenqay5cv09vby+zsrMQfYWlpSZTLZe7du8dvfvMbcrkcrVYLTdMIBAIYhoHjOLhcLrq6uvD5fOi6Tnd3N3t7e+RyObLZLKVSCcdx0DQNr9fL1atXeeONN/D5fFy5ckXiBZKEEPxOLpcT9+7d47333uPx48fs7e0hhCAUChEOhxkZGSEWiyHLMrZtY9s2kiRh2zaff/4529vbFAoFWq0WHbquc+HCBWZnZxkcHMQwDKanpyX+SI8ePRIPHz7kzp07rK6uYts2qqpimiaGYdDhcrno6uqi0Wjg8/kIBoPYts3Ozg7pdJpsNosQgu7ubnRdZ3p6mjfeeAPTNJmdnZV4gSQhBB25XE7s7e3xy1/+kvfff590Oo1lWbhcLo4fP86JEyc4duwY4XCYjlarRb1ex7IsSqUSn332GeVymUqlQofL5SIajXL9+nVmZ2fp6uri0qVLEn+CpaUlsbi4yN27d/n888+p1+vIsozP58Pj8SDLMrIso6oqzWYTr9dLf38/rVaLSqXC5uYm2WwW27YxDAOXy8XU1BTf+c53CAaDfO9735N4gSQhBB3Pnj0Tz58/5+bNm9y6dYtCoYBt27hcLoaGhpicnMTv9+PxeFAUBV3Xqdfr5HI5kskkKysr1Go1Go0GHYZhMD4+zuzsLBcuXKBjYmJC4k/w5MkT8dVXX3Hv3j3m5uYol8sIIfB4PHi9XlRVRZZlXC4XHZqm4ff7abfb2LbNzs4OhUKBer2O2+2mY3x8nO985ztEIhG+//3vS7xAkhCCji+++EKk02nef/99Hjx4gGVZNBoNNE1jdHSUqakpVFVFVVVkWcYwDCqVCslkksePH1MsFqnX6ziOQ1dXFwMDA5w/f56pqSmGh4c5d+6cxJ9obW1NrKysMDc3x/3799ne3sa2bbxeLx6PB13X6VAUBVVVkWUZj8eDEIJWq0WlUqFcLlOv12k2mziOw+joKG+++SYDAwP84Ac/kHiBJCEE2WxWLC8vs7q6ygcffMDy8jKKoiDLMj6fj8nJSY4fP46u63R1dXF4eIgQgu3tbdbX11leXsZxHCzLoqO3t5fTp08zMzPDyMgIpmkyMTEh8Sd69uyZePr0KfPz8/z2t7/l+fPn7O/vYxgGpmmi6zqyLCNJEs1mE0VRME0TSZJQFIVKpUKxWKRSqdBqtWg2mwwPD/PWW29x/PhxfvCDH0i8QJIQgo2NDfHZZ5+xtLTE+++/TzabRVVVdF0nFAoxPT2NpmkEAgE8Hg/lcpm9vT1SqRSpVIqNjQ0URaHZbCJJEsFgkIsXL3L16lWi0SjT09MSf6Z79+6Jhw8f8uGHH5LJZCgWi3i9XkzTpLu7mw5FUahUKqiqSigUwu12o2kapVKJXC5HuVzGcRyazSbDw8O89dZbxGIxjh49yqVLlyReEEkIwfb2tvj5z3/O7du3WV1dpdFoYFkWsixz5coVTp06hWmaCCFwHIdyucz29jZbW1tks1nK5TL1eh0hBC6Xi8nJSV5//XVGR0fRdZ2ZmRmJP9Nvf/tbsbW1xa1bt/j888/Z29ujt7eXjr6+Pnw+HwcHB3Touk53dzdutxufz4fjOKRSKdbX13G5XAgh6OvrY2ZmhvPnzxOJRJienpZ4QaR0Oi1kWebf/u3fuHXrFslkElmWsW2bQCDAxYsXOXHiBLqu02w2abVa7O3tsb29zfPnz8nlcuzv79NsNmm1WvT09HD58mWuXLnC8PAwly5dkvgG7t69K7LZLL/+9a959OgRu7u7+Hw+HMchGAzi9/up1+vIsoymaRiGgaqq+P1+Wq0WqVSKp0+fIssyjuPQ19fHzMwM58+fJxKJcOXKFYkXRHr69Kk4PDzkpz/9Kbdv32ZjY4Ouri5cLhcnT57k1Vdf5ciRI3QcHh5ycHBAsVgkn8+Ty+UolUrUajUcx6FjYGCAa9eucf78eQYGBjh37pzEN/DJJ5+I58+f86tf/Yr5+XkKhQK6rtPR39+PaZrYto0sy6iqimEYqKqKz+dDCMGzZ894+vQpjuPgOA6BQIDXX3+dCxcuMDAwwMzMjMQLIq2srIhSqcS//uu/cufOHXZ3d9E0DZ/Px9jYGKdPn0bTNBRFwbIsKpUK+Xye7e1tCoUC5XIZ27ZptVooisLw8DCzs7OMj48TCASYmpqS+AYePXokstksN2/eZH5+nnw+j6qqdASDQfr6+mg2m3Romoamabjdbnw+H47jsLm5STKZxHEcOkzT5PXXX+fChQsMDAxw7do1iRdEWlxcFFtbW7z77rvMz89TLpfRNA3TNBkfH+fEiRM0m018Ph8HBweUy2VyuRw7OzsUCgUqlQqHh4fIsozb7WZ8fJzZ2VlGR0eZnZ2V+IYWFhZELpfjF7/4BfPz8xQKBVwuF7IsEwwG6e/vp9ls4jgOqqqiaRqyLOPz+ejY2toilUrhOA4dfr+fq1evcunSJQYGBpiZmZF4QaTPPvtMrK6u8otf/ILHjx9TqVTQdZ3e3l7Onj1LLBbDsiz8fj/1ep1KpUI+nyefz7Ozs0OlUsG2bTRNw+fzceHCBWZnZzl+/DiXLl2S+IYWFhZELpfjZz/7GQ8ePKBUKqHrOh2hUIhAIMDh4SHNZhNVVXG73ciyjM/noyObzZJOp3Echw7TNLl69SoXL14kGo1y5coViRdEmpubE48fP+bGjRukUinq9TqGYeD3+zlz5gzxeJyDgwM0TcOyLOr1OoVCge3tbfL5PKVSiXa7ja7r9PX1cfHiRa5du8bg4CBTU1MS39DCwoLIZrP85Cc/4dGjR1QqFXw+H7IsEwqFME0Ty7KwLAtFUVBVlQ6fz4csy2SzWTY3N3Ech45AIMDVq1eZnp5mYGCAS5cuSbwg0v3798XCwgLvvfceuVwO27bxeDx4vV7Gx8c5ceIEBwcHOI6DbdvU63WKxSL5fJ5cLsfu7i6O46DrOqZpcunSJWZmZhgYGODSpUsS39CjR49ENpvlxz/+MQsLC9RqNUzTxOVyEQqF6O3tpV6vU6/XURQFl8tFh9/vR5Zlstksm5ubOI5DRzAY5OrVq0xPTzM4OMjU1JTECyJ99tlnYmFhgRs3brCyskJHo9EgGo1y8eJFGo0GwWCQZrNJq9Wi1WpRLpcpFApks1kKhQK2bePxePD5fJw9e5bLly/zyiuvMD09LfENPXr0SKytrfFP//RPlMtldnd3cRwHwzAwTZPu7m4URcHlcnFwcIAkSXR1ddHb20uz2SSdTpPL5ZBlmQ7TNDl//jznz5/n2LFjzM7OSrwg0vz8vFhYWODGjRusrq4iyzKNRoNoNMprr72GbdsEAgFarRbtdhvHcSiXy5RKJXK5HPl8nkajgWEY+P1+xsbGuHz5MkNDQ8zMzEh8Q5988olYX1/nRz/6EeVymZ2dHYQQdHd3EwgEMAwDTdOQZZlGo4Hb7cblcqHrOpZlkc1m2d3dxXEcOkzTZHp6munpaQYGBpiZmZF4QaSPPvpILC4u8t5777G2tobb7abVanHs2DHOnTtHrVbD7/fT0Wq1EEJQrVYplUoUCgWKxSK2bWMYBj6fj7Nnz3Lp0iXi8TjXrl2T+Ibu3Lkjvv76a/7lX/6FUqlEqVSiwzAM+vv7MQwDTdOQZZmO7u5u2u02HeVymWKxSL1ex7ZtOkzT5OrVq1y9epVoNMrU1JTECyJ9+OGH4ssvv+S9994jmUyiKAqO4xCNRjlz5gyVSgWfz4csy7RaLYQQVKtVKpUKxWKRSqWCZVlomobX6+X06dNcuXKFoaEhZmdnJb6Br7/+Wjx9+pSlpSVu3LhBuVymXC7Toes6oVAI0zTRNA3bttE0DY/Hg2VZ1Go1SqUS5XIZx3GwLIuOYDDIm2++yeuvv86RI0eYmJiQeEGk3/zmN2J5eZn33nuPZDKJoig0Gg2i0Shnzpxhb28Pn8+Hy+Wi3W7TarU4ODhgf3+fcrlMpVLBtm1cLhe6rvPKK69w+fJlRkZG6OnpYXp6WuLP9OWXX4rl5WUWFhb4+OOPKZfLVKtVZFmmp6eHUCiEx+PB7XZjWRa6ruPxeKhUKuzv77O7u0u9XqfDsixkWSYej/Pmm29y4cIF/H4/ExMTEi+IdOfOHbG6usq7777L6uoqsixj2zbhcJgzZ85QqVTw+/10tFot2u021WqVSqVCpVKhWq1i2zYdmqYRj8e5ePEiIyMjBAIB3njjDYk/QzKZFPl8nkePHvHgwQOWlpao1+vYto3b7aa3t5dAIIBhGMiyzOHhIW63G13XqVarVCoVSqUStVoNx3FotVp4vV5Onz7N9evXSSQSzMzMSLxA0v3798Xa2hrvvvsuKysrCCGwLItQKMT4+DiVSgXTNHEch0ajQbvdplKpsL+/T6VSoV6v02w26VAUhVAoxMTEBCMjI4RCIfx+P2+99ZbEn2h5eVmk02nu3bvH3Nwc2WyWZrOJ4zjouk4gEMA0TVRVxXEcfsftdlOv17Esi3K5TKVSodFo0BEKhZiamuL1118nGo1y5coViRdIevDggVhfX+fdd99laWmJdruNZVn09/czPj7OwcEBfX19tNttDg8PaTabVCoVKpUK5XIZy7I4PDxEURRkWcY0TU6fPk08HiccDhMIBPD7/Vy/fl3ij/TkyRNxeHjI2toad+7c4f79++zv7+M4DkIIPB4PwWAQv99PR6vVQtd1ms0mLpeLer1Os9mkVqtRLpc5PDxElmVisRjT09NMT0/j9/uZmZmReIGkubk5cXh4yI9//GMePXpELpdD13UCgQAej4dAIMDAwAAHBwc0Gg0cx6FWq2FZFqVSCcuysCwLy7Jwu92oqorX66W3t5dXXnmFRCLBwMAAHX/zN38j8d/Y2NgQhUKBdDrNp59+yuLiIul0mnq9jizLuN1u+vv78fv9eL1eOhqNBh2maSLLMplMhlwuR7PZxLZtbNtG13WGh4e5ePEiU1NThEIhJicnJV4gaW5uTti2zbvvvsvnn39OKpVC0zRM08Tn8xEMBhkcHKRYLOI4Dh2Hh4dYlkWpVKJarWJZFpZlIcsyiqJgGAZ+v///VAe/v1Fc9wKHP+d7zuzx7OyuF6+NcWnANEgIBcrPqhjkpO2LvuubvOwfWlVRFAkRUpI4aVUUERSoXJNlMdjLetfj2TNn5pxqpGupurqteu8Nafo8nDt3jrNnz3L69GkWFhZI05Tf/va3in/g3r17Mc9zdnZ22N7e5uHDhzx9+pS9vT2SJMEYg7WW5eVl+v0+7Xabuq5xztHodDqEEPj222/Z3d0lhEAIgaqq6Ha7/PSnP2VjY4Nr167R6/W4efOm4jukPv/881iWJb/73e/Y2tri4cOHiAjdbpcTJ05w6tQpzpw5w3A4RETQWuO9xznHeDxmOp0ym80oioKGiNBqtUjTlJWVFVZXV1lZWeHs2bP0+30GgwGLi4u0221EBGMMIsJ4PGYymTAajXjy5Ak7Ozv89a9/ZTKZUBQFIoK1lm63y9LSEp1OB2st3nucc4gISZLgnGM4HLK3t0dDRGgsLy/z85//nPfee4+3336bW7duKb5j6osvvohlWfLxxx/zxz/+kS+++II8z0mShH6/z+nTp3nrrbcYDocYY1hYWKDhvWc8HjOdTjk8PCTPcxplWRJjRGtNmqb0ej0WFxf5yU9+wmAw4OTJkwwGA7Is41gIgfF4zHg85vnz52xvb/Py5Uum0ynee0IIaK1J05Qsy1haWiLLMhplWeK9R0RQSuGc49WrV+zt7eG9R2uNiHDx4kU2NzfZ2NhgZWWFa9euKb5jKsbI1tZW/PLLL3n48CGffvopw+GQRrfbZXV1ldXVVfI8p9VqkaYpWmvquubg4IDpdEqe53jvCSFQFAXOObz3iAjWWqy1GGPo9/usrq4yGAyw1hJjpKoqGvv7+xwcHDCZTBiPxzjnCCEQY0RrTb/fJ01Tut0u7XYbYwwhBBohBBoxRsqyZDqd8urVK4qiQCmFMYZf/OIX3Llzh6tXr5KmKVeuXFF8x1SMka2trfjkyRMeP37Mp59+ytdff83R0RFJkrC0tMRgMGBhYYEkSbDWYoyhkec5RVHgnMN7TwgB5xx5njObzajrGq01xhi891hrWVpaot1uIyKEEIgx0tjb28M5R1mW1HVNQ2tNq9UiSRL6/T5ZlmGtJUkSGjFGlFKICHVdM5/PqeuaoijY29ujKAqMMfT7fX7zm99w48YNzp07x/Xr1xVvgIox8uDBgzidTnny5Al/+MMf+NOf/sSrV6/QWrO4uEi73ebkyZMkSYIxBq01IoL3nrIsqeuaqqoIIeC9ZzabMZ1OKYoCEcEYQ1VVWGtptVoopajrmhACIoLWmqIo8N5TVRUxRpIkodfr0e12abfb1HWNtRZjDI2qqgghYK1lYWGB2WzGZDIhz3O89+R5TmNpaYn19XV+/etfc/HiRZaWlrh+/briDVAxRhr37t2LOzs73L9/n88++4zhcIiIkGUZ1lrOnDmDiGCMQWtNI8ZIVVWEEBARQgh475nNZkynU/I8R0QQEYqiQEQQEcqyxHtPQ2uNMYY0TXHOURQFDWsty8vLnDhxgsXFRQ4ODlhYWKBRVRXeexrtdps0TZlOp4xGI8bjMXVd09Bas76+zuXLl9nY2OD8+fPcuXNH8YaoGCONBw8exNFoxKNHj/j888959OgRs9kMEaHb7WKtpd1uk2UZ1lrquqZhrSVJEg4PD2kopYgxMp/POTo6Is9znHOICGVZ4r3He88xpRQiQgiBhjGGpaUl+v0+WZbRqKqKJEloiAjHQgg0Yox89dVXZFlGVVXMZjMarVaLd999lzt37nDhwgWMMWxubireEBVj5Njvf//7+PTpU7788ku+/vprdnd38d6TJAlpmpKmKVmWYa3lWJIktFotQggcCyHgnMM5R1mWeO9peO9xzlGWJceMMWit8d5jjMFaS6/XI8sykiShqiq89yRJgjEGay3HnHM45yjLku3tbRree7z3aK05f/48v/rVr/jZz35Gt9tlc3NT8QapGCPHPvnkkzgajXj06BGPHj3i6dOnvHz5EuccaZrS7Xax1tJutxERRARrLcYY/l5VVdR1TVVVNEIIiAhVVVHXNd57GkopRARjDNZaGiKCtZYkSWgURYFzjiRJaLVatNttRIS6rpnNZkynU4qi4PDwkDzPcc7RGAwGbG5usrm5yaVLl5hOp2xubireIBVj5O/dvXs3bm9v88033/DVV1+xvb3NeDymqirSNMVaS7fbJU1TrLUkSYIxBuccIQRCCIQQEBFEBBFBKYUxhhACIQRijBxLkgQRIU1TjmmtERGqqmI+n1MUBVVVYa0lyzK01jjnGI/HvH79moODA4wxzGYzYoykacrVq1d59913eeedd1hbW+Py5cuKN0zFGPl7n332WXz16hXD4ZCHDx/y+PFjhsMh4/EYYwzGGNrtNlmW0el0SNMUYwxFURBC4Fir1UIphTEGYwyNEAIiwjGlFMYYRIRGCAGtNcYYRISyLJnP5xRFQZ7nWGtJkgQRwTnHeDxmf3+foig4prXmwoUL3L59mxs3brC2tsatW7cU3wMVY+S/u3//fjw4OOCbb77h8ePHPHv2jMePH+O9J4SA1po0TVlcXKTdbmOMoSEiKKUQEYwxiAhKKRreexrGGJRSiAgiwjHnHA2tNcYYrLV473HOkec5s9kMEUFEqKqKoiiYTqccHh4SQkBE0Fqzvr7OrVu3uHHjBufPnyfLMt555x3F90DFGPmfbG1txWfPnvGXv/yF58+fs7W1xXQ6ZTKZEEJAa02WZaRpijEGay1aa6y1tFotRIQQAseccyilMMZgjEFrjTGGY3me0xARtNYYY/DeM5/PKYqCuq7x3lOWJc45iqKgKArquqahtWZ9fZ2NjQ2uX7/O2bNn6XQ6XLlyRfE9UTFG/pF79+7F4XDIaDTi448/5uXLl4xGI4qiwBiDtZYkSRARsiwjSRLSNCVJEowxVFVFXddUVYUxBhHBWovWGmMMIoJSisbR0REhBEQEEUFrjfeeoijI8xxjDM458jwnz3OKoqCuaxpKKc6fP8/ly5fZ2NjgwoULWGu5cuWK4nukYoz8Mx999FEsy5KPPvqI3d1dnj17xosXL6iqChEhTVOSJCHPc6y1dLtd+v0+1lrquub169ccHR2RJAkigrWWJEkwxnCsqiqyLENEEBHKsqSuaw4ODpjP58znc2KMlGXJ0dERRVFwrNPp0O12ef/99/nRj37EuXPnOHHiBNeuXVN8z1SMkX/m7t270XvPcDhkNBqxs7PD9vY24/GY6XRKURSUZYkxBq01rVaLXq9HlmVorXHO4ZwjTVO01rRaLbTWiAiNEAIxRpRS1HVNCIGiKPDeM5vNKIoC5xytVouyLPHe09Bac+rUKc6cOcPa2hpXr15lZWWFtbU1bt++rfg3UDFG/hWffPJJ3N/fZzQa8eTJE4bDITs7O4xGIw4PDxkMBnjv8d6jlMIYg4gQQiCEQK/XQ0RoGGMQERohBBqz2YwYIyEEqqoihECMkWN5ntMQEZRSnDp1ikuXLnH58mXW19fJsoxOp8N7772n+DdRMUb+Vffu3Yuz2Yzd3V1GoxHb29t8++237O3t0cjznMlkQl3XNJIkwRiDUgoRQURoiAjHQgg0QgiEEHDOUdc1IQREBKUUxhi89yilWFxc5Mc//jFnz57l4sWLXLhwgbW1NW7evKn4N1MxRv63Pvzww3hwcMDz58/Z3d1lb2+PP//5z8xmM6bTKVVVISJkWYa1Fq010+mURl3XNEIIiAghBBpZljGfzymKgrquOSYiNAaDAaurq5w7d463336b1dVVTp48SafT4Ze//KXiB0DFGPm/uH//fhyPx0wmE8bjMc+ePeP169e8ePGC/f19nHM45wghUFUV3ntCCIQQCCFQ1zXHRIQQAg0RoaGUIssysiwjTVMuXbrE2toab731FmfOnCHLMjY3NxU/ICrGyP/H3bt3Y57nGGMYj8cMh0OeP3/Oixcv2N/fZzKZkOc5IkJVVdR1TVVV1HWNUgoRQUSYTqcopciyjNXVVdbW1jh9+jTLy8t0Oh2Wl5fp9Xr0ej263S43b95U/MCoGCPfhQcPHsTDw0PG4zHj8Zg8z5lMJkynUw4PD5nNZtR1TVmW1HVNCIFjIoJSijRN6Xa7DAYDTp06xcrKCr1ejzRNWVpawhjD9evXFT9QKsbId+2DDz6I3nvm8zmNuq4JIVDXNfP5HOccdV0TQkBEaAwGA0QEay3WWtI0xVrL7du3Ff8hVIyRN+Xu3buR/+KcI4RAXddUVUUIgYaIICJ0Oh1EBBFBa83t27cV/2H+BvXFzY2tpKjMAAAAAElFTkSuQmCC;" vertex="1" parent="1">
          <mxGeometry x="74" y="570" width="42.94" height="60" as="geometry" />
        </mxCell>
        <mxCell id="i6UgYKZivtmGIP7_H5B_-5" value="" style="shape=image;verticalLabelPosition=bottom;labelBackgroundColor=#ffffff;verticalAlign=top;aspect=fixed;imageAspect=0;image=data:image/png,iVBORw0KGgoAAAANSUhEUgAAAIkAAABQCAYAAAAtFVYuAAAgAElEQVR4AezB729b553g7Q+/unXr8PDwNymKYliVSzCy5MiOY8fNum1QzOyrxWJe7QCDBRa7/d9298VggN3FBoURFKkn6ySO4zi1HVlRCIKVaYmmJP6mDo+Obt/nGQKPgaKYTjPTtDsvfF2xKIr4c/j222+jIAgwxhAEAdZafN/HdV1+8pOfxHjtX61YFEV83zqdTqSUwhjDfD5nMpkwm80IgoCXL19irUVEyGazaK3RWiMiWGtZuHLlSozX/tWIRVHE96XVakXj8RhjDAuTyYSzszNOT0/p9/sEQYC1Fq01SimstTiOQzwex3VdRATP80in03ieh+M4vPXWWzFe+38qFkURf6yDg4Po5OSEbrfL0dER4/GYMAy5e/cuQRDg+z5BEGCMwVrLgojgui5aa1zXJZ/Pk0qlqFarlMtlCoUCC4lEgkwmw82bN2O89v9ELIoi/qWePn0aGWOYTCZ0Oh1arRatVovT01POzs4YDAa8YozBGIO1lpcvX7IQj8dRSqG1xnEcXNelWCxSKpVYXV1Fa006naZSqbC6usrbb78d47U/u1gURfxzDYfDKAxD+v0+e3t7fPbZZzx8+JAXL15wfn6OMQZrLcYYFkSEBRFhQURYWFlZYUFEEBG01mitERFEhPfee49CoUCpVGJtbY18Ps97770X47U/q1gURfxzHB4eRv1+n9lsxqeffsrz589pNpscHBxwdnaGMQZrLdZaFkQEpRQrKyuICNZaXr58iTGGbDaLtZYFay0igohgrUVEyGQylEolqtUqtVqN9fV18vk8uVyOt956K8ZrfxaxKIr4rrrdbtRut2m325ycnHD79m0mkwmDwYCzszOMMSyICNZaKpUKWms8zyORSKCUwhhDGIZcXFwgIlhrMcYQBAFBEBAEAcYYFs7Pz0kmk6ytrbG1tUW9XmdjY4NqtcqNGzdivPZnEYuiiO+i1+tFh4eHPHr0iCdPntDpdGg2m4RhyNnZGcYYFrTWLC8vo5Ti8uXLuK6L53kkk0lEBGMM8/mcMAxZMMZgjMH3fabTKZPJhMlkQhiGnJ2dobUmmUyysbHBD37wA65cucLW1hbVapVarRbjtT+5WBRF/CH9fj86ODhgb2+PL7/8kq+//prnz58zn8+x1mKtRSlFPB4nk8mQz+dJpVJ4nkcikcBxHDzPY8EYg+/7hGFILpfDWou1Ft/3mU6nDAYDxuMxvu/z4sULXnEch1wux40bN7h27RqNRoNSqcTGxkaM1/6kYlEU8U85PDyMDg8P2d3dZW9vj93dXQ4ODhgOh7yilCKdTpPL5ahUKlSrVXK5HMYYtNasrKygtcYYw/n5OUEQEIYhnuchIiwYYwjDkNFoxHQ6xfd9er0es9mM09NTLi4uWFlZoV6vs7Ozw9bWFlevXiWZTFKv12O89icTi6KI36fdbkedTodms8nDhw9pNps8f/6c+XyOMYYFEaFYLFIqlSgUCpRKJVZXV8lmsyilEBFEBGstYRgShiHz+ZwwDAmCAK01ruuytLTEy5cvmUwmGGPwfZ9+v89oNKLT6dDv91koFotUq1VqtRr/7t/9OzKZDO+9916M1/5kYlEU8Y8Zj8fR/v4+7XabJ0+e8ODBA549e8Z0OkVEUEphrSWdTlOr1VhbWyOdTuO6LtlsFtd1UUphrcVaSxiGnJ+f4/s+YRhijCEIAhzHwXVdHMdhZWWF6XSKtRbf9/F9n/F4TKfT4fT0FN/3SaVSpFIpisUi//7f/3tKpRJvvPEG29vbMV77k4hFUcQ/ZjweR71ej//1v/4XH374IYPBgPF4zGw2Y0EpRaVSYWNjg3q9Ti6XI5/Pk8vlEBFmsxlBEGCtJQxDxuMxg8GAk5MTTk9POTs7o1wuo7VGa00ymcR1XbTWOI6DiDCbzeh0OhwfHzOdTjk+PmY6nZLNZllbW2N7e5urV6/y7rvvUq1WSafTMV773sWiKOJ3nZ2dRaenpzx+/JgPP/yQTz75hPF4jDGGMAwREYrFIo1Gg3q9zsbGBo7joLVGa41SiiAIaLVaBEHAcDhkMBgwHA4ZjUaEYUgYhogIWmtSqRSlUolCoUA+nyeTybCyssL5+TnPnz+n2+3S7/d58eIF4/GYZDJJoVCgWq1y9epVbt26xcbGBuVyOcZr37tYFEX8rsPDw+jg4IBf/OIX3L9/n93dXay1LIgI+XyeRqPB5uYm1WqV1dVVrLWEYYgxhjAMGY/HfPHFF8xmM4bDIZPJhDAMubi4QERYWlri7OwMESGdTlMoFCiXy1SrVVZXV0kmkziOQ6/X48WLF3S7XQ4ODhgMBiil8DyPTCbDlStX+Lf/9t+yubnJ9vZ2jNe+d7Eoivht0+k0arfb7O7u8rd/+7e0Wi1OTk5YEBESiQSbm5tsbW1RrVZxXRetNWEYIiIEQUCv1+Pg4IAvv/ySMAy5uLggDEMWRASlFMvLy0ynU5RSxONxPM+jUChQqVQolUqkUinq9Tqj0Yher8fBwQHtdpvj42OMMYgIruuyubnJrVu3uHr1KoVCgTfffDPGa9+rWBRF/LZutxs9efKE+/fv8+GHH3J8fMx4PGZBa02tVmNra4tGo0GxWCQIAs7OzgjDkHQ6TRiGfPPNN3z55Zf0ej2stYgI1lpEhAURYWFpaYmXL1+ysLy8jOu6rK6uUi6XSafTXL9+HWsts9mMg4MDWq0W3W6XwWDAxcUFiUSCarXKu+++y/Xr16nX62xvb8d47XsVi6KIV8bjcdTpdPjss8/4+OOP2d/fZzQacXZ2hohQLpe5fPky9XqdcrmM53nMZjOGwyFBEOB5Hr7v8+TJE+7fv48xht8mIvy2RCJBGIZMp1NEBMdxyOfzlEolMpkMN2/exHVdlFIcHh7S6XQ4Ojqi0+kwHA6Jx+PkcjkuX77MzZs3uXz5MuVymY2NjRivfW9iURTxSqvVitrtNnfu3OGXv/wlQRAwHo8Jw5BEIsHm5ibXr1+nXC7jui7GGBaCIODk5IQgCDg5OWF/f59ms4nWGmstCyKCUopEIoHneWitUUrh+z7dbpcwDFFKkU6nyeVyZLNZrl69SqVSIZPJMBgM6Ha7HB4e0mq1ODg4YGlpCc/z2NjY4Pr161y7do16vc6lS5divPa9iUVRxMLjx48jay3NZpNf/vKXfPjhh6ysrDCdTrHWkk6nuXbtGj/60Y8oFossdLtd8vk8IsLBwQGtVouDgwOOjo4Yj8copTDGoJRCREgmk6ytrVEul8lkMhhjGI1GtNttRqMR5+fnJBIJUqkUqVSKd955h1qtxvr6OpPJhJOTE46Ojtjf32d/f5+Liwvi8TiFQoEbN27w7rvvsrm5ydtvvx3jte9NLIoiFk5OTqKDgwNu377N559/TrfbJQgChsMhIsLGxgZXr16lXq9TLBbxPA9jDMYYTk9PuX//Pr1ej9FoRL/fZzKZoLVmwXEcLl26xM7ODhsbGxQKBRzHYTQasb+/z4MHD2g2mwRBgNaaeDyOUop3332XnZ0d6vU61loGgwH7+/s0m03a7TYnJycopchms1y7do0bN25w9epVCoUCb775ZozXvhexKIpYODg4iFqtFrdv3+bevXscHx9jreXs7AylFFtbW7z11lu88cYbJJNJXNfF931836fX63H//n1OT08Jw5CzszN830drTT6fp1arce3aNTY3NykWi3ieh4jQ6/V49uwZv/71r9nd3aXb7bKwvLyM4zhsbW1x+fJl6vU6IsJsNqPdbtNsNmm32/R6PRaSySRbW1tcu3aNd955h/X1da5cuRLjte9FLIoiFh4/fhzt7u5y+/ZtvvrqK/r9PiKCtZZ0Os3169dpNBqkUimWlpZQSjGfzxmNRhwcHPDo0SOGwyEL1lqstWituXLlCj/96U+5ceMGa2trrKysUKvVYvyDhw8fRqenpzSbTR48eMCjR48YDocsLy/jOA7VapWtrS0ajQau62KM4fDwkHa7TbPZ5ODgAGstWmuq1So7OzvcvHmTRqOB53m89dZbMV77o8WiKOLg4CA6PDzkq6++4vbt2zx+/JgwDBERRIRarcaNGzdYX19HRDDGoJTC9316vR7Pnj1jf3+f6XSKtRYRQUQoFou8//77/OVf/iXb29t4nkepVIrxW54+fRo9f/6ce/fucefOHdrtNtZa4vE46+vrNBoNGo0G+Xwe13UZDAa0Wi329/dptVqcn59jjCGfz7O5ucmtW7e4fPkya2trbG9vx3jtjxaLooh2ux21220+/fRTPvzwQ9rtNsYYlFJordne3ubatWtkMhnCMMQYg1KK2WxGr9fj6OiITqfDcDjEGINSioVbt27xF3/xF/zoRz8in89TrVZj/I5utxv1ej0+//xzbt++zePHjwmCAK01lUqFer1OvV6nUqmwurpKEAQ0m012d3fZ3d0lCALm8znJZJI33niDW7ducf36dWq1Gtvb2zFe+6PFoiii3W5HT58+5e///u/56KOP6Ha7LIgI+Xyezc1NLl++jOd5TCYTrLW4rstoNOLw8JBut8tgMGA8HhMEASJCPB7nv/7X/8p7771Ho9GgWq3G+D2+/fbb6Msvv+SXv/wlX3zxBf1+n4WNjQ2q1Sr1ep1arUatVsNaS7PZ5OHDh+zu7hIEAcPhkHg8zvr6Ojdv3uTdd9+l0Whw5cqVGK/90WJRFPHNN99ET5484aOPPuLv//7vGQ6HaK0REYrFIltbW9TrdZRSTCYTlFJkMhmOj49ptVp0Oh0mkwnz+RxjDIlEgrW1NX7+859z7do1yuUypVIpxu/Rbrejx48f88knn3Dv3j0ODg4wxlAulymXy9TrdRqNBltbW4gIe3t7PHjwgCdPnhCGIcPhkJWVFVZXV7l27Rrvvfcem5ub3LhxI8Zrf7RYFEU8fvw4evLkCR9++CGfffYZ0+kUpRSJRILV1VU2NzfZ2NjAWstkMsFxHAqFAs+ePePp06c8e/aM6XSKMQYRoVQq0Wg0+Ku/+it2dna4cuVKjH9Cu92O9vf3uX//Pl988QXNZpPpdEqxWGR1dZVarcbW1hbb29sopdjf3+f+/fs8evSIMAwZj8dorSkWi1y9epWbN2+yublJrVajUqnEeO2PEouiiLt370atVou7d+/y0UcfsbS0xHQ6pVQqsba2RqVSQWtNPB7HcRxSqRRhGNLr9Tg9PWVvbw9jDMYY5vM5Wmv++q//mr/6q7+iUqmwsbER45/w4MGDqFQq8cEHH7C/v8///t//mzAMqVarOI5DuVxma2uLra0tRITRaESn0+GDDz5gMpkwn89JJpNkMhkajQY7Ozu8/fbbpFIpbt68GeO1P0rM9/3o888/p9lscvfuXe7cucPKygrT6ZRKpUK1WmV1dRURQSnFysoKrusSBAHdbpeTkxP29/dZEBHCMCSdTvM3f/M3/MVf/AWVSoWNjY0Yf8DJyUl0+/ZtWq0Wf/d3f8d8PiebzeI4DpVKhcuXL3P58mVEhNFoxOHhIbdv32YymTCdTkkkEriuS61WY2dnh52dHUqlEu+9916M1/4osdlsFn3yySfs7+9z9+5dPv74Y1zXxfd9arUa1WqVQqGAtZZXVlZWmM/nvHjxgpOTE9rtNgtaa6y1VCoV/st/+S/s7OxQqVSo1Wox/oCzs7Pozp07PHv2jP/+3/87o9EIEcFxHCqVCjs7O2xtbaGUYjAYcHh4yKeffspgMGA4HBKPx3Ech2q1ytbWFjs7O9RqNW7duhXjtT9KbDKZRB9//DF7e3v83//7f7l37x6e5+H7PhsbG1SrVXK5HNZaXtFaEwQBp6ennJyc0G63WdBaY62lVqvx85//nEajwU9+8pMY39GdO3eibrfLf/tv/43Dw0OCIMBxHNbW1tje3mZrawulFCcnJxwdHfH1118zGAwYDoesrKzgOA5ra2tcunSJy5cv02g0cF2XmzdvxnjtXyw2Go2ijz/+mL29PT755BPu3buH67oEQUC5XKZSqVAoFHhFRHAchyAI8H2fXq9Hs9nEWovWGmMMtVqNn//859Trdd5///0Y39Gnn34aDYdD/sf/+B/s7+8zm81QSpHL5Wg0GtTrdbTWjEYjut0uBwcHDAYDhsMhy8vLOI5DoVBgc3OT7e1tfvjDH5JMJvnZz34W47V/sdhoNIru3r3L/v4+n3zyCXfv3sV1XYIgIJ/Ps7a2RrFYRERQSiEiuK5LEAQYY+j1euzv72OtRSlFGIZUKhX+83/+z1y+fJn19XXefPPNGN/B/fv3I2MMf/u3f8vTp095/vw5IoLrutRqNTY2NvA8D9/36ff7HB0dcXJywsnJCSLCysoKqVSKRqPB1tYW5XKZVCpFsVjk/fffj/GvXKvVikQEay31ej3GvxKx0WgUff755zSbTe7evcudO3dwHIcgCMjn86ytrVEsFlkQEUQEx3EIw5AwDDk5OaHVarEgIoRhSLFY5D/9p//EO++8w/r6OpcuXYrxHXz99ddRIpHgf/7P/8nu7i6fffYZ1lpEhB/84AdcunSJQqHAgu/7dDodut0uR0dHGGN4+fIlyWSSSqXC5uYmhUKBdDrN2toa+Xyen/3sZzH+jNrtdsQ/sNay8PLlS6y1LFhrCcMQay1hGGKtxRiDiLAgIogIIoJSinfeeSfG/yOxKIr46KOPolarxccff8xHH32E1pogCCiVSqyurpLP5/ltjuPg+z5BEDAcDmm324gISinCMCSbzfI3f/M3vPfee6yvr3Pp0qUY30Gr1YpyuRy3b99md3eXv/u7v8Nai4jwgx/8gO3tbdbX10kkEsznc1qtFi9evKDdbuP7PhcXF8TjcQqFAvV6nWKxSCaToVwuk8vlyOfz/OQnP4nxPWi329F4PMZai7UWay0LIoKIICIcHx+zYK3l5cuXWGux1rJgrWU2m2GMIQgCrLVcXFywtLTEglIKz/MQEbTWKKWIx+MopVBKISK8//77Mf4MYlEUcffu3Wh3d5c7d+5w//59wjAkkUjgui6VSoVMJoMxBhHBdV2stYxGI8Iw5OzsjMFgwHA4xBhDMpkklUpRKpX4j//xP3L9+nWKxSKlUinGd/D48eOo1WrRbrf5xS9+wWAwwPd9CoUC9Xqder2OUgprLbPZjOFwyMHBAcfHx8xmM5RSeJ6H1pqtrS3y+TyFQoFsNotSCtd1+eu//usY38HJyUkUhiHWWsIw5OXLl4xGIyaTCePxmDAMCcMQYwwigtYaEcFaSxiGzGYzzs/P8X2fyWTCdDplMpng+z7n5+csGGMIggBrLUopXNclHo/jOA7WWlZXV8nn8xSLRZRSuK6L4zi4rks6ncZxHG7cuBHjTygWRRH37t2Ldnd3+fjjj/nss8+Yz+fE43G01qyvr5PNZlnQWuO6Lguz2Qzf95lOp4xGI/r9PsYY4vE4rutSKBT4D//hP3Dz5k3K5TK1Wi3Gd/D06dPo+fPnHBwc8MEHH9Dr9RgMBqRSKarVKpubm6RSKbTWLIxGIzqdDr1ej9PTU4wxiAgiQqFQoFgsUiqVWF1dJZFI4HkeqVSKZDKJMQatNUoptNYopbDWYozBWouI4Ps+8/kc3/ex1hIEAUEQMJ/PaTabGGMIw5AFrTUigrUWYwzdbpdXwjDEGIPv+wRBgDEGrTULxhistYgIIoLWGqUUnueRTqdJpVKkUimWlpZwXRfXdfE8j2q1iuM4pNNpPM/j7bffjvEnEIuiiIcPH0Z7e3t8/PHHfPLJJ4zHY5RSLC8vs7q6SrFYRGuN4zg4jsNCEAQEQYDv+4zHY05PTzk7O2NlZQWtNalUip/97Gf86Ec/ol6v89Zbb8X4ju7duxf1ej0++OADOp0Ov/nNb1hYW1vj8uXLlMtlPM8jn88zm83odrt0u11evHhBv99nNpthjMFxHFKpFKVSiUqlQiaTIZvN4nkerusiIogIWmtEBGMMYRji+z5hGNJqtRgOh4xGI/r9PsYYgiAgDEPCMCSTyRAEAUEQYK1FKcWCMQZjDOfn54gIy8vLvHJ+fo4xBmstWmsWrLUsKKV4RUQIggClFCsrK4gISikcx8F1XZLJJD/96U9xHIdkMkkulyObzZJKpXjnnXdifI9iURTx+PHjqNVq8dlnn/Hxxx9zeHjIQjwep1AokM1m8TwPrTUigohgrcVaSxAETKdTTk9PmUwmvHz5EmstyWSSH//4x9y8eZOdnR1SqRRvvvlmjO/g22+/jUajER988AGtVovd3V3G4zHpdJrLly+zsbFBoVCgVqsRBAGj0Yher0en06HT6fDixQuCIGDBdV1yuRylUolMJkMymcRxHJRSaK1ZUEphjMH3fWazGWdnZwRBwOnpKfP5HGMMC47jICIsLS1xcXHBgu/7TCYTwjDk4uICay3GGIwxaK2x1rJgreV3JRIJRASlFCLCgjEGYwwXFxeUy2WstQRBgDEGEcFxHFzXxXEckskkjuOQSqUolUqUSiXW1tYoFot4nseVK1difA9iURTxzTffRM+ePePhw4d89NFHtFotwjAkm83ieR7ZbJZMJsNCGIZYa1FK4bouYRgSBAEnJycMBgPCMOT8/BylFLdu3eLatWu8/fbbrK+vc+nSpRjfweHhYXR2dsYnn3zC3t4e9+/f5+joCBHhhz/8IbVajXK5TL1ex1pLGIYMh0OOj4/pdDp0u11GoxHT6ZTl5WUcx8HzPFzXJR6PIyIsnJ2dsWCtxRhDEAT4vk8QBFxcXGCtZWVlhbW1NTY2NqhUKqRSKZRSGGN49OgRs9mM8XjMbDbDGIO1lvl8jjEGay3WWn6b4zgkk0kcx8F1XZRSrKysICIsXFxcEIYhxhhc1yUIAoIgIAgCFkQEpRQL1lqUUjiOQ6lUYnV1lVqtRrlcJpvNUigUcF2X7e3tGH+EWBRFfPvtt9Hx8TFPnjzho48+Ym9vj+l0SjabRWtNJpOhWCxirWU2m7HgOA6e52GMwRhDv99nMBgwm82Yz+csNBoNrly5wvXr12k0GmQyGd58880Y38HJyUn05MkT9vb2uHfvHnt7e8xmMwqFAuVymdXVVer1OsvLy2itMcYwn8958eIF/X6f0WhEr9cjCAKCIGBBRBARjDFYaxERrLVYa3n58iULS0tLKKUQEXK5HMlkkrW1NSqVCplMBmMMg8GA8XjM0dER0+mUyWSC7/tYa1m4uLjAWou1lgURIR6Pk8lkKJVKFAoF0uk0SimUUogIIoKIYIzBWou1loODA4IgwFrLfD5nIQxDfN8nCALCMOQVz/PIZDJUq1XK5TKZTIZ6vU42m2V1dZXt7e0Y/0KxKIpYuH//frS3t8edO3fY3d1lNBohIiilyOVyVKtVRITJZIK1llQqhVKKBWMMk8mEfr/PaDRiOp2ykE6nqdfrvPvuu1y9epVyucyNGzdifEdPnz6N9vf3+eSTT/j1r3/Nixcv0FqTyWTI5/PU63UcxyGfz+M4DkopZrMZ0+mU2WxGp9NhNBrR6/XwfR9rLQvn5+cYYygWi1hrEREcxyGdTlMoFMhms3iex9WrV9FaIyIsLy8zHo/pdDrs7+/T6XQYDAb4vs90OsVai1KKeDyOUooFEcFxHFKpFKVSiWKxSKFQIJ1O4zgO1lpEhAWlFK+ICAvWWowxLFhrUUoxHA45PT2l3++zv79PEATMZjOstSilyOVypNNpUqkUjUaDUqnE+vo6lUqFbDZLrVaL8c8Ui6KIhQcPHkStVos7d+7w6NEjRqMR8/kcEaFYLFKr1dBaM5vNsNaSy+UwxrBgrWUymTAcDhkMBkynU6y1KKUolUpcv36dmzdvsrGxQSqV4p133onxHXS73Wh/f59PP/2UL7/8klarxYLjOHieR6PRIJlMsrq6SjabxXVdjDFYawmCgE6nw8nJCUdHR/T7fcIwRESw1mKMIZVKsaC1Jp1Os7a2Rq1WY2Njg3w+T6/XQ0QIwxBjDMPhkHa7zf7+Pqenp/i+z3w+xxjDQiKRIJVKobVGKYUxhmw2S6FQoFwuk8vlSCaTKKVYODs745WlpSVEBBFBKYWIICJYa9FasyAi9Ho9Xrx4weHhIcYYZrMZvV4P3/eZz+fE43E8z8N1XYrFImtra9Trder1OuVyGc/zuHTpUox/hlgURSw8ffo0Oj4+Znd3lzt37nDv3j2UUiwvL5PJZKhWq3iehzEGpRSe5+H7PsYYjDGEYYgxhn6/z+npKePxGMdxKBaLlMtldnZ2qNVqbG5ukkqluHLlSow/4OTkJJrNZnQ6He7fv8/nn39Oq9XCGINSio2NDTzPo1wus7q6SjqdxnEcRARrLb1ejwWlFL7v4/s+QRCglEJEEBFSqRSlUolMJkMymURrjdYapRQLxhhOTk7Y29vjq6++Ynd3l+FwiDGGBRFhc3OTcrmM1pogCJjNZpyfn5NIJNja2qJWq6G1xlqL1hrf9+n3+8TjcRYuLi5YsNbyirWWYrGIUgqtNSKCMYYgCJjNZsznc8IwRESw1rK3t8f+/j7D4ZCFYrFIJpOhVCpRLpdpNBpUKhVyuRyu6/LWW2/F+I5iURTxyqeffhrt7e1x9+5dvvjiC4wxiAie51Eul/E8D2MMSik8z8P3fay1WGsxxmCtZTgcMhgMGI/HhGFIMpkkk8nQaDSo1WpcvnyZSqVCLpdje3s7xh/w9OnTaDAY8OTJEx4+fMju7i6z2QxjDLlcDsdxyOfzlMtlVldXyWazOI6DUgrXdRERRIQwDAnDkDAMERGUUhSLRRZEhAURQSmF67porXnx4gUnJye0Wi12d3dpNpv0+32MMYgI9XqdYrFIoVDAWstgMCAIAjzPI5fLUa1WqVarZDIZgiBgMplgrWU4HDIajQiCABFhQUQQEUQEEWGh0WjwijGGMAwJw5Dz83OMMWitCYIAYwyDwYDpdMpgMGA8HmOMYTabkUqlKJVKVKtV3njjDarVKtVqlUwmw5tvvhnjO4hFUcQrD+isv/AAABu2SURBVB8+jFqtFl9++SUPHjzg+PgYay1aawqFAslkkgWtNZ7nMZvNsNbyiojg+z7D4ZDJZEKv10NEUEpRLBapVqtcvXqVzc1NKpUKmUyGK1euxPgDvv7666jdbrO7u8ujR484PDxkNpthrUVrjed5FItFyuUya2tr5PN5PM/D8zxWVlZQSmGtxVrLgtYapRRBECAiaK0REZRSvGKt5d69ezx79oyvv/6a3/zmN5yfn7OyskIqlcJ1Xba2tkin0ziOw8nJCUdHRyil2NzcZGtri1KphOu6GGPo9Xqcnp5ydnbGbDbD933W19cREZaWllBKISIopVgQEYwxLFhrMcZwcXGBtRZrLQuJRILxeEwQBIgIqVSK2WxGp9Ph+fPnfPPNN6ysrOB5HplMhkqlws7ODleuXOGNN97g0qVLMb6DWBRFvNJqtaLDw0MePXrEr3/9ax49eoTv+4gIqVSKVCrF8vIyqVSKVCrF6ekp1lpEBBFBa00YhgRBwNnZGc+ePWM+n2OtRURIp9NsbW1x+fJlqtUqq6urpNNp3n///Rj/hG+//TZ6/vw5zWaTr7/+mqOjI6bTKUdHRywopXBdl1QqRaVSoVQqkclkiMfjOI6D53lorRERtNasrKygtcYYg+u6pFIpVlZWuLi44OjoiIODA7rdLvv7+3S7XZ4/f858PieZTLK+vk42m8V1XSaTCZ7n4bou1lqstZRKJXZ2dtjc3GQ2mxEEAf1+nxcvXnBycoLv+8znc6y1hGHIgoiglMJai4iwICKk02mUUmitcRwHpRRLS0u8IiJMp1OstWitSafTBEHA4eEhh4eHPHnyBGMMxhi01hQKBd555x2uX79Oo9HA8zwuXboU4w+IRVHEK4eHh1G/36fZbLK3t8eHH37IYDAgDEM8z8PzPFzXJZ1Ok8lkOD4+xlqLiKCUwnVdrLUYYwiCgOFwyGQyodfrsSAiVCoVNjY2KJfL/PjHPyabzZLL5fA8jzfffDPG7/F//s//iZ4/f87BwQH9fp/ZbEaz2cQYQxAELDiOQy6XI51O43ketVoNz/NIp9N4nofjODiOQzwex3Ec6vU6xhiCIGA8HnN4eMju7i5fffUVrVYLEcH3febzOYlEgkKhQLFYRCnFQq/XI5lMsrq6SqVSoVKpsLa2Rj6fx3VdDg4OOD095fDwkG63y2AwYDabcXFxwdLSEoeHh/w2ay0L1loWCoUCyWSSXC5HsVjEdV201ixYa/E8D2stIoK1FhHBGEMYhgRBQLPZZDab0e128X0frTWNRoOdnR0ajQabm5t4nselS5di/BNiURTx2w4ODqKDgwOazSa/+MUv6HQ69Pt94vE4ruviui7JZJJUKsVkMsFai1IKpRSu6yIiLIRhyMJkMuHw8JDhcIgxhmQySSaTIZVKUa/XKZfL1Go1KpUKhUIBx3F48803Y/yOX/7yl1G/3+f4+JjxeEwQBLRaLcIwJAgCLi4uWIjH4ziOg+M4bG1tkUwmSaVSeJ6H1prl5WUcx0FrjbWWXq/HwcEBR0dHnJyccHx8zOHhIcPhkJWVFRa01nieh+u6aK2x1mKtpVKp4Hke5XKZjY0NyuUySimm0ymTyYSTkxOeP39Op9NhOBwymUwYjUZcXFywtLSE4zi8Yq3FGMPCxcUFC8YYEokEnueRy+XIZrNorRERFmq1Go7joLXGGEMYhhhjSKVSxONxDg8P6ff7tFotXrx4ge/7ZDIZqtUq1WqVn/70pxSLRSqVCvV6PcbvEYuiiN/19ddfR61Wi1/96ld88803/OY3v2FBKYXjODiOg+d5LC8vc3FxwdLSEkopPM9DRBARwjDEcRxmsxn9fp/RaMRsNuPly5csLS2hlEIpRaFQYHNzk+3tbX7wgx9QLpfJ5/N4nkcQBMznc3zfZzabMZ1OGQwGTCYTzs7O6HQ6vLK0tISIICKICCJCJpMhkUjgeR5KKRastYgIIsK9e/c4Pj7m8PCQ2WyG1hqtNcYYgiBgQSmF1hqlFCJCIpHA8zwcx2FnZ4dkMkkmk8F1XcIw5Pj4mG63S7/fZzQa0el0mEwmWGux1jIejwnDEKUUIsKCtRYRwRiDiGCtZcF1XZaWlhARlFJordFao7VGKUWtVsN1XZLJJEopRISFTCbDysoKjuPQ7/dpt9u0Wi2eP3+OiFAoFEin01y9epWNjQ22trYolUrUarUY/4hYFEX8rlarFbXbbe7evcvu7i57e3uEYYiIICIopXBdl3w+z8XFBSLC0tISqVQKEUEpRRiGaK0JggDf9xmPx0wmE3zfZz6fsxCPx8nlcpTLZWq1Gqurq+TzeTzPw3EcEokEFxcXLARBQBAEDAYD+v0+k8mEfr+PUgrHcVhZWUFrjYggIixYa3EcB8dxWAiCAN/3sdZiraXVajEej/F9HxHB8zyWl5eZTqfMZjMymQxKKZaXl1kQEXK5HBsbG5TLZTzPI5PJkEgkmE6nNJtNms0mL1684OzsjNPTU05OTjDGoLUmnU5zdnaGtZZ4PM6CiCAiKKWw1qKUQkQQEVzXJQgCRqMR8/kcEWFlZQXXddFak0qliMfjeJ5HJpMhnU6jlMJ1XRZ2dnYYjUa0222azSb7+/sEQUAqlcJxHMrlMo1Gg2vXrrGxsUEymWRjYyPG74hFUcTvOjg4iM7Pz9nd3WV/f58vv/ySZrOJ7/torXEcB6UUqVSKV5aXl1FK4TgOjuOglGLBWou1liAIGI/HjEYjJpMJ8/mcMAwREZRSJJNJPM8jm83ieR6O4+C6LisrK2itMcYwHo+ZTCYYYzDGMBwOUUqhtSaRSKCUQmvNgojg+z5hGDKfzwmCgAURQWuNiLCysoK1lldevnyJMQZrLWEYks/nWRARXNelUqmwsbHBD3/4Q/L5PJPJhG63y8nJCcfHxxweHrK3t8dwOGQhm81ijOHs7IwgCLDWIiKICEopSqUSruuSzWZJpVI4joMxhiAICIKAheFwyGg0YjabYa1FKYVSioVUKkU6nWZhfX0dpRTJZBLHcVioVquICI7j0O122d3dpdVq8eLFC87Pz2k0GhSLRa5du8atW7eo1+uUy+UYvyMWRRH/mHa7HXU6HZrNJg8ePODRo0f0ej0W0uk0juPgOA4LIoJSipWVFZRSOI6DiGCMQUQQEYwxBEHAdDrF932CIGA2m3FxcYExhgWtNfF4nFQqheu6+L6P1hqtNcYYgiBgNpthjMFay4KIoJRCKYWIoJRiQURwHAdrLcYYrLWICEopHMdhaWkJEUEpxYK1lvl8jjEGEWGhWq3iui7ZbJZcLkc+n8fzPBzHYWlpicePH3N0dESv12M4HDIajTg5OWFpaQnXdRkOh/yubDZLoVAgn89TrVZxXRfXdUkkEjiOg7WWMAy5uLjAGMNkMqHf7zMajfB9n/l8ThAEBEFAGIY4joO1llwux/LyMplMhkwmQzwep9FooLUmlUoxGo1oNps0m03a7Taz2YxCoUA2m+Xy5cv8+Mc/ptFocOnSpRi/IxZFEb/PN998Ez179oyHDx/y+eef02q1mE6nJBIJPM/DWotSCq01juOwvLyM1hoRYUFEEBG01ixYawnDkDAMMcYwn8/xfZ/BYMB0OsVai1KKeDyO1powDFFKoZTCWksYhsznc36biKCUYnl5mVdEBGstrusiIogISikcx0EpxfLyMiKCiKC1RilFGIacnZ1hrSUej+O6LrVajVwuR7lcJp/Po7VmOp0yGAwYj8f86le/4uTkBN/3McYwn8/xfR8RwXEcfN9HKUUikWB1dZV8Ps8bb7xBuVymWCyyurrKysoKWmscx0FrzSvWWoIgYDqdMpvNGAwG9Pt9er0ex8fH9Pt9JpMJ1lomkwlKKVzXJZPJUCqVSKVS1Go10uk0a2trGGM4Pj6m2Wyyv79Pv98nDEMcx6HRaHDr1i02NzfJ5XJcuXIlxm+JRVHE79NqtaJ+v8/BwQFffPEFv/71r3n+/DnGGLTWWGvRWqO1xvM8EokEWmtEBBFBKYWIICKICCKCtRZrLdZalFL4vk+/32c0GjGbzbDWsqCUYjqdopQiHo+zMJ/PsdayICIYYxARRITl5WWUUvw2x3FQSqG1RmuNUorl5WVEhAURwXVdHMfBGIPv+4gImUyGdDrN2toaiUSCTCaDUorZbEa326Xb7TIYDHjy5AlhGHJxccHy8jLz+ZwwDHnFdV3y+TwbGxvU63VWV1epVCrk83lSqRRaa0QEEUFE2N7ejvEPOp1OxD84OzsjDEOMMcxmM/r9PkdHR3Q6HU5OTvB9n8lkwuHhIdPplIV0Os3q6irZbJZyuUyhUKBWq+F5HkEQ0G63aTabHB0d0Wq10Fqzvr7OjRs3aDQaVKtV1tfXuXTpUoz/XyyKIv4pX3/9dTSbzdjf3+err77i8ePHnJ6ecnZ2hrWW5eVltNakUilc1yWRSKC1RimF1poFpRSvWGt5RSmFMYYwDPF9n7OzM3zfJwxDjDF0u1201iilsNZijMFai4iglCIMQ0SEeDyO1hoRQSmFiLCQSqVQSiEiLC8vIyIsGGNYUErhui6e5yEiGGNQSpHNZvE8j1KpRBiGTKdTBoMB/X6f09NT+v0+vu/j+z5nZ2cYYxARXhERRIQbN25QrVap1+v8m3/zb8jn87iui1KK7e3tGP9Mjx8/jk5PT+n1egwGA4bDIaenpxwcHNDpdBgOh6ysrOC6Lp7nUalUKJVKNBoN1tfXSSQSdLtdOp0Oh4eH/OpXv2IhlUqxtbVFvV6nXq/TaDSo1Wrk8/kY/yAWRRF/yLfffhu9ePGCdrvNgwcPaDabHB8fMx6PWV5eRkRwHAfXdfE8j3g8jtYax3FYsNayICIsWGv5bSKCMYYwDPF9n/l8ThiGTCYTlFIopVgIgoAFpRRKKez/1x68Pad1ngsc/vH61cdieekshCgmhGEYLHnUZpwe0k6afyL/Z6960elNbzrpjSe1Ex2sMgzFVEJICBBgtLT8+V2768J7crFn7+42PcbPY4aqEgQBzjny+TwigoiQEREyZoaZ8Y73nkwURagqqkoYhhQKBZxzvLO7u8t0OmUwGHBxccH19TWLxQLvPRlVZTKZ8I6qsr6+TqPRoNFoUK/X2d3dpVKpUC6Xcc5RrVZz/I2Ojo7SxWLB+fk5V1dX9Pt92u02w+GQxWLBcrlERPjggw8olUo0Gg2azSaVSoXlcsnNzQ3D4ZBf/OIXLJdLMpVKhQ8++IBms8nBwQGtVotarZbjz3JpmvKXePnyZToajTg+Pub09JRer0e/38d7j5mRERGiKCIIAgqFAmEYkjEzRISMqiIiiAgZM8PM8N5jZiRJgplhZmRUFRHBzLi7uyMjIuTzeZxzqCqqiqqiqmREhMxsNsN7T5IkmBlv3rzhwYMHiAgiwtbWFkmSkAnDkM3NTUSE29tbZrMZqspyuWQymTAej7m9vcV7j5mRUVW895gZm5ub1Go1ms0mrVaLVquFqhKGIVEU8fjx4xzfsufPn6fT6ZTr62va7Tb9fp+Liwv6/T5xHOOcY2Njg1qtxpMnT2i1WogImfF4zC9/+Utubm6YTqdsbW1RLBZptVocHh7y5MkTHj9+nOPPcmma8pc6OTlJO50O7XabbrfL2dkZcRwzm81IkoRMEAQ45wiCgNXVVTJmhqqiqjjnCIIAVUVVSZKEJEmI4xjvPZkgCBARkiRBRBARvPfEcYyZoao453DOkVFVRISMmZExM+I4xnvP3d0d3nsy+Xwe5xzOOba2tlgsFiRJQhRFbG9v471nMBhwfn7OYrHAzDAzkiThzZs3eO8xM7z3BEGAiFAsFvn4449pNBpUq1VKpRJ7e3uYGY8fP87xd/SHP/whXSwWdLtder0enU6HdrvNdDplOByyurrK7u4u+/v7/PCHPySKIlSV2WzGb3/7Wy4vLxkOh4RhyObmJs1mk8PDQw4PD9nc3KRWq+VyaZrylxoMBulgMKDf73N5eUmv12MwGNButxkMBiRJgnOOfD6Pc44gCIiiiHw+j6piZjjnCMOQKIqI4xhVRVXx3pMkCWaGiKCqeO8xM7z3eO/JqCqqiojgvUdVcc7hvcfM8N7jnENVEREWiwXX19csl0vMjM3NTba2tlhbWyNjZogIIsKDBw8YDod0u10GgwFmhojgvcfMeEdECIKAQqFAq9Xipz/9KU+fPmVvb498Ps+bN294/Phxjn+QTqeTTiYTlsslp6ennJ6e0uv1mM/nTKdTVJVarUar1aJSqbCxsUEURZyennJ5ecnZ2RnD4RARYX9/n6dPn9Jqtdjb2+P73/9+LpemKf9fX3zxRXpzc8NoNKLf73N8fEy322WxWPCOqiIihGFIGIaoKmaGiJDP5wmCgCAIUFVEBDMjjmPMDBFBVRERzAzvPWZGRkRQVUQE7z2qiqrivcd7j/ce5xyqymg0wswwM1SVMAzZ2NhgfX2dMAwxM25ubhiNRtzc3BDHMbPZjNvbW5bLJVEUYWbEcUxGRAiCgGKxSLFY5Ec/+hHFYpF6vc7u7i5BEHBwcJDjn+Dk5CT13tPpdOh2u1xcXPD8+XOurq7w3rOzs0O1WqVSqbC3t8fm5iaLxYLBYECn06Hf7+O9p16v84Mf/IBWq0W9Xufp06e5XJqm/DVOTk7SOI7p9XocHx9zenrK+fk5s9mMJEnw3iMiBEFAEAQ45/Deo6pknHOsrq6iqqgqZob3HjNDVXHOoaqYGWaGmZEREUQEESGjqmS89yRJQpIkqCqqyvX1Nfl8niAIiKKI1dVVgiDAOYeqcnx8zGQyYTQasVgsePv2Le+YGd57MiKCqrK+vk6j0WB/f59KpcLHH3+Mcw5V5eDgIMc/2fn5eTocDhkMBoxGI371q1/R6/UYDocUCgXW1tYol8vs7OxQKpUol8tMJhO63S7dbpfxeEy5XGZ/f59ms8nh4SGlUolcmqb8tYbDYTocDul0OpydndHr9Xj16hWDwYDJZMLKygrOOUQE5xwigoigqmREBOcchUIBESEjIjjncM4hIpgZ/xMRwcwQEVSVJEmI45gkSRARVBURQURQVUSEjJlhZnjvefbsGWaG9x4Rwcx4x8xQVfL5PHt7e1SrVarVKs1mk0ajwd7eHmbGwcFBjn8hvV4vvb29ZTqd8uzZM05PTzk+PmaxWCAiRFHE5uYme3t7fPTRR9zd3XF5eUmn06Hf7xMEAY1Gg0ajwSeffMKjR4/IpWnK36LX66WTyYTLy0t6vR6np6e0223Oz89JkgQzw8wQEVQVVUVEyMRxjKoShiHOOVQV5xyFQoEgCEiShIyI8E1mRkZEEBEySZKQJAn39/dkRITt7W2898RxzOvXr4njmCRJ8N6Tmc/nZJIkwXvPOyJCplarUalU2N/fZ39/n0qlwtbWFg8fPqRer+f4F9XpdNL5fM54POb09JTnz59zcXHBcDgkjmOCIGBnZ4dPP/0U5xzL5ZJer8fZ2RneeyqVCvV6nZ///OfU63VyaZrybTg6OkrH4zFnZ2d0Oh36/T6DwYDlcsl0OuX+/p7MysoKIoKZkVFVnHM458ioKkEQUCgUuLu7Q0QQEUSEjJlhZpgZIoKqkkmShDiO8d6TUVWCICCOY5bLJfP5nCRJMDNUFRFBRPDekyQJGRFhdXWVvb09SqUST548oVqt0mg0qFarhGFIqVTK8W/g5cuXqYjQbrdpt9v88Y9/pN1uMxgMiOMY5xw/+clPKJVKhGHI1dUVR0dHTKdTtra2qNVqfPbZZzSbTXJpmvJt6Xa76WAw4Pr6mtFoRLfbZTgc0u/3GY1GLJdLzIw3b95gZogIKysrqCoZMyPjnMM5R0ZEUFVEhIyZ4b3HzDAznHNkvPfEcYz3HhFBVTEzvPfc3d2RJAnviAgZESGfz+OcY21tje3tbfb392m1WtTrdVSVtbU1VldXaTQaOf7NDIfD9Pz8nMFgwJ/+9CeOjo44PT3l6uoKEaFSqdBsNnn06BGLxYKvv/6a4XBIGIZUKhU+/fRT9vf3yaVpyrft5OQkXSwWDAYDXr16xcuXL3n16hWTyQTvPXEc473n7u6OlZUVRATvPff393jvERFUlYcPHyIiqCqqSsZ7j/ceM8PMcM6RMTNev36NmSEirKysYGZk3r59i5mRMTNEhMz29jalUonvfe97VKtVNjc3efToEeVymWKxiIhQr9dz/BvrdDrp7e0tV1dXfPXVV7x48YJut4v3HhHh8PCQVquF954XL14wGAwIgoByucwnn3zCkydPyKVpyt/DcDhMb29vWSwWjMdjer0evV6PTqfDYDBgNpsxm814+/Yt3nsyZkbGOcfKygpmxv/GOYf3nvv7e5IkwczImBkZESEjImSccxSLRWq1Gru7uzQaDba3tymXy+zs7BBFEQ8fPsQ5R7FYzPEfot/vp9fX1wwGA46Pj3nx4gW9Xo8kSXDOUS6XqVar3N/fMxqNSJKEra0tfvazn9FsNsmlacrfU6/XS+fzOVdXV1xfX3N+fs50OmWxWDCZTIjjmNlsxu3tLYvFgiRJ8N6TefPmDRkzIyMiZMyMjJmRMTMyIoJzjgcPHqCqBEFAGIZEUcT29jZra2uUy2VKpRIbGxsUi0WiKGJjY4NCoUCmWq3m+A90cnKSjsdj2u027Xab8/Nz2u02me3tbT788ENWV1eZz+fMZjOcc/z4xz+m0WiQS9OUf4Rer5e+fv2axWLBYrEgSRJOTk5YLpdMp1Our68Zj8fM53OSJMF7z3Q6JSMiZESEb7q/vydTKBQIw5AoilhfXycIApxzFItFNjY2KJVK7O7usr6+ThRFhGFIoVDAOUelUsnxHXFycpJeXl5yfn7OcDjkN7/5Dbe3t6gqzWaTarWKqjIej5nP53z00Uc0Gg1yaZryj9Tv91PvPWbG0dERSZKwXC5ZLBa8fv2aOI5JkgQzYzgckhERvklEeEdVyefzRFFEGIasr68TRRHOOdbX11lbW2NjY4PV1VVEhEylUsnxHfXVV1+lo9GIm5sbfve739Hr9RgOh5RKJfb399nZ2WE6nXJzc8PBwQGNRoNcmqb8s/R6vdTMuL+/x3tPxnuPiGBmjMdjvklV+SbvPSJCRlVxzhEEAaqKqpLP53HOUS6Xc7z33549e5bOZjN6vR7tdpuvv/4aM+PDDz+kVquRJAnj8Zhms0m9XieXpin/KiaTSWpmZMyMJEnIiAgZEeGbnHOYGWaGmWFmlMvlHO/9n7744ovUe0+v1+P3v/89g8GAMAyp1WqoKsvlklqtRq1WI5emKe99N3355Zfpcrmk0+lwdnbGfD6nVCoRhiFmxvb2NrVajVyaprz33XV0dJSORiOOj48ZDAZEUcTDhw9RVaIoolqtkkvTlPe+27788su03+/T7XaJ45jV1VW2traoVCp89tlnuVyaprz33fby5cv04uKCfr/PcrkkCALW1tb4/PPPc/xZLk1T3nsv8+tf/zqdz+d8/vnnOb7hvwD4ssw3yawxZQAAAABJRU5ErkJggg==;" vertex="1" parent="1">
          <mxGeometry x="127" y="582" width="80.48" height="47" as="geometry" />
        </mxCell>
        <mxCell id="i6UgYKZivtmGIP7_H5B_-6" value="" style="shape=image;aspect=fixed;image=data:image/png,iVBORw0KGgoAAAANSUhEUgAAAGUAAACSCAYAAABc6wRuAAAEYElEQVR4Ae3BMYKkNgAAwe7/P7rtwIGDtW8ZCaEBquS1HXltR17bkdd25LUdeW1HXtuR13bktR15bUde25HXduS1HXltR25KjV+oZDPy5dSYqJKLyZdS40SVXES+jBqLVbKQfAE1NlDJArI5NTZSyclkY2psqJITyYbU+AKVnEA2o8YXqWQy2YwaX6aSiWQjanyhSiaSTajxxSqZRDagxg1UMoFcTI0bqWSQXEyNG6lkkFxIjRuqZIBcSI2bquRDchE1bqySD8kF1HiASj4gF1DjASr5gFxAjQeo5AOymBqLVPIf1FigkoNkMTVOVMkBapyokoNkMTVOUsmH1DhBJQfJQmqcpJJBakxWyUGykBonqGQSNSaq5CBZSI3JKplIjckqOUAWUmOySiZTY6JKDpCF1JiokhOoMVElB8hCakxUyQnUmKiSA2QhNSaq5CRqTFLJAbKIGpNVchI1JqnkAFlEjckqOYkak1RygCyixmSVnECNiSo5QBZRY7JKTqDGJJUcJIuoMVklJ1BjkkoOkkXUmKySydSYqJKDZBE1JqtkIjUmq+QgWUSNE1QygRonqOQgWUiNE1TyATVOVMkHZCE1TlLJL6mxQCUfkIXUeIhKPiQLqfEQlXxIFlLjASoZIAup8QCVDJCF1Li5SgbJQmrcWCUTyCJq3FwlE8giatxYJZPIAmrcWCUTycnUuKlKTiAnU+OGKjmJnEiNG6rkRHISNW6okpPJCdS4mUoWkcnUuJFKFpPJ1LiBSi4iE6nx5Sq5mEyixperZAMygRpfrpJNyARqfLFKNiITqPHFKtmITKDGl6tkEzJIjRuoZBMySI0BlfxAjcUq2YAMUuMDlfyCGotUsgEZoMYHKjlAjUUquZgMUOOgSj6gxgKVXEwGqHFAJQPUWKCSC8kANQ6oZJAaC1RyERmgxi9VMokaJ6vkIjJAjV+oZDI1TlbJBWSAGr9QyQnUOFkli8kANf6gkpOpcZJKFpMBavxBJQuocZJKFpIBavxBJYuocYJKFpIBavyPShZTY7JKFpJBavygkouoMVkli8ggNX5QyUXUmKySRWQCNf6lkoupMVEli8hNqTFRJYvIjakxUSULyM2pMUklC8gDqDFBJQvIA6gxQSULyAOoMUElC8gDqDFBJQvIQ6gxqJIF5CHUGFTJAvIQagyqZAF5CDUGVbKAPIQagypZQB5CjUGVLCAPocagShaQh1BjUCULyEOoMaCSReQB1BhUySLyAGoMqmQReQA1BlSykDyAGgMqWUgeQI0BlSwkN6fGgEoWk5tTY0Ali8mNqTGgkgvIjakxoJILyE2pMaCSi8hNqTGgkovITanxoUouJDekxocquZjckBofquRicjNqfKiSDcjNqPGBSjYhN6LGByrZiNyEGh+oZDNyE2r8o/Jv8T8q2ZTcmBo/qGRjclNq/KCSzclrO/Lajry2I6/tyGs78tqOvLYjr+3Iazvy2o68tiOv7chrO/Lajry28xcHyWixQipdjAAAAABJRU5ErkJggg==;" vertex="1" parent="1">
          <mxGeometry x="431" y="489.0038775510204" width="101" height="146" as="geometry" />
        </mxCell>
        <mxCell id="i6UgYKZivtmGIP7_H5B_-7" value="" style="endArrow=none;dashed=1;html=1;shadow=0;strokeColor=#777777;strokeWidth=3;fontFamily=Verdana;fontSize=24;fontColor=#000000;" edge="1" parent="1">
          <mxGeometry width="50" height="50" relative="1" as="geometry">
            <mxPoint x="507" y="545.0038775510204" as="sourcePoint" />
            <mxPoint x="543" y="587.0038775510204" as="targetPoint" />
          </mxGeometry>
        </mxCell>
        <mxCell id="i6UgYKZivtmGIP7_H5B_-8" value="" style="endArrow=none;dashed=1;html=1;shadow=0;strokeColor=#777777;strokeWidth=3;fontFamily=Verdana;fontSize=24;fontColor=#000000;fillColor=#ffffff;" edge="1" parent="1">
          <mxGeometry width="50" height="50" relative="1" as="geometry">
            <mxPoint x="510" y="529.0038775510204" as="sourcePoint" />
            <mxPoint x="563" y="527.0038775510204" as="targetPoint" />
          </mxGeometry>
        </mxCell>
        <mxCell id="i6UgYKZivtmGIP7_H5B_-9" value="" style="endArrow=none;dashed=1;html=1;shadow=0;strokeColor=#777777;strokeWidth=2;fontFamily=Verdana;fontSize=24;fontColor=#000000;fillColor=#ffffff;" edge="1" parent="1">
          <mxGeometry width="50" height="50" relative="1" as="geometry">
            <mxPoint x="560" y="592.0038775510204" as="sourcePoint" />
            <mxPoint x="567" y="565.0038775510204" as="targetPoint" />
          </mxGeometry>
        </mxCell>
        <mxCell id="i6UgYKZivtmGIP7_H5B_-10" value="" style="endArrow=none;dashed=1;html=1;shadow=0;strokeColor=#000000;strokeWidth=2;fontFamily=Verdana;fontSize=24;fontColor=#000000;fillColor=#ffffff;" edge="1" parent="1">
          <mxGeometry width="50" height="50" relative="1" as="geometry">
            <mxPoint x="601" y="564.0038775510204" as="sourcePoint" />
            <mxPoint x="565" y="564.0038775510204" as="targetPoint" />
          </mxGeometry>
        </mxCell>
        <mxCell id="i6UgYKZivtmGIP7_H5B_-11" value="" style="curved=1;endArrow=none;html=1;shadow=0;strokeColor=#000000;strokeWidth=2;fontFamily=Verdana;fontSize=24;fontColor=#000000;endFill=0;" edge="1" parent="1">
          <mxGeometry width="50" height="50" relative="1" as="geometry">
            <mxPoint x="576" y="564.0038775510204" as="sourcePoint" />
            <mxPoint x="570" y="555.0038775510204" as="targetPoint" />
            <Array as="points">
              <mxPoint x="576" y="556.0038775510204" />
            </Array>
          </mxGeometry>
        </mxCell>
        <mxCell id="i6UgYKZivtmGIP7_H5B_-12" value="&lt;h3&gt;&lt;font style=&quot;font-size: 18px&quot; face=&quot;Helvetica&quot;&gt;\(t_i\)&lt;/font&gt;&lt;br style=&quot;font-size: 22px&quot;&gt;&lt;/h3&gt;" style="text;html=1;strokeColor=none;fillColor=none;align=center;verticalAlign=middle;whiteSpace=wrap;rounded=0;fontFamily=Garamond;fontSize=22;fontColor=#000000;fontStyle=1" vertex="1" parent="1">
          <mxGeometry x="559" y="512.0038775510204" width="40" height="20" as="geometry" />
        </mxCell>
        <mxCell id="i6UgYKZivtmGIP7_H5B_-13" value="" style="curved=1;endArrow=none;html=1;shadow=0;strokeColor=#FF4040;strokeWidth=7;fontFamily=Verdana;fontSize=24;fontColor=#000000;endFill=0;opacity=50;" edge="1" parent="1" source="i6UgYKZivtmGIP7_H5B_-14">
          <mxGeometry width="50" height="50" relative="1" as="geometry">
            <mxPoint x="563" y="527.0038775510204" as="sourcePoint" />
            <mxPoint x="543" y="587.0038775510204" as="targetPoint" />
            <Array as="points">
              <mxPoint x="573" y="567.0038775510204" />
            </Array>
          </mxGeometry>
        </mxCell>
        <mxCell id="i6UgYKZivtmGIP7_H5B_-14" value="" style="ellipse;whiteSpace=wrap;html=1;aspect=fixed;strokeColor=#000000;strokeWidth=1;fillColor=#000000;fontFamily=Verdana;fontSize=24;fontColor=#000000;" vertex="1" parent="1">
          <mxGeometry x="559.5" y="527.0038775510204" width="7" height="7" as="geometry" />
        </mxCell>
        <mxCell id="i6UgYKZivtmGIP7_H5B_-15" value="" style="ellipse;whiteSpace=wrap;html=1;aspect=fixed;strokeColor=#000000;strokeWidth=1;fillColor=#000000;fontFamily=Verdana;fontSize=24;fontColor=#000000;" vertex="1" parent="1">
          <mxGeometry x="560" y="559.0038775510204" width="7" height="7" as="geometry" />
        </mxCell>
        <mxCell id="i6UgYKZivtmGIP7_H5B_-16" value="" style="ellipse;whiteSpace=wrap;html=1;aspect=fixed;strokeColor=#000000;strokeWidth=1;fillColor=#000000;fontFamily=Verdana;fontSize=24;fontColor=#000000;" vertex="1" parent="1">
          <mxGeometry x="540" y="583.0038775510204" width="7" height="7" as="geometry" />
        </mxCell>
        <mxCell id="i6UgYKZivtmGIP7_H5B_-17" value="" style="ellipse;whiteSpace=wrap;html=1;aspect=fixed;strokeColor=#000000;strokeWidth=1;fillColor=#000000;fontFamily=Verdana;fontSize=24;fontColor=#000000;" vertex="1" parent="1">
          <mxGeometry x="551.5" y="572.0038775510204" width="7" height="7" as="geometry" />
        </mxCell>
        <mxCell id="i6UgYKZivtmGIP7_H5B_-18" value="" style="ellipse;whiteSpace=wrap;html=1;aspect=fixed;strokeColor=#000000;strokeWidth=1;fillColor=#000000;fontFamily=Verdana;fontSize=24;fontColor=#000000;" vertex="1" parent="1">
          <mxGeometry x="562" y="543.0038775510204" width="7" height="7" as="geometry" />
        </mxCell>
        <mxCell id="i6UgYKZivtmGIP7_H5B_-19" value="" style="endArrow=classic;html=1;shadow=0;strokeColor=#000000;strokeWidth=2;fontFamily=Verdana;fontSize=24;fontColor=#000000;endSize=3;" edge="1" parent="1">
          <mxGeometry width="50" height="50" relative="1" as="geometry">
            <mxPoint x="567" y="564.0038775510204" as="sourcePoint" />
            <mxPoint x="575" y="533.0038775510204" as="targetPoint" />
          </mxGeometry>
        </mxCell>
        <mxCell id="i6UgYKZivtmGIP7_H5B_-21" value="" style="endArrow=none;html=1;endFill=1;curved=1;strokeWidth=2;startArrow=none;startFill=0;endSize=3;startSize=0;fillColor=#f8cecc;strokeColor=#FF0000;gradientColor=#ea6b66;sourcePerimeterSpacing=5;targetPerimeterSpacing=0;shadow=0;comic=1;exitX=0.564;exitY=0.87;exitDx=0;exitDy=0;exitPerimeter=0;" edge="1" parent="1" source="i6UgYKZivtmGIP7_H5B_-6">
          <mxGeometry width="50" height="50" relative="1" as="geometry">
            <mxPoint x="479.81999999999994" y="606.45" as="sourcePoint" />
            <mxPoint x="449.99800000000005" y="578.2357142857143" as="targetPoint" />
            <Array as="points">
              <mxPoint x="496" y="602" />
              <mxPoint x="498" y="592" />
              <mxPoint x="495" y="579" />
              <mxPoint x="491" y="570" />
              <mxPoint x="467" y="546" />
              <mxPoint x="466" y="535" />
              <mxPoint x="468" y="525" />
              <mxPoint x="476" y="513" />
              <mxPoint x="494" y="510" />
              <mxPoint x="509" y="523" />
              <mxPoint x="510" y="536" />
              <mxPoint x="503" y="552" />
              <mxPoint x="482" y="555" />
              <mxPoint x="461.2819999999999" y="557.2765306122449" />
              <mxPoint x="455.6399999999999" y="561.3071428571427" />
              <mxPoint x="450.80399999999986" y="570.1744897959184" />
            </Array>
          </mxGeometry>
        </mxCell>
        <mxCell id="i6UgYKZivtmGIP7_H5B_-23" value="&lt;h3&gt;&lt;font style=&quot;font-weight: normal ; font-size: 18px&quot; face=&quot;DejaVu Sans&quot;&gt;\(\theta_i\)&lt;/font&gt;&lt;br style=&quot;font-size: 22px&quot;&gt;&lt;/h3&gt;" style="text;html=1;strokeColor=none;fillColor=none;align=center;verticalAlign=middle;whiteSpace=wrap;rounded=0;fontFamily=Garamond;fontSize=22;fontColor=#000000;" vertex="1" parent="1">
          <mxGeometry x="567" y="538.0038775510204" width="50" height="20" as="geometry" />
        </mxCell>
        <mxCell id="i6UgYKZivtmGIP7_H5B_-24" value="" style="shape=flexArrow;endArrow=classic;html=1;fillColor=#A8A8A8;strokeColor=#A8A8A8;" edge="1" parent="1">
          <mxGeometry width="50" height="50" relative="1" as="geometry">
            <mxPoint x="315" y="578.43" as="sourcePoint" />
            <mxPoint x="415" y="578.43" as="targetPoint" />
          </mxGeometry>
        </mxCell>
        <mxCell id="i6UgYKZivtmGIP7_H5B_-25" value="&lt;b&gt;&lt;font style=&quot;font-size: 16px&quot; color=&quot;#c90000&quot;&gt;Centerline extraction&lt;/font&gt;&lt;/b&gt;" style="text;html=1;strokeColor=none;fillColor=none;align=center;verticalAlign=middle;whiteSpace=wrap;rounded=0;" vertex="1" parent="1">
          <mxGeometry x="315" y="523.43" width="90" height="30" as="geometry" />
        </mxCell>
      </root>
    </mxGraphModel>
  </diagram>
</mxfile>
